<?xml version="1.0" encoding="utf-8"?>
<!-- Generator: Adobe Illustrator 26.1.0, SVG Export Plug-In . SVG Version: 6.00 Build 0)  -->
<svg version="1.1" id="Calque_1" xmlns="http://www.w3.org/2000/svg" xmlns:xlink="http://www.w3.org/1999/xlink" x="0px" y="0px"
	 viewBox="0 0 375 525" style="enable-background:new 0 0 375 525;" xml:space="preserve">
<style type="text/css">
	.st0{fill:#91CBB1;}
	.st1{fill:#ED694F;}
	.st2{fill:none;stroke:#E6F3EE;stroke-width:2.94;stroke-miterlimit:10;}
	.st3{fill:#E4C280;}
	.st4{fill:#B3D8B6;stroke:#FFFFFF;stroke-width:2.94;}
	.st5{fill:#E3C276;stroke:#FFFFFF;stroke-width:2.94;}
	.st6{fill:#FFFFFF;}
</style>
<g id="a">
</g>
<path class="st0" d="M80.7,445.6c26,1.1,52,2.1,78.1,2c26.3-0.1,52.6-0.7,78.9-1c11.5-0.1,23-0.2,34.5-0.1
	c6.5-2.2,13.8-1.9,20.5-1.1c4.4,0.5,8.7,1.3,13.1,2c3.2,0.2,6.4,0.4,9.6,0.6c19.6,1.3,39.5,3,59.1,1.9V-1h-375v447.1
	C26.6,443.6,53.7,444.4,80.7,445.6L80.7,445.6z"/>
<g>
	<ellipse class="st1" cx="95.1" cy="62.6" rx="52.9" ry="30.3"/>
	<polygon class="st2" points="107.2,4.4 5.3,100 176.6,42.3 9.8,50.3 176.6,94.1 44,15.4 111.6,132.4 	"/>
</g>
<g>
	<ellipse class="st1" cx="95.1" cy="325.8" rx="52.9" ry="30.3"/>
	<polygon class="st2" points="111.6,254.6 6.1,362.4 176.6,305.6 12.7,315 176.6,357.4 44,278.6 111.6,395.6 	"/>
</g>
<g>
	<ellipse class="st3" cx="218.1" cy="215.1" rx="42" ry="38.6"/>
	<polyline class="st2" points="186.5,149.3 213.4,233.8 251.5,149.3 	"/>
	<line class="st2" x1="147.5" y1="201.9" x2="284.4" y2="233.8"/>
	<line class="st2" x1="147.5" y1="229" x2="293.1" y2="184.4"/>
	<polyline class="st2" points="176.1,260.1 216,198.7 251.5,264.1 	"/>
</g>
<g>
	<path class="st3" d="M237.7,446.6c1.3,0,2.6,0,3.9,0c-6.7-4.2-14.8-6.6-23.5-6.6c-9.2,0-17.6,2.7-24.6,7.3
		C208.3,447,223,446.7,237.7,446.6L237.7,446.6z"/>
	<path class="st2" d="M238,442.8l12.7-28.1l0.9-1.9"/>
	<path class="st2" d="M186.5,412.8c3.5,9.8,7.5,19.8,9.8,30.7"/>
</g>
<path class="st4" d="M199.3,359.8c12.8-9,18.9-24.2,14.4-38.4c-0.3-0.8-0.5-1.6-0.9-2.4c-5.2-13.1,36.4,7.7,47.7,41.1
	c11.3,33.5-81.5,23.1-81.5,17.5C179.1,374.7,189.6,366.6,199.3,359.8L199.3,359.8z"/>
<path class="st4" d="M199.3,103.3c12.8-9,18.9-24.2,14.4-38.4c-0.3-0.8-0.5-1.6-0.9-2.4c-5.2-13.1,36.4,7.7,47.7,41.1
	c11.3,33.5-81.5,23.1-81.5,17.5C179.1,118.1,189.6,110,199.3,103.3z"/>
<path class="st4" d="M134.9,169.5c0,0-36.4,4.8-24.3,43S67.3,184.7,82,160.7S134.9,169.5,134.9,169.5L134.9,169.5z"/>
<path class="st4" d="M80.7,445.6c11.8,0.5,23.5,1,35.2,1.3c7.9-7.6,18.9-9.1,18.9-9.1s-38.1-32.7-52.9-8.8c-2.7,4.4-3,10.2-1.9,16.5
	C80.3,445.6,80.5,445.6,80.7,445.6z"/>
<path class="st5" d="M374.5,137.1c-9.2-4.9-23-9.8-37.1-6.2c0,0.1-12.3,7.1,18.4,32c0,0-3.4-15.3,18.7-18.2"/>
<path class="st4" d="M362.7,270.4c0,0-36.4,4.8-24.3,43s-43.3-27.9-28.6-51.8S362.7,270.4,362.7,270.4L362.7,270.4z"/>
<path class="st4" d="M374.5,25.6c-9.9,4-24.4,14.5-16.1,40.7c12.1,38.2-43.3-27.9-28.6-51.8c10.5-16.9,32.7-5.4,44.7,2.7"/>
<path class="st6" d="M375.3,173.6l-5.2,2.9l2.4,3.7c2,0.1-6.6,7.2-6.6,7.2l-2.5-7.6l-3,1.5l3.9,7.1l-6.1,3.4c-1,5.2-6.1,9.5-6.1,9.5
	l-104.7,50c0,0-69.1,36.8-76.3,36.4s-10.2-4.1-11.6-5.4c-1.4-1.4-4-9.6,1.9-17.2s7.6-13.2,5.9-16.6c-1.8-3.4-9-9.2-23.2-4.2
	s-21.9,17.2-21.9,17.2s-9.8,12.3-14.6,15c-7.6,4.3-31.4-5.1-31.4-5.1s-20.7-8.8-43.9,1.2C7.9,283.1,0,304.6,0,304.6L-0.3,514h375
	L375.3,173.6 M96.6,300.4l-1.2-3.8c-11.5-4-29,6.1-29,6.1c-9.4-3.1-17.7-0.6-17.7-0.6c-14.1-0.2-14.5-4.2-14.5-4.2
	c-1.7-8.9,8.2-9.8,6.5-1.4c12.4,2.8,28.9-6.8,28.9-6.8c5.6,3.1,27.9,2.8,27.9,2.8C107.3,300.5,97.1,301.4,96.6,300.4z"/>
<g>
	<path class="st0" d="M49.8,455.1c1,0,1.3,1.2,1.6,8.1c0.3,6,0.7,10.5,1.8,12.1c3.4,5,6.3,7.1,10.1,7.1c13.3,0,13.3-23.6,13.3-36.2
		V417c0-32.9-0.3-52.4-2.1-56c-1.1-2.1-4-2.9-8.1-2.9c-3.1,0-3.7,0-3.7-2.4v-3.3c0-1.2,0.4-1.7,1.4-1.7h34.7c0.7,0,1.1,0.2,1.1,1.4
		v3.8c0,2.1-0.9,2.1-2.7,2.1c-8.8,0.2-9,0.2-9,27.9v10c0.1,6,0.6,34.3,0.6,40.7c0,25-1,31-6.6,41.4c-5.8,8.8-12,12.1-21.8,12.1
		c-4.3,0-7.3-0.5-14-3.1v-30c0-1.2,0.3-2.1,0.9-2.1L49.8,455.1L49.8,455.1z"/>
	<path class="st0" d="M144,348h5.4l3.4,13.6c4.3,16.7,26.8,103.1,30.8,113.4c1.3,3.3,3.1,5.2,5,5.2c2.7,0,3,0.7,3,2.4v3.1
		c0,1.7-0.6,2.1-1.6,2.1l-32.2,0.2c-0.3,0-1.1-1.2-1.1-2.4l0.1-3.6c0-1,0.6-1.9,1-1.9h3.4c4,0,6.1-2.1,6.1-6.9
		c0-2.4-0.4-5.2-1.3-8.8l-5-20.5h-36l-5.7,23.6c-0.4,1.9-0.7,3.8-0.7,5.5c0,4.5,2.1,7.1,5.7,7.1h3.1c0.9,0,1.3,0.7,1.3,2.4v3.3
		c0,1.2-0.4,1.9-0.9,1.9l-27.1,0.2c-0.7,0-1-0.7-1-2.4V482c0-1.2,0.3-1.9,1.3-1.9c3.9,0,6,0,11.3-19L144,348L144,348z M143.4,373.9
		l-16.1,61.4H159L143.4,373.9z"/>
	<path class="st0" d="M245.4,361.3h-27.5c-8.6,0-11.3,4.3-11.4,18.3c0,2.9-0.3,3.6-1.1,3.6c-3,0-3-0.5-3-5v-24
		c0-3.3,0.3-3.3,2.4-3.3h53.8c2,0,2.3,0,2.3,1.2v5.5c0,1-0.1,1.9-0.7,3.1L246,396.3l-31.5,81H230c16.1,0,21.4-1,23.1-4
		c1.1-2.6,2.3-9.3,2.3-15.5c0.1-2.9,0.3-4.8,0.6-4.8h3.4c0.6,0,0.9,1.9,0.9,5.2v26.7c0,2.1-0.4,2.9-1.6,2.9l-59.2,0.2
		c-0.4,0-1-0.7-1-1.2v-6.7L206,462c12.3-29.8,23.4-58.1,34.2-86.7L245.4,361.3L245.4,361.3z"/>
	<path class="st0" d="M313.7,361.3h-27.5c-8.6,0-11.3,4.3-11.4,18.3c0,2.9-0.3,3.6-1.1,3.6c-3,0-3-0.5-3-5v-24
		c0-3.3,0.3-3.3,2.4-3.3h53.8c2,0,2.3,0,2.3,1.2v5.5c0,1-0.1,1.9-0.7,3.1l-14.1,35.7l-31.5,81h15.5c16.1,0,21.4-1,23.1-4
		c1.1-2.6,2.3-9.3,2.3-15.5c0.1-2.9,0.3-4.8,0.6-4.8h3.4c0.6,0,0.9,1.9,0.9,5.2V485c0,2.1-0.4,2.9-1.6,2.9l-59.2,0.2
		c-0.4,0-1-0.7-1-1.2v-6.7l7.6-18.1c12.3-29.8,23.4-58.1,34.2-86.7L313.7,361.3L313.7,361.3z"/>
</g>
</svg>
