<?xml version="1.0" encoding="utf-8"?>
<!-- Generator: Adobe Illustrator 26.1.0, SVG Export Plug-In . SVG Version: 6.00 Build 0)  -->
<svg version="1.1" id="Calque_1" xmlns="http://www.w3.org/2000/svg" xmlns:xlink="http://www.w3.org/1999/xlink" x="0px" y="0px"
	 viewBox="0 0 375.3 445" style="enable-background:new 0 0 375.3 445;" xml:space="preserve">
<style type="text/css">
	.st0{fill:#91CBB1;}
	.st1{fill:#ED694F;}
	.st2{fill:none;stroke:#E6F3EE;stroke-width:2.9664;stroke-miterlimit:10;}
	.st3{fill:#E4C280;}
	.st4{fill:#B3D8B6;stroke:#FFFFFF;stroke-width:2.9664;}
	.st5{fill:#E3C276;stroke:#FFFFFF;stroke-width:2.9664;}
	.st6{fill:#FFFFFF;}
	.st7{font-family:'Karmina-Bold';}
	.st8{font-size:30px;}
</style>
<g id="a">
</g>
<g>
	<path class="st0" d="M79.7,450c26.4,1.2,52.6,2.1,79,2c26.6-0.1,53.2-0.7,79.8-1c11.6-0.1,23.4-0.2,35-0.1c6.6-2.3,14-1.9,20.7-1.1
		c4.4,0.5,8.8,1.3,13.1,2c3.2,0.2,6.5,0.4,9.7,0.6c19.8,1.3,39.9,3,59.8,1.9V-0.3h-379v450.8C25,447.9,52.4,448.8,79.7,450L79.7,450
		z"/>
	<g>
		<g>
			<ellipse class="st1" cx="94" cy="63.8" rx="53.3" ry="30.5"/>
			<polyline class="st2" points="101.9,1.1 3.3,103.5 176.2,43.4 -2,50.7 			"/>
			<polyline class="st2" points="-2,55.4 176.2,95.6 42.4,16.2 110.6,134.2 110.6,1.1 			"/>
		</g>
		<g>
			<ellipse class="st1" cx="94" cy="329.2" rx="53.3" ry="30.5"/>
			<polygon class="st2" points="110.6,257.4 5.8,366.8 176.2,308.8 8.5,319.8 176.2,361 42.4,281.6 110.6,399.6 			"/>
		</g>
		<g>
			<ellipse class="st3" cx="218.1" cy="217.6" rx="42.4" ry="39"/>
			<polyline class="st2" points="186.2,151.3 213.3,236.4 251.8,151.3 			"/>
			<line class="st2" x1="146.8" y1="204.3" x2="285" y2="236.4"/>
			<line class="st2" x1="146.8" y1="231.6" x2="293.8" y2="186.6"/>
			<polyline class="st2" points="175.8,263 215.9,201.1 251.8,267 			"/>
		</g>
		<g>
			<path class="st3" d="M238,451c1.3,0,2.6,0,3.9,0c-6.8-4.2-15-6.7-23.8-6.7c-9.2,0-17.8,2.7-24.8,7.4
				C208.2,451.4,223.1,451.2,238,451L238,451z"/>
			<path class="st2" d="M238.2,447.2l12.7-28.3l0.9-1.9"/>
			<path class="st2" d="M186.2,417c3.5,9.9,7.6,20,9.8,31"/>
		</g>
		<path class="st4" d="M199.1,363.5c12.9-9,19.1-24.4,14.6-38.7c-0.3-0.8-0.5-1.6-0.9-2.4c-5.3-13.2,36.7,7.7,48,41.5
			c11.3,33.7-82.2,23.3-82.2,17.7C178.8,378.5,189.4,370.3,199.1,363.5L199.1,363.5z"/>
		<path class="st4" d="M199.1,104.9c12.9-9,19.1-24.4,14.6-38.7c-0.3-0.8-0.5-1.6-0.9-2.4c-5.3-13.2,36.7,7.7,48,41.5
			c11.3,33.7-82.2,23.3-82.2,17.7C178.8,119.8,189.4,111.7,199.1,104.9L199.1,104.9z"/>
		<path class="st4" d="M134.1,171.6c0,0-36.7,4.8-24.5,43.4S66,186.9,80.8,162.8S134.1,171.6,134.1,171.6L134.1,171.6z"/>
		<path class="st4" d="M79.5,450c11.8,0.5,23.8,1,35.6,1.4c8-7.7,19-9.2,19-9.2s-38.4-32.9-53.3-8.8c-2.7,4.4-3,10.3-1.9,16.6
			C79.1,450,79.3,450,79.5,450L79.5,450z"/>
		<path class="st5" d="M376.4,139.2c-9.3-5-23.4-10.1-37.8-6.4c0,0-12.5,7.1,18.5,32.2c0,0-3.4-15.6,19-18.3"/>
		<path class="st4" d="M363.9,273.3c0,0-36.7,4.8-24.5,43.4s-43.7-28.1-28.8-52.2C325.5,240.4,363.9,273.4,363.9,273.3L363.9,273.3z
			"/>
		<path class="st4" d="M376.4,26.4c-10,3.9-25.2,14.4-16.7,41.2c12.2,38.6-43.7-28.1-28.8-52.2c10.6-17.3,33.5-5.2,45.5,3"/>
	</g>
</g>
<path class="st6" d="M377,173.8l-5.3,2.9l2.4,3.8c2,0.1-6.7,7.3-6.7,7.3l-2.5-7.6l-3,1.5l3.9,7.2l-6.2,3.4c-1,5.3-6.2,9.6-6.2,9.6
	l-105.5,50.4c0,0-69.8,37.1-77.1,36.7c-7.3-0.3-10.3-4.1-11.7-5.5s-3.9-9.7,1.9-17.4c6-7.7,7.7-13.3,5.9-16.7s-9-9.3-23.4-4.3
	s-22,17.3-22,17.3s-9.8,12.4-14.8,15.2c-7.7,4.3-31.8-5.1-31.8-5.1s-20.8-8.9-44.3,1.2C6.1,284.2-2,309.7-2,309.7L-2,517h378.3
	L377,173.8 M95.8,301.6l-1.2-3.8C83,293.7,65.4,304,65.4,304c-9.5-3.1-17.9-0.6-17.9-0.6c-14.3-0.2-14.7-4.3-14.7-4.3
	c-1.7-9,8.3-9.9,6.6-1.4c12.5,2.9,29.2-6.9,29.2-6.9c5.7,3.1,28.1,2.8,28.1,2.8C106.6,301.7,96.3,302.7,95.8,301.6L95.8,301.6z"/>
<g>
	<path class="st0" d="M274,404.1H97.8c-15.8,0-28.6-12.8-28.6-28.6v0c0-15.8,12.8-28.6,28.6-28.6H274c15.8,0,28.6,12.8,28.6,28.6v0
		C302.6,391.3,289.8,404.1,274,404.1z"/>
	<text transform="matrix(1 0 0 1 100.2609 384.8145)" class="st7 st8">En savoir Plus</text>
</g>
</svg>
