<?xml version="1.0" encoding="utf-8"?>
<!-- Generator: Adobe Illustrator 26.1.0, SVG Export Plug-In . SVG Version: 6.00 Build 0)  -->
<svg version="1.1" id="Calque_1" xmlns="http://www.w3.org/2000/svg" xmlns:xlink="http://www.w3.org/1999/xlink" x="0px" y="0px"
	 viewBox="0 0 375.3 528.7" style="enable-background:new 0 0 375.3 528.7;" xml:space="preserve">
<style type="text/css">
	.st0{fill:#91CBB1;}
	.st1{fill:#ED694F;}
	.st2{fill:none;stroke:#E6F3EE;stroke-width:2.95;stroke-miterlimit:10;}
	.st3{fill:#E4C280;}
	.st4{fill:#B3D8B6;stroke:#FFFFFF;stroke-width:2.95;}
	.st5{fill:#E3C276;stroke:#FFFFFF;stroke-width:2.95;}
	.st6{fill:#FFFFFF;}
</style>
<g id="a">
</g>
<g id="b">
	<g id="c">
		<g>
			<g>
				<path class="st0" d="M81.1,450.7c26.1,1.2,52,2.1,78.1,2c26.3-0.1,52.6-0.7,78.9-1c11.5-0.1,23.1-0.2,34.6-0.1
					c6.5-2.3,13.8-1.9,20.5-1.1c4.4,0.5,8.7,1.3,13,2c3.2,0.2,6.4,0.4,9.6,0.6c19.6,1.3,39.5,3,59.1,1.9V0.4H0.1v450.8
					C27,448.6,54.1,449.5,81.1,450.7L81.1,450.7z"/>
				<g>
					<g>
						<ellipse class="st1" cx="95.2" cy="64.5" rx="52.7" ry="30.5"/>
						<polyline class="st2" points="103,1.8 5.5,104.2 176.5,44.1 0.3,51.4 						"/>
						<polyline class="st2" points="0.3,56.1 176.5,96.3 44.2,16.9 111.7,134.9 111.7,1.8 						"/>
					</g>
					<g>
						<ellipse class="st1" cx="95.2" cy="329.9" rx="52.7" ry="30.5"/>
						<polygon class="st2" points="111.7,258.1 8,367.5 176.5,309.5 10.7,320.5 176.5,361.7 44.2,282.3 111.7,400.3 						"/>
					</g>
					<g>
						<ellipse class="st3" cx="218" cy="218.3" rx="41.9" ry="39"/>
						<polyline class="st2" points="186.4,152 213.2,237.1 251.3,152 						"/>
						<line class="st2" x1="147.5" y1="205" x2="284.1" y2="237.1"/>
						<line class="st2" x1="147.5" y1="232.3" x2="292.8" y2="187.3"/>
						<polyline class="st2" points="176.1,263.7 215.8,201.8 251.3,267.7 						"/>
					</g>
					<g>
						<path class="st3" d="M237.6,451.7c1.3,0,2.6,0,3.9,0c-6.7-4.2-14.8-6.7-23.5-6.7c-9.1,0-17.6,2.7-24.5,7.4
							C208.2,452.1,222.9,451.9,237.6,451.7L237.6,451.7z"/>
						<path class="st2" d="M237.8,447.9l12.6-28.3l0.9-1.9"/>
						<path class="st2" d="M186.4,417.7c3.5,9.9,7.5,20,9.7,31"/>
					</g>
					<path class="st4" d="M199.2,364.2c12.8-9,18.9-24.4,14.4-38.7c-0.3-0.8-0.5-1.6-0.9-2.4c-5.2-13.2,36.3,7.7,47.5,41.5
						c11.2,33.7-81.3,23.3-81.3,17.7C179.1,379.2,189.6,371,199.2,364.2L199.2,364.2z"/>
					<path class="st4" d="M199.2,105.6c12.8-9,18.9-24.4,14.4-38.7c-0.3-0.8-0.5-1.6-0.9-2.4c-5.2-13.2,36.3,7.7,47.5,41.5
						c11.2,33.7-81.3,23.3-81.3,17.7C179.1,120.5,189.6,112.4,199.2,105.6L199.2,105.6z"/>
					<path class="st4" d="M134.9,172.3c0,0-36.3,4.8-24.2,43.4s-43.2-28.1-28.5-52.2S134.9,172.3,134.9,172.3L134.9,172.3z"/>
					<path class="st4" d="M80.9,450.7c11.7,0.5,23.5,1,35.2,1.4c7.9-7.7,18.8-9.2,18.8-9.2s-38-32.9-52.7-8.8
						c-2.7,4.4-3,10.3-1.9,16.6C80.5,450.7,80.7,450.7,80.9,450.7L80.9,450.7z"/>
					<path class="st5" d="M374.5,139.9c-9.2-5-23.1-10.1-37.4-6.4c0,0-12.4,7.1,18.3,32.2c0,0-3.4-15.6,18.8-18.3"/>
					<path class="st4" d="M362.2,274c0,0-36.3,4.8-24.2,43.4s-43.2-28.1-28.5-52.2S362.2,274.1,362.2,274L362.2,274z"/>
					<path class="st4" d="M374.5,27.1c-9.9,3.9-24.9,14.4-16.5,41.2c12.1,38.6-43.2-28.1-28.5-52.2c10.5-17.3,33.1-5.2,45,3"/>
				</g>
			</g>
			<path class="st6" d="M375.1,174.5l-5.2,2.9l2.4,3.8c2,0.1-6.6,7.3-6.6,7.3l-2.5-7.6l-3,1.5l3.9,7.2L358,193
				c-1,5.3-6.1,9.6-6.1,9.6L247.4,253c0,0-69,37.1-76.2,36.7c-7.2-0.3-10.2-4.1-11.6-5.5c-1.4-1.4-3.9-9.7,1.9-17.4
				c5.9-7.7,7.6-13.3,5.8-16.7s-8.9-9.3-23.1-4.3c-14.2,5-21.8,17.3-21.8,17.3s-9.7,12.4-14.6,15.2c-7.6,4.3-31.4-5.1-31.4-5.1
				s-20.6-8.9-43.8,1.2c-24.2,10.5-32.2,36-32.2,36L0.3,517.7h374.1L375.1,174.5 M97,302.3l-1.2-3.8c-11.5-4.1-28.9,6.2-28.9,6.2
				c-9.4-3.1-17.7-0.6-17.7-0.6c-14.1-0.2-14.5-4.3-14.5-4.3c-1.7-9,8.2-9.9,6.5-1.4c12.4,2.9,28.9-6.9,28.9-6.9
				c5.6,3.1,27.8,2.8,27.8,2.8C107.7,302.4,97.5,303.4,97,302.3L97,302.3z"/>
			<g>
				<path class="st0" d="M50.1,460.3c1,0,1.3,1.2,1.6,8.2c0.3,6,0.7,10.6,1.8,12.2c3.4,5,6.3,7.2,10.1,7.2
					c13.2,0,13.2-23.8,13.2-36.5v-29.5c0-33.1-0.3-52.8-2.1-56.4c-1.1-2.2-4-2.9-8.1-2.9c-3.1,0-3.7,0-3.7-2.4v-3.4
					c0-1.2,0.4-1.7,1.4-1.7h34.6c0.7,0,1.1,0.2,1.1,1.4v3.8c0,2.2-0.8,2.2-2.7,2.2c-8.8,0.2-9,0.2-9,28.1v10.1
					c0.1,6,0.6,34.6,0.6,41.1c0,25.2-1,31.2-6.6,41.8c-5.8,8.9-11.9,12.2-21.8,12.2c-4.3,0-7.3-0.5-14-3.1v-30.2
					c0-1.2,0.3-2.2,0.8-2.2L50.1,460.3L50.1,460.3z"/>
				<path class="st0" d="M144,352.2h5.4l3.4,13.7c4.3,16.8,26.8,104,30.7,114.3c1.3,3.4,3.1,5.3,5,5.3c2.7,0,3,0.7,3,2.4v3.1
					c0,1.7-0.6,2.2-1.6,2.2l-32.2,0.2c-0.3,0-1.1-1.2-1.1-2.4l0.1-3.6c0-1,0.6-1.9,1-1.9h3.4c4,0,6.1-2.2,6.1-7
					c0-2.4-0.4-5.3-1.3-8.9l-5-20.6h-36l-5.7,23.8c-0.4,1.9-0.7,3.8-0.7,5.5c0,4.6,2.1,7.2,5.7,7.2h3.1c0.9,0,1.3,0.7,1.3,2.4v3.4
					c0,1.2-0.4,1.9-0.9,1.9l-27,0.2c-0.7,0-1-0.7-1-2.4v-3.6c0-1.2,0.3-1.9,1.3-1.9c3.8,0,6,0,11.2-19.2L144,352.2L144,352.2z
					 M143.5,378.4l-16.1,61.9H159L143.5,378.4L143.5,378.4z"/>
				<path class="st0" d="M245.2,365.7h-27.5c-8.5,0-11.2,4.3-11.4,18.5c0,2.9-0.3,3.6-1.1,3.6c-3,0-3-0.5-3-5v-24.2
					c0-3.4,0.3-3.4,2.4-3.4h53.7c2,0,2.3,0,2.3,1.2v5.5c0,1-0.1,1.9-0.7,3.1l-14.1,36l-31.4,81.6h15.5c16.1,0,21.4-1,23.1-4.1
					c1.1-2.6,2.3-9.4,2.3-15.6c0.1-2.9,0.3-4.8,0.6-4.8h3.4c0.6,0,0.9,1.9,0.9,5.3v26.9c0,2.2-0.4,2.9-1.6,2.9l-59.1,0.2
					c-0.4,0-1-0.7-1-1.2v-6.7l7.5-18.2c12.2-30,23.3-58.6,34.2-87.4L245.2,365.7L245.2,365.7z"/>
				<path class="st0" d="M313.4,365.7h-27.5c-8.5,0-11.2,4.3-11.4,18.5c0,2.9-0.3,3.6-1.1,3.6c-3,0-3-0.5-3-5v-24.2
					c0-3.4,0.3-3.4,2.4-3.4h53.7c2,0,2.3,0,2.3,1.2v5.5c0,1-0.1,1.9-0.7,3.1L314,401l-31.5,81.6H298c16.1,0,21.4-1,23.1-4.1
					c1.1-2.6,2.3-9.4,2.3-15.6c0.1-2.9,0.3-4.8,0.6-4.8h3.4c0.6,0,0.9,1.9,0.9,5.3v26.9c0,2.2-0.4,2.9-1.6,2.9l-59.1,0.2
					c-0.4,0-1-0.7-1-1.2v-6.7l7.5-18.2c12.2-30,23.3-58.6,34.2-87.4L313.4,365.7L313.4,365.7z"/>
			</g>
		</g>
	</g>
</g>
</svg>
