<?xml version="1.0" encoding="utf-8"?>
<!-- Generator: Adobe Illustrator 26.1.0, SVG Export Plug-In . SVG Version: 6.00 Build 0)  -->
<svg version="1.1" id="Calque_1" xmlns="http://www.w3.org/2000/svg" xmlns:xlink="http://www.w3.org/1999/xlink" x="0px" y="0px"
	 viewBox="0 0 121.9 53.3" style="enable-background:new 0 0 121.9 53.3;" xml:space="preserve">
<style type="text/css">
	.st0{fill:#FDC604;stroke:#FDC604;stroke-miterlimit:10;}
</style>
<g id="a">
</g>
<g>
	<path class="st0" d="M18.8,11.7h2.3l10.1,22.8h-3.3l-3-6.7h-9.7l-2.9,6.7H9L18.8,11.7z M23.6,24.9l-3.7-8.2l-3.4,8.2H23.6z"/>
	<path class="st0" d="M51.3,11.8h3.1v22.7H51V16.9l-7,8.8h-0.6l-7-8.8v17.7h-3.3V11.8h3.1l7.5,9.4C43.7,21.2,51.3,11.8,51.3,11.8z"
		/>
	<path class="st0" d="M65.9,34.5h-7.7V11.8h6c1.9,0,3.3,0.3,4.4,0.8c1.1,0.5,1.8,1.2,2.4,2.1c0.5,0.9,0.8,1.9,0.8,3.1
		c0,2.3-1.1,3.8-3.4,4.8c1.7,0.3,3,1,4,2c1,1.1,1.4,2.3,1.4,3.8c0,1.2-0.3,2.2-0.9,3.1c-0.6,0.9-1.4,1.7-2.6,2.2
		C69.1,34.3,67.7,34.5,65.9,34.5L65.9,34.5z M64.3,14.7h-2.8v6.8h2.2c1.7,0,3-0.3,3.7-1s1.1-1.5,1.1-2.6
		C68.5,15.8,67.1,14.7,64.3,14.7L64.3,14.7z M64.5,24.4h-3.1v7.2h3.2c1.8,0,3-0.2,3.6-0.4s1.1-0.7,1.5-1.3s0.6-1.2,0.6-1.9
		c0-0.7-0.2-1.3-0.6-1.9c-0.4-0.6-1-1-1.7-1.3S66.1,24.4,64.5,24.4L64.5,24.4z"/>
	<path class="st0" d="M76.8,11.8h12.9v2.9h-9.6v6.9h9.3v2.9h-9.3v7H90v2.9H76.8L76.8,11.8L76.8,11.8L76.8,11.8z"/>
	<path class="st0" d="M94.2,34.5V11.8h5.7c2.3,0,4.1,0.6,5.5,1.7c1.3,1.1,2,2.7,2,4.6c0,1.3-0.3,2.5-1,3.4c-0.6,1-1.4,1.7-2.6,2.4
		l5.8,10.6h-3.9l-5.1-9.9h-3.1v9.9L94.2,34.5L94.2,34.5z M98.4,14.6h-1v7.1h1.2c1.7,0,2.8-0.2,3.4-0.4s1.1-0.7,1.4-1.3
		c0.3-0.6,0.5-1.2,0.5-1.9s-0.2-1.3-0.6-1.9s-0.9-1-1.6-1.2C101.2,14.7,100,14.6,98.4,14.6L98.4,14.6z"/>
</g>
<g>
	<path class="st0" d="M55,39.1v3.4h-1v-2.6c0-0.5,0-0.9-0.2-1.1c-0.2-0.2-0.4-0.3-0.8-0.3c-0.2,0-0.4,0-0.5,0.1
		c-0.2,0.1-0.3,0.3-0.5,0.5v3.4h-0.9v-4.7H52v0.6c0.5-0.5,1-0.7,1.4-0.7c0.6,0,1.1,0.3,1.4,0.9c0.5-0.6,1-0.9,1.6-0.9
		c0.5,0,0.9,0.2,1.1,0.5c0.3,0.3,0.4,0.9,0.4,1.6v2.8H57v-2.8c0-0.4-0.1-0.7-0.3-0.9s-0.4-0.3-0.7-0.3C55.7,38.5,55.4,38.7,55,39.1
		L55,39.1z"/>
	<path class="st0" d="M61.7,37.8c0.7,0,1.3,0.2,1.8,0.7c0.5,0.5,0.7,1.1,0.7,1.8s-0.3,1.2-0.8,1.7c-0.5,0.4-1.1,0.7-1.8,0.7
		c-0.7,0-1.3-0.2-1.8-0.7s-0.7-1-0.7-1.7s0.2-1.3,0.7-1.7C60.3,38,61,37.8,61.7,37.8z M61.6,38.6c-0.4,0-0.8,0.2-1.1,0.4
		c-0.3,0.3-0.4,0.6-0.4,1.1c0,0.4,0.2,0.8,0.4,1.1c0.3,0.3,0.7,0.4,1.1,0.4c0.5,0,0.9-0.2,1.1-0.4s0.4-0.6,0.4-1.1
		c0-0.4-0.2-0.8-0.5-1.1C62.5,38.7,62.1,38.6,61.6,38.6L61.6,38.6z"/>
	<path class="st0" d="M68.3,37.8h1l-2.1,4.8h-0.3l-2.2-4.8h1l1.3,2.9C67,40.7,68.3,37.8,68.3,37.8z"/>
	<path class="st0" d="M70.6,35.8c0.2,0,0.3,0,0.4,0.2s0.2,0.2,0.2,0.4s-0.1,0.3-0.2,0.4s-0.2,0.2-0.4,0.2s-0.3,0-0.4-0.2
		s-0.2-0.2-0.2-0.4s0.1-0.3,0.2-0.4S70.5,35.8,70.6,35.8z M70.2,37.8h0.9v4.7h-0.9V37.8z"/>
	<path class="st0" d="M73.5,37.8v0.6c0.4-0.5,0.9-0.7,1.4-0.7c0.3,0,0.6,0,0.8,0.2c0.3,0.2,0.4,0.4,0.6,0.6c0.1,0.3,0.2,0.7,0.2,1.3
		v2.7h-0.9v-2.7c0-0.5-0.1-0.8-0.2-1c-0.2-0.2-0.4-0.3-0.8-0.3c-0.4,0-0.8,0.2-1.1,0.6v3.4h-1v-4.7L73.5,37.8L73.5,37.8z"/>
	<path class="st0" d="M77.8,39.4c0-0.5,0.2-0.9,0.5-1.2s0.9-0.4,1.5-0.4h1.9v0.8h-1c0.2,0.2,0.3,0.4,0.4,0.5s0.1,0.3,0.1,0.5
		c0,0.3-0.1,0.5-0.2,0.8c-0.2,0.2-0.3,0.4-0.5,0.5s-0.6,0.2-1.1,0.3c-0.4,0-0.5,0.2-0.5,0.4c0,0.1,0.1,0.2,0.2,0.3
		c0.1,0,0.4,0.2,0.7,0.2c0.6,0.1,1,0.2,1.1,0.3c0.2,0,0.3,0.2,0.4,0.3c0.2,0.2,0.3,0.5,0.3,0.9c0,0.4-0.2,0.8-0.6,1.1
		c-0.4,0.3-0.9,0.4-1.6,0.4s-1.2-0.2-1.6-0.4c-0.4-0.3-0.6-0.6-0.6-1.1c0-0.6,0.4-1.1,1.2-1.2c-0.3-0.2-0.5-0.4-0.5-0.6
		s0.1-0.3,0.2-0.4c0.2-0.1,0.3-0.2,0.5-0.3C78.1,40.6,77.7,40.1,77.8,39.4z M79.3,42.7c-0.3,0-0.6,0-0.8,0.2
		c-0.2,0.1-0.3,0.3-0.3,0.5c0,0.5,0.4,0.8,1.3,0.8c0.4,0,0.8,0,1-0.2s0.3-0.3,0.3-0.5c0-0.2-0.2-0.4-0.4-0.5
		C80.1,42.8,79.7,42.7,79.3,42.7L79.3,42.7z M79.5,38.6c-0.3,0-0.5,0.1-0.6,0.3s-0.3,0.4-0.3,0.6c0,0.3,0.1,0.4,0.3,0.6
		c0.2,0.2,0.4,0.2,0.6,0.2s0.5-0.1,0.6-0.3s0.3-0.4,0.3-0.6c0-0.3-0.1-0.4-0.3-0.6C80,38.7,79.8,38.6,79.5,38.6z"/>
	<path class="st0" d="M89.6,39.1v3.4h-0.9v-2.6c0-0.5-0.1-0.9-0.2-1.1c-0.2-0.2-0.4-0.3-0.8-0.3c-0.2,0-0.4,0-0.5,0.1
		c-0.2,0.1-0.4,0.3-0.5,0.5v3.4h-0.9v-4.7h0.9v0.6c0.5-0.5,1-0.7,1.4-0.7c0.6,0,1.1,0.3,1.4,0.9c0.5-0.6,1-0.9,1.6-0.9
		c0.5,0,0.9,0.2,1.1,0.5c0.3,0.3,0.4,0.9,0.4,1.6v2.8h-0.9v-2.8c0-0.4-0.1-0.7-0.3-0.9c-0.2-0.2-0.4-0.3-0.7-0.3
		C90.3,38.5,89.9,38.7,89.6,39.1L89.6,39.1z"/>
	<path class="st0" d="M97,42.5v-0.6c-0.2,0.2-0.4,0.4-0.7,0.5c-0.3,0.1-0.5,0.2-0.8,0.2c-0.3,0-0.6,0-0.8-0.2
		c-0.3-0.2-0.4-0.4-0.6-0.6c-0.1-0.3-0.2-0.7-0.2-1.3v-2.7h0.9v2.7c0,0.5,0.1,0.9,0.2,1c0.2,0.2,0.4,0.3,0.8,0.3
		c0.4,0,0.8-0.2,1.1-0.6v-3.4h0.9v4.7L97,42.5L97,42.5z"/>
	<path class="st0" d="M99.1,42.2v-1c0.3,0.2,0.5,0.3,0.8,0.4s0.5,0.2,0.7,0.2s0.4,0,0.5-0.2c0.2-0.1,0.2-0.2,0.2-0.3
		c0-0.2-0.1-0.3-0.2-0.3c-0.1-0.1-0.3-0.2-0.6-0.4c-0.6-0.3-1-0.6-1.2-0.9s-0.3-0.5-0.3-0.8c0-0.4,0.2-0.6,0.4-0.9
		c0.3-0.2,0.6-0.3,1.1-0.3c0.5,0,0.9,0.1,1.4,0.4V39c-0.5-0.3-1-0.5-1.3-0.5c-0.2,0-0.3,0-0.4,0.1s-0.2,0.2-0.2,0.3
		c0,0.1,0.1,0.2,0.2,0.3s0.3,0.2,0.5,0.4l0.3,0.2c0.8,0.4,1.2,0.9,1.2,1.5c0,0.4-0.2,0.7-0.4,1c-0.3,0.3-0.7,0.4-1.2,0.4
		c-0.3,0-0.5,0-0.8-0.1C99.7,42.5,99.4,42.4,99.1,42.2z"/>
	<path class="st0" d="M104,35.8c0.2,0,0.3,0,0.4,0.2s0.2,0.2,0.2,0.4s-0.1,0.3-0.2,0.4s-0.2,0.2-0.4,0.2s-0.3,0-0.4-0.2
		s-0.2-0.2-0.2-0.4s0.1-0.3,0.2-0.4S103.9,35.8,104,35.8z M103.6,37.8h0.9v4.7h-0.9V37.8z"/>
	<path class="st0" d="M109.6,41.4v0.9c-0.5,0.2-0.9,0.3-1.4,0.3c-0.8,0-1.3-0.2-1.8-0.6s-0.6-1-0.6-1.8s0.2-1.3,0.6-1.8
		c0.4-0.4,1-0.7,1.7-0.7c0.3,0,0.5,0,0.6,0c0.2,0,0.4,0.1,0.7,0.3v1c-0.5-0.3-0.9-0.4-1.3-0.4s-0.8,0.2-1,0.4
		c-0.3,0.3-0.4,0.7-0.4,1.1c0,0.5,0.2,0.9,0.4,1.1s0.7,0.4,1.2,0.4C108.7,41.7,109.1,41.6,109.6,41.4z"/>
</g>
<path class="st0" d="M121.1,0.8v51.7H0.8V0.8H121.1 M121.9,0H0v53.3h121.9V0L121.9,0z"/>
</svg>
