<?xml version="1.0" encoding="UTF-8"?><svg xmlns="http://www.w3.org/2000/svg" viewBox="0 0 121.86 53.3"><defs><style>.d{fill:#010101;}</style></defs><g id="a"/><g id="b"><g id="c"><g><g><path class="d" d="M18.81,11.71h2.31l10.15,22.84h-3.33l-3.01-6.72H15.26l-2.9,6.72h-3.33L18.81,11.71Zm4.78,13.22l-3.71-8.22-3.38,8.22h7.09Z"/><path class="d" d="M51.31,11.82h3.06v22.73h-3.33V16.87l-6.98,8.76h-.59l-7.04-8.76v17.68h-3.28V11.82h3.06l7.52,9.35,7.58-9.35Z"/><path class="d" d="M65.93,34.55h-7.68V11.82h5.96c1.88,0,3.33,.27,4.41,.75,1.07,.48,1.83,1.18,2.42,2.1,.54,.86,.81,1.88,.81,3.06,0,2.26-1.13,3.81-3.44,4.78,1.67,.32,2.96,1.02,3.98,2.04,.97,1.07,1.45,2.31,1.45,3.76,0,1.18-.32,2.2-.91,3.12-.59,.91-1.45,1.67-2.63,2.2-1.18,.64-2.63,.91-4.35,.91Zm-1.67-19.83h-2.79v6.82h2.15c1.72,0,2.96-.32,3.71-.97s1.07-1.5,1.07-2.58c.05-2.15-1.34-3.28-4.14-3.28Zm.27,9.73h-3.06v7.2h3.22c1.77,0,3.01-.16,3.6-.43s1.13-.7,1.5-1.29,.59-1.24,.59-1.88c0-.7-.21-1.34-.59-1.88-.43-.59-.97-1.02-1.72-1.29s-1.93-.43-3.55-.43Z"/><path class="d" d="M76.78,11.82h12.9v2.9h-9.62v6.93h9.3v2.9h-9.3v7.04h9.94v2.9h-13.16V11.82h-.05Z"/><path class="d" d="M94.19,34.55V11.82h5.7c2.31,0,4.14,.59,5.48,1.72s2.04,2.69,2.04,4.62c0,1.34-.32,2.47-.97,3.44-.64,.97-1.45,1.67-2.63,2.36l5.75,10.58h-3.87l-5.05-9.89h-3.12v9.89h-3.33Zm4.24-19.93h-.97v7.15h1.24c1.67,0,2.79-.16,3.38-.43s1.07-.7,1.45-1.29c.32-.59,.54-1.24,.54-1.93s-.21-1.34-.59-1.93c-.38-.59-.91-.97-1.61-1.24-.7-.21-1.83-.32-3.44-.32Z"/></g><path class="d" d="M121.05,.81V52.49H.81V.81H121.05m.81-.81H0V53.3H121.86V0h0Z"/></g></g></g></svg>