<?xml version="1.0" encoding="UTF-8"?><svg xmlns="http://www.w3.org/2000/svg" viewBox="0 0 121.86 53.3"><defs><style>.d{fill:#e6f3ee;}</style></defs><g id="a"/><g id="b"><g id="c"><g><g><path class="d" d="M18.81,11.71h2.31l10.15,22.84h-3.33l-3.01-6.72H15.26l-2.9,6.72h-3.33L18.81,11.71Zm4.78,13.22l-3.71-8.22-3.38,8.22h7.09Z"/><path class="d" d="M51.31,11.82h3.06v22.73h-3.33V16.87l-6.98,8.76h-.59l-7.04-8.76v17.68h-3.28V11.82h3.06l7.52,9.35,7.58-9.35Z"/><path class="d" d="M65.93,34.55h-7.68V11.82h5.96c1.88,0,3.33,.27,4.41,.75,1.07,.48,1.83,1.18,2.42,2.1,.54,.86,.81,1.88,.81,3.06,0,2.26-1.13,3.81-3.44,4.78,1.67,.32,2.96,1.02,3.98,2.04,.97,1.07,1.45,2.31,1.45,3.76,0,1.18-.32,2.2-.91,3.12-.59,.91-1.45,1.67-2.63,2.2-1.18,.64-2.63,.91-4.35,.91Zm-1.67-19.83h-2.79v6.82h2.15c1.72,0,2.96-.32,3.71-.97s1.07-1.5,1.07-2.58c.05-2.15-1.34-3.28-4.14-3.28Zm.27,9.73h-3.06v7.2h3.22c1.77,0,3.01-.16,3.6-.43s1.13-.7,1.5-1.29,.59-1.24,.59-1.88c0-.7-.21-1.34-.59-1.88-.43-.59-.97-1.02-1.72-1.29s-1.93-.43-3.55-.43Z"/><path class="d" d="M76.78,11.82h12.9v2.9h-9.62v6.93h9.3v2.9h-9.3v7.04h9.94v2.9h-13.16V11.82h-.05Z"/><path class="d" d="M94.19,34.55V11.82h5.7c2.31,0,4.14,.59,5.48,1.72,1.34,1.13,2.04,2.69,2.04,4.62,0,1.34-.32,2.47-.97,3.44-.64,.97-1.45,1.67-2.63,2.36l5.75,10.58h-3.87l-5.05-9.89h-3.12v9.89h-3.33Zm4.24-19.93h-.97v7.15h1.24c1.67,0,2.79-.16,3.38-.43s1.07-.7,1.45-1.29c.32-.59,.54-1.24,.54-1.93s-.21-1.34-.59-1.93c-.38-.59-.91-.97-1.61-1.24-.7-.21-1.83-.32-3.44-.32Z"/></g><g><path class="d" d="M55.02,39.06v3.44h-.97v-2.63c0-.54-.05-.91-.21-1.07-.16-.21-.38-.32-.75-.32-.21,0-.38,.05-.54,.11-.16,.11-.32,.27-.54,.48v3.44h-.91v-4.73h.91v.64c.48-.48,.97-.7,1.4-.7,.59,0,1.07,.27,1.4,.86,.48-.59,1.02-.86,1.56-.86,.48,0,.86,.16,1.13,.48,.32,.32,.43,.86,.43,1.56v2.79h-.91v-2.79c0-.38-.11-.7-.27-.91-.16-.21-.38-.32-.7-.32-.32-.05-.64,.16-1.02,.54Z"/><path class="d" d="M61.68,37.77c.7,0,1.34,.21,1.77,.7,.48,.48,.7,1.07,.7,1.77s-.27,1.24-.75,1.72c-.48,.43-1.07,.7-1.83,.7-.7,0-1.29-.21-1.77-.7s-.7-1.02-.7-1.72,.21-1.29,.7-1.72c.54-.54,1.18-.75,1.88-.75Zm-.05,.86c-.43,0-.81,.16-1.13,.43-.27,.27-.43,.64-.43,1.13,0,.43,.16,.81,.43,1.13,.27,.27,.7,.43,1.13,.43,.48,0,.86-.16,1.13-.43s.43-.64,.43-1.13c0-.43-.16-.81-.48-1.13-.21-.32-.59-.43-1.07-.43Z"/><path class="d" d="M68.29,37.77h1.02l-2.1,4.84h-.32l-2.15-4.84h1.02l1.29,2.9,1.24-2.9Z"/><path class="d" d="M70.6,35.78c.16,0,.27,.05,.38,.16,.11,.11,.16,.21,.16,.38s-.05,.27-.16,.38-.21,.16-.38,.16-.27-.05-.38-.16c-.11-.11-.16-.21-.16-.38s.05-.27,.16-.38c.11-.11,.27-.16,.38-.16Zm-.43,1.99h.91v4.73h-.91v-4.73Z"/><path class="d" d="M73.5,37.77v.59c.43-.48,.91-.7,1.45-.7,.27,0,.59,.05,.81,.21,.27,.16,.43,.38,.59,.64,.11,.27,.21,.7,.21,1.29v2.69h-.91v-2.69c0-.48-.05-.81-.21-1.02-.16-.21-.38-.32-.75-.32-.43,0-.81,.21-1.13,.64v3.38h-1.02v-4.73h.97Z"/><path class="d" d="M77.75,39.38c0-.48,.16-.91,.54-1.18s.86-.43,1.5-.43h1.93v.75h-.97c.16,.21,.32,.38,.38,.54s.11,.32,.11,.54c0,.27-.05,.48-.21,.75-.16,.21-.32,.43-.54,.54s-.59,.21-1.07,.32c-.38,.05-.54,.16-.54,.38,0,.11,.05,.21,.21,.27,.11,.05,.38,.16,.7,.21,.59,.11,.97,.21,1.13,.32,.16,.05,.32,.16,.43,.32,.21,.21,.32,.54,.32,.86,0,.43-.21,.81-.59,1.07-.38,.27-.91,.38-1.61,.38s-1.24-.16-1.61-.43c-.43-.27-.59-.64-.59-1.07,0-.64,.38-1.07,1.18-1.24-.32-.21-.48-.43-.48-.59s.05-.27,.21-.43c.16-.11,.32-.21,.54-.27-.64-.38-.97-.91-.97-1.61Zm1.56,3.33c-.32,0-.59,.05-.75,.21-.21,.11-.32,.32-.32,.54,0,.48,.43,.75,1.34,.75,.43,0,.75-.05,.97-.16s.32-.27,.32-.54c0-.21-.16-.38-.43-.54-.32-.16-.7-.27-1.13-.27Zm.21-4.14c-.27,0-.48,.11-.64,.27s-.27,.38-.27,.59c0,.27,.11,.43,.27,.59,.16,.16,.38,.21,.64,.21s.48-.11,.64-.27,.27-.38,.27-.59c0-.27-.11-.43-.27-.59-.16-.11-.38-.21-.64-.21Z"/><path class="d" d="M89.57,39.06v3.44h-.91v-2.63c0-.54-.05-.91-.21-1.07-.16-.21-.38-.32-.75-.32-.21,0-.38,.05-.54,.11-.16,.11-.38,.27-.54,.48v3.44h-.91v-4.73h.91v.64c.48-.48,.97-.7,1.4-.7,.59,0,1.07,.27,1.4,.86,.48-.59,1.02-.86,1.56-.86,.48,0,.86,.16,1.13,.48,.32,.32,.43,.86,.43,1.56v2.79h-.91v-2.79c0-.38-.11-.7-.27-.91-.16-.21-.38-.32-.7-.32-.38-.05-.75,.16-1.07,.54Z"/><path class="d" d="M96.98,42.5v-.59c-.21,.21-.43,.38-.7,.48-.27,.11-.48,.16-.75,.16-.32,0-.59-.05-.81-.21-.27-.16-.43-.38-.59-.59-.11-.27-.21-.7-.21-1.29v-2.69h.91v2.69c0,.48,.05,.86,.21,1.02,.16,.21,.38,.32,.75,.32,.43,0,.81-.21,1.13-.64v-3.38h.91v4.73h-.86Z"/><path class="d" d="M99.13,42.18v-1.02c.27,.16,.54,.32,.81,.43,.27,.11,.48,.16,.7,.16s.38-.05,.48-.16c.16-.11,.21-.21,.21-.32,0-.16-.05-.27-.16-.32-.11-.11-.27-.21-.59-.38-.59-.32-1.02-.64-1.18-.86s-.27-.48-.27-.81c0-.38,.16-.64,.43-.91,.27-.21,.64-.32,1.07-.32,.48,0,.91,.11,1.45,.38v.91c-.54-.32-1.02-.48-1.34-.48-.16,0-.32,.05-.43,.11s-.16,.16-.16,.32c0,.11,.05,.21,.16,.32s.27,.21,.54,.38l.32,.21c.81,.43,1.18,.91,1.18,1.5,0,.38-.16,.7-.43,.97-.32,.27-.7,.38-1.18,.38-.27,0-.54-.05-.75-.11-.27-.11-.54-.21-.86-.38Z"/><path class="d" d="M104.02,35.78c.16,0,.27,.05,.38,.16,.11,.11,.16,.21,.16,.38s-.05,.27-.16,.38-.21,.16-.38,.16-.27-.05-.38-.16c-.11-.11-.16-.21-.16-.38s.05-.27,.16-.38c.11-.11,.27-.16,.38-.16Zm-.43,1.99h.91v4.73h-.91v-4.73Z"/><path class="d" d="M109.56,41.43v.91c-.48,.16-.91,.27-1.4,.27-.75,0-1.34-.21-1.77-.64-.43-.43-.64-1.02-.64-1.77s.21-1.34,.64-1.83c.43-.43,.97-.7,1.72-.7,.27,0,.48,0,.64,.05,.21,.05,.43,.11,.7,.27v1.02c-.48-.32-.91-.43-1.34-.43s-.75,.16-1.02,.43c-.27,.32-.43,.7-.43,1.13,0,.48,.16,.86,.43,1.13s.7,.43,1.18,.43c.43,0,.81-.11,1.29-.27Z"/></g><path class="d" d="M121.05,.81V52.49H.81V.81H121.05m.81-.81H0V53.3H121.86V0h0Z"/></g></g></g></svg>