<?xml version="1.0" encoding="UTF-8"?><svg xmlns="http://www.w3.org/2000/svg" xmlns:xlink="http://www.w3.org/1999/xlink" viewBox="0 0 375 525"><defs><style>.e{fill:url(#d);}.f{fill:none;}.g{fill:#eb7329;}.h{fill:#f6bd40;}.i{fill:#fff;}.j{fill:#ffe4bd;}.k{fill:#ee732d;}.l{fill:#b12a31;}.m{fill:#d94527;}.n{fill:#521311;}</style><pattern id="d" x="0" y="0" width="580" height="580" patternTransform="translate(-3.51 -2408.91)" patternUnits="userSpaceOnUse" viewBox="0 0 580 580"><g><rect class="f" width="580" height="580"/><g><path class="n" d="M151.61,555.68c8.91-24.19,33.5-42.68,57.92-43.86,4.28-.21,6.31,.62,6.24,5.58-.26,18.9-.12,37.81-.13,56.72,0,1.98,.19,4-.97,5.79h61.88c-2.36-1.69-5.29-1.74-7.92-2.66-27.65-9.58-43.33-29.06-47.78-57.75-1.16-7.46-.46-8.12,6.99-8.13,18.29-.03,36.59,.1,54.88-.1,4.78-.05,6.36,1.54,6.26,6.33-.43,20.77,.4,41.55-.46,62.32h4.99c-1.63-8.32,.56-16.23,3.57-23.69,9.71-24.1,27.37-38.96,53.09-43.86,1.94-.37,3.97-.3,5.94-.53,3.86-.45,5.34,1.17,5.32,5.07-.11,19.4-.05,38.81-.03,58.21,0,1.69-.13,3.31-1.02,4.79h57.88c.27-2.72-2.16-2.01-3.4-2.43-27.4-9.32-43.38-28.28-48.15-56.75-.27-1.63-.28-3.3-.46-4.95-.31-2.92,.98-4.4,3.92-4.4,20.09,0,40.18-.01,60.27,0,2.51,0,4.08,.96,4.06,3.82-.12,21.57-.2,43.14-.29,64.71h4.99c-1.9-3.23-.46-6.53,0-9.72,4.75-33.43,32.12-55.83,61.01-58.25,6.38-.53,6.8,.03,6.81,6.42,0,18.25,.02,36.5,0,54.75,0,2.3,.33,4.67-.94,6.81h60.88c-1.24-1.66-3.24-1.47-4.93-1.94-27.01-7.49-47.59-31.82-49.92-59.11-.6-7.05-.23-7.5,6.64-7.5,18.26-.02,36.53-.03,54.79,.03,2.13,0,4.27,.45,6.4,.68v-60.86c-1.63,1.42-1.54,3.51-2.05,5.36-7.69,27.57-32.05,47.66-60.25,49.91-4.31,.34-5.92-.69-5.87-5.27,.21-19.45,.11-38.9,.07-58.35,0-2.71,.08-4.99,3.77-4.97,21.44,.16,42.89,.25,64.33,.36v-3.99c-5.89,1.26-11.54-.24-17.15-1.65-27.86-7.03-49.51-33.1-50.83-60.97-.15-3.19-.02-5.54,4.19-5.51,21.26,.17,42.53,.2,63.79,.28v-61.86c-1.62,4.81-2.86,9.79-4.91,14.42-11.09,25.05-30.45,38.95-57.6,42.2-4,.48-5.69-.59-5.65-4.98,.18-19.58,.14-39.16,.02-58.74-.02-3.5,.81-5.06,4.71-5.03,19.75,.16,39.5,.07,59.25,.07,1.49,0,3.02-.16,4.18,1.09v-4.99c-3.74,2.05-7.57,.43-11.21-.09-29.72-4.24-54.92-31.77-56.72-61.65-.35-5.81-.05-6.17,5.91-6.18,18.93-.02,37.86-.01,56.79,0,1.81,0,3.69-.27,5.22,1.07v-60.86c-1.83,1.11-1.57,3.14-2.04,4.81-7.59,27.24-31.62,47.38-59.68,49.95-5.86,.54-6.38,.1-6.38-5.64,0-19.11,.12-38.22-.06-57.33-.04-4.24,1.04-5.85,5.56-5.8,19.28,.22,38.56,.1,57.84,.1,1.65,0,3.34-.24,4.76,.93v-4.99c-1.4,1.2-3.05,1.04-4.73,.96-32.28-1.49-61.1-30.03-63.26-62.35-.32-4.84,1.01-6.44,5.89-6.39,19.09,.2,38.18,.09,57.27,.06,1.68,0,3.32,.02,4.83,.87V14.22c-1.55,1.5-1.39,3.62-1.89,5.47-7.4,27.26-31.19,47.67-58.79,50.36-7.22,.7-7.39,.55-7.4-6.48,0-18.62,0-37.24-.01-55.86,0-2.16-.08-4.32,.88-6.35l-65.47,.04c2.85,1.88,6.29,1.65,9.41,2.56,28.23,8.16,47.75,31.91,50.21,61.06,.33,3.91-.82,5.41-4.83,5.39-19.6-.12-39.2-.11-58.8,.01-3.66,.02-5.01-1.28-4.99-4.93,.1-19.76,.03-39.52,.09-59.28,0-1.61,.59-3.23,.91-4.84l-5.57-.02c1.66,3.55,.81,7.24,.28,10.78-4.51,30.14-28.79,53.85-59.02,57.77-1.81,.23-3.64,.23-5.46,.33-1.96,.1-3.23-.62-3.22-2.79,.01-21.25,.02-42.5,.08-63.75,0-.77,.55-1.54,.85-2.31-21.59,.01-43.18,.02-64.76,.03,1.15,1.55,2.99,1.25,4.53,1.58,29.44,6.32,51.49,31.06,54.18,60.88,.53,5.93,.05,6.47-6.11,6.47-18.78,.02-37.56-.11-56.34,.08-4.45,.05-6.17-1.13-6.11-5.88,.24-18.94,.11-37.88,.09-56.82,0-2.18,.12-4.3,.93-6.35l-5.47-.03c1.72,5.67,.34,11.24-.97,16.66-6.65,27.48-29.3,47.83-57.39,51.82-1.8,.26-3.64,.23-5.46,.41-2.84,.28-3.87-1.14-3.87-3.8,.03-20.42,0-40.84,.07-61.26,0-1.27,.61-2.54,.94-3.81-21.84,0-43.69,.01-65.53,.02,1.53,1.59,3.67,1.27,5.53,1.66,29.35,6.15,51.65,31.49,54.14,61.43,.35,4.2-.72,6.02-5.32,5.98-19.27-.19-38.53-.17-57.8-.01-4.09,.03-5.54-1.31-5.51-5.44,.15-19.43,.09-38.85,.05-58.28,0-1.87,.33-3.61,.95-5.34h-5.5c1.76,3.72,.67,7.56,.12,11.24-4.44,29.87-29.31,53.78-59.44,57.34-8.17,.97-8.33,.82-8.33-7.49,0-18.27,.01-36.53-.01-54.8,0-2.17-.04-4.31,1.03-6.29H9.65c7.88,2.37,16.07,3.72,23.41,7.8,21.92,12.2,34.13,30.73,36.82,55.63,.39,3.6-.35,5.62-4.61,5.6-19.9-.13-39.81-.04-59.71-.1-1.45,0-2.9-.55-4.35-.84l.04,66.97c2.13-7.29,3.26-14.83,6.73-21.78,11.63-23.31,30.42-36.16,56.11-39.35,4.29-.53,5.98,1.05,5.95,5.49-.15,19.27-.13,38.54-.01,57.8,.02,3.73-1.09,5.45-5.09,5.42-19.77-.11-39.54-.03-59.32-.08-1.46,0-2.92-.52-4.37-.8v4.8c3.9-2.01,7.88-.59,11.73,0,30.25,4.57,54.86,31.6,56.92,62.17,.26,3.87-.49,5.83-4.98,5.79-19.62-.18-39.24-.09-58.86-.07-1.7,0-3.3-.2-4.82-.97v66.47c1.46-2.51,1.44-5.41,2.1-8.12,6.87-28.38,30.77-49.35,59.79-52.37,5.94-.62,6.84,.1,6.85,5.86,.03,18.94-.12,37.88,.09,56.82,.05,4.65-1.66,6.09-6.1,6.06-19.11-.14-38.23-.04-57.34-.1-1.79,0-3.58-.53-5.38-.81l-.02,4.62c5.17-1.89,10.25-.34,15.21,.74,28.88,6.32,50.59,31.06,53.37,60.49,.58,6.13,.08,6.75-5.85,6.75-18.95,.02-37.9,.03-56.85-.03-1.96,0-3.91-.53-5.87-.81l.02,66.55c2.55-10.48,5.22-20.9,11.44-30.02,12.14-17.81,28.91-27.97,50.24-30.56,6.25-.76,7.02,.07,7.03,6.21,.03,18.6-.14,37.21,.14,55.81,.08,4.94-1.99,6.54-6.35,6.53-12.96-.02-25.92-.05-38.88-.06-5.97,0-11.94-.06-17.91,.09-2.08,.05-3.94-.32-5.73-1.28l-.03,5.01c6.75-1.86,13.21,.06,19.56,1.85,26.84,7.57,46.69,32.01,49.09,59.87,.37,4.35-.37,6.28-5.42,6.21-19.44-.27-38.89-.06-58.34-.1-1.63,0-3.26-.45-4.89-.69l.04,66.72c1.87-5.65,2.65-11.58,4.74-17.21,8.82-23.7,33.36-42.17,57.76-43.58,4.88-.28,6.35,1.21,6.3,6.02-.21,18.92-.07,37.85-.07,56.78,0,1.83,.07,3.67-1.02,5.29h57.88c-.05-2.69-2.48-2.13-3.89-2.62-26.78-9.29-42.43-28-47.49-55.74-.36-1.95-.34-3.97-.53-5.95-.29-3.02,1.26-4.26,4.1-4.25,20.1,.01,40.21,.01,60.31,.05,2.18,0,4.07,.64,4.05,3.31-.2,21.57,.73,43.16-.49,64.72,0,.16-.06,.33-.09,.49h4.99c-1.2-8.46,.94-16.42,3.81-24.23Zm1.68-48.96c-4.69,.16-6.45-1.17-6.38-6.11,.25-18.95,.23-37.91,.03-56.86-.05-4.68,1.43-6.03,6.08-5.71,30.49,2.15,57.03,26.69,61.74,57.36q1.73,11.27-9.58,11.26c-7.98,0-15.97,0-23.95,0v-.03c-9.31,0-18.64-.22-27.94,.09Zm145.17-.01c-4.25,.11-5.91-1.08-5.86-5.59,.19-19.28,.15-38.57,.01-57.85-.03-4.13,1.29-5.48,5.55-5.24,32.66,1.84,61.61,30.82,63.09,63.26,.17,3.81-.87,5.47-4.92,5.39-9.81-.18-19.62-.06-29.43-.06-9.48,.01-18.96-.16-28.43,.09ZM137.79,75.17c3.93-.08,5.77,1.03,5.74,5.31-.13,19.44-.12,38.89,0,58.33,.03,4.25-1.64,5.4-5.74,5.11-32.35-2.32-59.73-29.06-62.72-61.45-.62-6.75-.24-7.2,6.36-7.21,9.31-.02,18.62,0,27.93,0,9.48-.01,18.95,.12,28.43-.07ZM438.22,443.75c-.14-4.66,1.37-6.04,6.03-5.76,30.23,1.86,57.74,27.34,61.87,57.66,1.68,12.3,1.79,10.95-9.34,10.97-17.6,.04-35.2-.1-52.8,.09-4.32,.05-5.87-1.3-5.75-5.7,.27-9.62,.08-19.25,.08-28.88,0-9.46,.2-18.93-.09-28.38ZM147.02,298.6c.02-5.99,.43-6.36,6.14-5.99,30.01,1.97,57.21,27.11,61.54,56.88q1.72,11.79-9.92,11.8c-17.28,0-34.56-.13-51.83,.09-4.58,.06-6.17-1.36-6.03-5.98,.29-9.46,.09-18.93,.09-28.4,0-9.47-.02-18.93,.01-28.4Zm150.79,62.75c-3.94,.08-5.22-1.43-5.2-5.27,.12-19.43,.17-38.86-.03-58.29-.05-4.71,1.88-5.53,6.02-5.22,30.64,2.31,57.17,26.78,61.82,57.2q1.76,11.53-9.78,11.53c-3.99,0-7.97,0-11.96,0-3.99,0-7.97,0-11.96,0-9.64,0-19.27-.13-28.91,.06Zm209.28,67.96c.07,4.08-1.67,5.75-5.62,5.74-19.45-.04-38.91-.05-58.36-.01-3.71,0-5.06-1.8-4.76-5.31,2.93-34.36,29.72-60.33,61.97-63.35,6.05-.57,6.72,.19,6.72,6.08,0,9.31,0,18.62,0,27.93,0,9.64-.11,19.28,.05,28.92Zm-68.86-131.23c-.12-4.35,1.28-5.85,5.73-5.6,32.55,1.82,61.5,31.17,62.96,63.9,.15,3.37-.84,4.95-4.37,4.94-19.93-.06-39.86-.08-59.79,0-3.61,.01-4.5-1.74-4.46-4.96,.1-9.96,.04-19.92,.04-29.89h-.02c0-9.46,.17-18.93-.08-28.39ZM138.3,220.62c3.92-.07,5.25,1.43,5.22,5.28-.12,19.45-.14,38.9,0,58.34,.03,4.28-1.68,5.48-5.71,5.19-32.66-2.36-60.26-29.78-62.82-62.54-.44-5.61,.07-6.19,5.94-6.21,9.31-.04,18.62-.01,27.93-.01,9.81,.01,19.62,.13,29.43-.04Zm223.13,208.51c.07,4.08-1.06,6.04-5.62,5.99-18.58-.19-37.17-.03-55.76-.1-7.07-.03-7.4-.51-6.8-7.3,2.86-32.21,29.02-58.37,61.36-61.33,5.94-.54,6.76,.16,6.77,5.97,.02,9.46,0,18.92,0,28.39,0,9.46-.11,18.93,.05,28.39Zm-63.53-213.24c-3.84,.07-5.31-1.22-5.28-5.16,.13-19.43,.13-38.86-.03-58.29-.04-4.5,1.65-5.75,5.96-5.36,33.07,3.03,59.54,29.25,62.59,62.14,.56,6.02,.05,6.6-5.92,6.61-9.47,.02-18.94,0-28.41,0-9.63-.01-19.27-.13-28.9,.05Zm-150.92-63.88c-.07-4.01,1.54-5.2,5.37-4.98,32.74,1.85,61.47,30.77,63.27,63.63,.22,3.96-1.11,5.29-5.03,5.26-19.44-.14-38.87-.19-58.31-.02-4.3,.04-5.4-1.67-5.33-5.61,.19-9.63,.06-19.26,.06-28.89,.01-9.8,.13-19.6-.04-29.39Zm296.76,137.58c-4.51,.08-5.76-1.82-5.27-6.1,3.91-33.69,27.02-57.57,60.63-62.49,6.94-1.02,7.94-.16,7.93,6.67-.01,18.6-.12,37.21,.07,55.81,.05,4.58-1.53,6.22-6.05,6.12-9.47-.21-18.94-.06-28.41-.06-9.64,0-19.28-.11-28.91,.06Zm-228.06,139.82c.07,4.02-1.42,5.7-5.53,5.67-18.43-.11-36.87,.06-55.31-.11-8-.08-8.07-.43-7.2-8.31,3.48-31.53,29.09-57.02,60.47-60.2,6.91-.7,7.52-.17,7.52,6.63,0,9.14,0,18.27,0,27.41,0,9.64-.11,19.27,.04,28.9Zm145.77-145.32c.08,4.09-1.41,5.54-5.53,5.51-19.1-.15-38.21-.04-57.31-.08-5.49-.01-6.33-1.08-5.64-6.61,4.17-33.54,27.32-57.2,60.58-61.94,6.89-.98,7.82-.19,7.83,6.82,.02,9.3,0,18.6,0,27.9,0,9.47-.12,18.94,.06,28.4Zm-223.59,82.03c3.99-.09,5.72,1.12,5.69,5.33-.14,19.43-.11,38.87-.05,58.3,.01,3.73-1.16,5.36-5.29,5.06-32.75-2.43-59.61-28.34-63.06-61.03-.76-7.24-.4-7.63,6.88-7.61,9.14,.02,18.28,0,27.42,0v.02c9.47,0,18.95,.14,28.41-.07ZM444.15,215.89c-4.2,.1-5.96-1.09-5.92-5.59,.18-19.43,.16-38.86,.02-58.29-.03-4,1.44-5.25,5.32-4.99,33.5,2.26,61.72,30.81,63.33,64.05,.17,3.47-.95,4.84-4.44,4.8-9.97-.11-19.93-.04-29.9-.04-9.47-.01-18.94-.17-28.4,.06Zm-228.46,67.99c.08,4.01-1.22,5.72-5.4,5.7-19.29-.11-38.59-.11-57.88,.01-4.28,.03-5.56-1.85-5.21-5.81,2.93-33.16,28.28-59.17,61.37-62.89,6.2-.7,7.04,.02,7.05,6.13,.02,9.48,0,18.95,0,28.43,0,9.48-.13,18.96,.06,28.43ZM74.74,152.06c-.08-3.92,1.3-5.19,5.21-5.16,19.45,.16,38.9,.15,58.35,0,3.94-.03,5.21,1.16,4.95,5.2-2.12,33.13-29.06,60.75-62.17,63.54-5.8,.49-6.27,.08-6.28-5.75-.02-9.47,0-18.95,0-28.42,0-9.81,.14-19.61-.06-29.41Zm368.62-8.02c-3.96,.06-5.3-1.44-4.93-5.36,3.26-34.12,28.62-59.86,62.43-63.33,4.11-.42,6.23,.68,6.2,5.28-.12,19.42-.09,38.84,.01,58.26,.02,3.94-1.68,5.21-5.44,5.15-9.79-.15-19.59-.05-29.39-.05-9.63,0-19.26-.1-28.89,.05Zm-81.93-5.47c.08,4.12-1.5,5.51-5.58,5.48-19.27-.14-38.54-.12-57.8,0-4.17,.03-5.56-1.42-5.1-5.66,3.42-31.65,23.06-54.79,54.29-61.55,16.4-3.55,14.02-3.36,14.11,10.42,.05,7.47,0,14.94,0,22.42,0,9.63-.12,19.26,.06,28.89Zm-141.04,13.31c-.06-3.61,1.13-5,4.89-4.97,19.61,.14,39.22,.15,58.84,0,4.15-.03,5.02,1.59,4.75,5.41-2.33,33.11-28.78,60.28-61.82,63.32-6.11,.56-6.57,.16-6.59-5.94-.02-9.47,0-18.94,0-28.41,0-9.8,.1-19.61-.06-29.41Zm-4.71-13.04c.07,3.9-1.45,5.22-5.29,5.2-19.42-.12-38.84-.12-58.27,0-4.4,.03-5.39-1.95-4.92-5.87,4.1-34.5,27.51-58.28,61.86-62.73,5.43-.7,6.53,.21,6.55,5.64,.03,9.46,0,18.92,0,28.38,0,9.79-.11,19.58,.06,29.37Zm-76.9,153.6c3.43-.05,4.65,1.02,4.49,4.64-1.47,33.31-30.62,62.72-63.68,64.18-3.38,.15-4.85-.87-4.84-4.43,.09-19.93,.1-39.87,0-59.8-.02-3.49,1.27-4.65,4.7-4.59,9.8,.16,19.61,.06,29.41,.06,9.97,0,19.94,.09,29.91-.04Zm227.4-140.51c-.07-3.55,.86-5.06,4.72-5.03,19.6,.15,39.21,.16,58.81,0,4.16-.03,5,1.63,4.81,5.4-1.67,32.67-30.08,61.39-62.77,63.45-3.93,.25-5.75-.55-5.6-5.03,.31-9.79,.1-19.59,.1-29.39,0-9.8,.13-19.6-.06-29.4Zm-81.68,140.5c3.57-.06,4.57,1.32,4.42,4.75-1.47,33.13-29.81,61.81-63.26,64.05-3.98,.27-5.3-1.05-5.27-4.98,.13-19.6,.15-39.2,0-58.8-.03-4.04,1.5-5.11,5.3-5.03,9.8,.21,19.61,.07,29.41,.07,9.8,0,19.61,.1,29.41-.05Zm150.08-153.46c.08,4.04-1.53,5.14-5.36,4.95-32.12-1.61-61.38-30.84-63.01-62.9-.22-4.28,.98-5.92,5.49-5.88,19.12,.19,38.25,.16,57.38,.02,4.06-.03,5.63,1.26,5.53,5.45-.23,9.8-.07,19.62-.07,29.43h-.03c0,9.64-.13,19.29,.06,28.93Zm-68.4,158.43c-.07-3.56,.88-5.02,4.73-4.99,19.6,.16,39.2,.17,58.79,0,4.14-.04,5.02,1.54,4.82,5.33-1.7,32.84-30.28,61.53-63.24,63.51-4.05,.24-5.2-1.19-5.12-5.07,.21-9.79,.07-19.59,.07-29.39,0-9.8,.12-19.59-.06-29.39Zm-77.22-159.06c.12,4.33-1.12,5.91-5.65,5.59-32.1-2.26-59.82-29.42-62.59-61.55-.58-6.69-.17-7.15,6.44-7.15,18.6,0,37.21,.12,55.81-.07,4.48-.05,6.17,1.23,6.02,5.91-.31,9.45-.09,18.93-.09,28.39,0,9.63-.19,19.27,.07,28.89ZM74.72,443.29c-.1-3.8,1.07-5.4,4.92-5.39,19.92,.06,39.85,.04,59.77,0,3.07,0,3.96,1.44,3.91,4.33-.55,32.68-30.87,63.22-63.86,64.37-3.49,.12-4.74-1.09-4.7-4.55,.13-9.96,.05-19.92,.05-29.88,0-9.63,.17-19.26-.09-28.88Zm145.66-.14c-.07-3.73,.94-5.37,5.03-5.34,19.59,.15,39.19,.11,58.78,0,3.67-.02,4.92,1.2,4.71,4.99-1.85,33.34-29.59,61.42-62.9,63.68-4.11,.28-5.72-.79-5.62-5.08,.22-9.79,.07-19.59,.07-29.38,0-9.63,.12-19.26-.06-28.88Zm214.19-158.6c.07,4.01-1.41,5.23-5.35,4.84-33.26-3.31-58.11-27.17-62.67-60.32-1.1-7.98-.72-8.4,7.49-8.4,18.27,0,36.54,.1,54.81-.09,4.32-.04,5.88,1.27,5.75,5.69-.27,9.62-.08,19.26-.08,28.89-.01,9.8-.13,19.6,.05,29.39Zm-68.4,158.31c-.07-3.57,.92-5.06,4.74-5.03,19.62,.13,39.25,.12,58.88,0,3.71-.02,4.92,1.27,4.79,4.97-1.15,32.75-30.64,62.32-63.57,63.77-3.83,.17-4.91-1.21-4.84-4.85,.19-9.81,.06-19.62,.06-29.43,0-9.81,.13-19.62-.06-29.43Zm-77.2-158.31c.08,4.14-1.72,5.15-5.46,4.84-32.84-2.77-59.43-28.74-62.75-61.37-.7-6.9-.32-7.35,6.67-7.35,18.6-.02,37.21,.11,55.81-.1,4.39-.05,5.82,1.36,5.71,5.71-.26,9.62-.08,19.26-.08,28.89h.04c0,9.8-.13,19.6,.06,29.39Zm-.02,145.2c.08,4.01-1.38,5.15-5.28,4.95-32.3-1.61-61.16-30.27-63.11-62.69-.26-4.27,.89-5.98,5.41-5.94,19.12,.18,38.25,.2,57.37,0,4.45-.04,5.77,1.54,5.66,5.82-.25,9.47-.08,18.95-.08,28.42h-.03c0,9.81-.14,19.62,.07,29.42Zm145.62-.32c.09,4.15-1.35,5.5-5.54,5.28-32.34-1.7-61.6-31.2-62.82-63.43-.14-3.56,.85-5.19,4.66-5.17,19.61,.1,39.22,.11,58.82-.01,3.75-.02,4.93,1.44,4.87,5.02-.15,9.8-.05,19.6-.05,29.4,0,9.63-.15,19.27,.06,28.9Z"/><path class="m" d="M126.84,579.91c-.05-2.69-2.48-2.13-3.89-2.62-26.78-9.29-42.43-28-47.49-55.74-.36-1.95-.34-3.97-.53-5.95-.29-3.02,1.26-4.26,4.1-4.25,20.1,.01,40.21,.01,60.31,.05,2.18,0,4.07,.64,4.05,3.31-.2,21.57,.73,43.16-.49,64.72,0,.16-.06,.33-.09,.49h-11.98c-.67-.64-1.33-1.6-2,0h-2Z"/><path class="m" d="M566.96,579.91c-1.24-1.66-3.24-1.47-4.93-1.94-27.01-7.49-47.59-31.82-49.92-59.11-.6-7.05-.23-7.5,6.64-7.5,18.26-.02,36.53-.03,54.79,.03,2.13,0,4.27,.45,6.4,.68,0,21.62-.05,43.23,.07,64.85,.01,2.5-.55,3.24-3.06,3.05-3.31-.25-6.65-.06-9.98-.06Z"/><path class="h" d="M579.93,14.22c-1.55,1.5-1.39,3.62-1.89,5.47-7.4,27.26-31.19,47.67-58.79,50.36-7.22,.7-7.39,.55-7.4-6.48,0-18.62,0-37.24-.01-55.86,0-2.16-.08-4.32,.88-6.35,22.4-.04,44.81-.07,67.21-.11V14.22Z"/><path class="m" d="M418.26,579.91c.27-2.72-2.16-2.01-3.4-2.43-27.4-9.32-43.38-28.28-48.15-56.75-.27-1.63-.28-3.3-.46-4.95-.31-2.92,.98-4.4,3.92-4.4,20.09,0,40.18-.01,60.27,0,2.51,0,4.08,.96,4.06,3.82-.12,21.57-.2,43.14-.29,64.71h-12.97l-.91-.62-.09,.62h-2Z"/><path class="m" d="M276.54,579.91c-2.36-1.69-5.29-1.74-7.92-2.66-27.65-9.58-43.33-29.06-47.78-57.75-1.16-7.46-.46-8.12,6.99-8.13,18.29-.03,36.59,.1,54.88-.1,4.78-.05,6.36,1.54,6.26,6.33-.43,20.77,.4,41.55-.46,62.32h-11.98Z"/><path class="h" d="M579.93,160.88c-1.83,1.11-1.57,3.14-2.04,4.81-7.59,27.24-31.62,47.38-59.68,49.95-5.86,.54-6.38,.1-6.38-5.64,0-19.11,.12-38.22-.06-57.33-.04-4.24,1.04-5.85,5.56-5.8,19.28,.22,38.56,.1,57.84,.1,1.65,0,3.34-.24,4.76,.93v12.97Z"/><path class="m" d="M579.93,142.92c-1.4,1.2-3.05,1.04-4.73,.96-32.28-1.49-61.1-30.03-63.26-62.35-.32-4.84,1.01-6.44,5.89-6.39,19.09,.2,38.18,.09,57.27,.06,1.68,0,3.32,.02,4.83,.87v66.85Z"/><path class="l" d="M439.22,579.91c-1.9-3.23-.46-6.53,0-9.72,4.75-33.43,32.12-55.83,61.01-58.25,6.38-.53,6.8,.03,6.81,6.42,0,18.25,.02,36.5,0,54.75,0,2.3,.33,4.67-.94,6.81h-66.87Z"/><path class="h" d="M579.93,304.55c-1.62,4.81-2.86,9.79-4.91,14.42-11.09,25.05-30.45,38.95-57.6,42.2-4,.48-5.69-.59-5.65-4.98,.18-19.58,.14-39.16,.02-58.74-.02-3.5,.81-5.06,4.71-5.03,19.75,.16,39.5,.07,59.25,.07,1.49,0,3.02-.16,4.18,1.09v10.97Z"/><path class="l" d="M293.51,579.91c-1.63-8.32,.56-16.23,3.57-23.69,9.71-24.1,27.37-38.96,53.09-43.86,1.94-.37,3.97-.3,5.94-.53,3.86-.45,5.34,1.17,5.32,5.07-.11,19.4-.05,38.81-.03,58.21,0,1.69-.13,3.31-1.02,4.79h-66.87Z"/><path class="l" d="M1.25,572.61c1.87-5.65,2.65-11.58,4.74-17.21,8.82-23.7,33.36-42.17,57.76-43.58,4.88-.28,6.35,1.21,6.3,6.02-.21,18.92-.07,37.85-.07,56.78,0,1.83,.07,3.67-1.02,5.29H1.09l.16-7.31Z"/><path class="l" d="M147.8,579.91c-1.2-8.46,.94-16.42,3.81-24.23,8.91-24.19,33.5-42.68,57.92-43.86,4.28-.21,6.31,.62,6.24,5.58-.26,18.9-.12,37.81-.13,56.72,0,1.98,.19,4-.97,5.79h-66.87Z"/><path class="m" d="M579.93,288.59c-3.74,2.05-7.57,.43-11.21-.09-29.72-4.24-54.92-31.77-56.72-61.65-.35-5.81-.05-6.17,5.91-6.18,18.93-.02,37.86-.01,56.79,0,1.81,0,3.69-.27,5.22,1.07v66.85Z"/><path class="h" d="M579.93,451.21c-1.63,1.42-1.54,3.51-2.05,5.36-7.69,27.57-32.05,47.66-60.25,49.91-4.31,.34-5.92-.69-5.87-5.27,.21-19.45,.11-38.9,.07-58.35,0-2.71,.08-4.99,3.77-4.97,21.44,.16,42.89,.25,64.33,.36v12.97Z"/><path class="m" d="M579.93,434.25c-5.89,1.26-11.54-.24-17.15-1.65-27.86-7.03-49.51-33.1-50.83-60.97-.15-3.19-.02-5.54,4.19-5.51,21.26,.17,42.53,.2,63.79,.28v67.84Z"/><path class="i" d="M1.25,572.61l-.16,7.31c-.31-.22-1.04,.5-1.01-.5,.04-1.33,.01-2.66,.01-3.99C.09,385.2,.11,194.97,0,4.74,0,1,.84,.16,4.58,.16c190.29,.11,380.57,.09,570.86,.16,1.46,0,3.38-1.15,4.49,.94-22.4,.04-44.81,.07-67.21,.11-21.82,.01-43.64,.03-65.47,.04-2.67,1.53-5.33-1.12-8-.03-1.86,0-3.72-.01-5.57-.02-22.17,.01-44.33,.03-66.49,.04-21.59,.01-43.18,.02-64.76,.03-2.95-.01-5.89-.02-8.84-.03-1.82-.01-3.65-.02-5.47-.03-22.23,0-44.45,0-66.68,.01-21.84,0-43.69,.01-65.53,.02-2.65,0-5.3,0-7.95,0-1.83,0-3.67,0-5.5,0-22.21,0-44.42,0-66.63,.01-22.06,0-44.11,0-66.17,0C6.43,2.12,1.03-1.64,1.07,5.74c.1,21.25,.1,42.49,.14,63.74,.01,22.32,.03,44.65,.04,66.97,0,2.24,0,4.47-.01,6.7,0,1.6,0,3.2,0,4.8,0,22.3,0,44.61,0,66.91,0,22.16,0,44.32,.01,66.48,0,2.45,0,4.89,0,7.33,0,1.54-.01,3.08-.02,4.62,0,22.38,0,44.76,0,67.15,0,22.18,.01,44.37,.02,66.55,0,2.24,0,4.48,0,6.72-.01,1.67-.02,3.34-.03,5.01,0,22.38,0,44.76,.01,67.14l.04,66.72Z"/><path class="n" d="M128.84,579.91c.67-1.6,1.33-.64,2,0h-2Z"/><path class="n" d="M420.25,579.91l.09-.62,.91,.62h-1Z"/><path class="g" d="M181.23,506.63c-9.31,0-18.64-.22-27.94,.09-4.69,.16-6.45-1.17-6.38-6.11,.25-18.95,.23-37.91,.03-56.86-.05-4.68,1.43-6.03,6.08-5.71,30.49,2.15,57.03,26.69,61.74,57.36q1.73,11.27-9.58,11.26c-7.98,0-15.97,0-23.95,0v-.03Z"/><path class="g" d="M326.89,506.62c-9.48,0-18.96-.17-28.43,.09-4.25,.11-5.91-1.08-5.86-5.59,.19-19.28,.15-38.57,.01-57.85-.03-4.13,1.29-5.48,5.55-5.24,32.66,1.84,61.61,30.82,63.09,63.26,.17,3.81-.87,5.47-4.92,5.39-9.81-.18-19.62-.06-29.43-.05Z"/><path class="m" d="M109.36,75.24c9.48,0,18.95,.12,28.43-.07,3.93-.08,5.77,1.03,5.74,5.31-.13,19.44-.12,38.89,0,58.33,.03,4.25-1.64,5.4-5.74,5.11-32.35-2.32-59.73-29.06-62.72-61.45-.62-6.75-.24-7.2,6.36-7.21,9.31-.02,18.62,0,27.93-.01Z"/><path class="g" d="M438.31,472.14c0-9.46,.2-18.93-.09-28.38-.14-4.66,1.37-6.04,6.03-5.76,30.23,1.86,57.74,27.34,61.87,57.66,1.68,12.3,1.79,10.95-9.34,10.97-17.6,.04-35.2-.1-52.8,.09-4.32,.05-5.87-1.3-5.75-5.7,.27-9.62,.08-19.25,.08-28.88Z"/><path class="g" d="M1.22,360.45c0-22.38,0-44.76,0-67.15,5.17-1.89,10.25-.34,15.21,.74,28.88,6.32,50.59,31.06,53.37,60.49,.58,6.13,.08,6.75-5.85,6.75-18.95,.02-37.9,.03-56.85-.03-1.96,0-3.91-.53-5.87-.81Z"/><path class="g" d="M147.01,327c0-9.47-.02-18.93,0-28.4,.02-5.99,.43-6.36,6.14-5.99,30.01,1.97,57.21,27.11,61.54,56.88q1.72,11.79-9.92,11.8c-17.28,0-34.56-.13-51.83,.09-4.58,.06-6.17-1.36-6.03-5.98,.29-9.46,.09-18.93,.09-28.4Z"/><path class="g" d="M326.72,361.29c-9.64,0-19.27-.13-28.91,.06-3.94,.08-5.22-1.43-5.2-5.27,.12-19.43,.17-38.86-.03-58.29-.05-4.71,1.88-5.53,6.02-5.22,30.64,2.31,57.17,26.78,61.82,57.2q1.76,11.53-9.78,11.53c-3.99,0-7.97,0-11.96,0-3.99,0-7.97,0-11.96,0Z"/><path class="l" d="M507.04,400.39c0,9.64-.11,19.28,.05,28.92,.07,4.08-1.67,5.75-5.62,5.74-19.45-.04-38.91-.05-58.36-.01-3.71,0-5.06-1.8-4.76-5.31,2.93-34.36,29.72-60.33,61.97-63.35,6.05-.57,6.72,.19,6.72,6.08,0,9.31,0,18.62,0,27.93Z"/><path class="g" d="M438.31,326.48c0-9.46,.17-18.93-.08-28.39-.12-4.35,1.28-5.85,5.73-5.6,32.55,1.82,61.5,31.17,62.96,63.9,.15,3.37-.84,4.95-4.37,4.94-19.93-.06-39.86-.08-59.79,0-3.61,.01-4.5-1.74-4.46-4.96,.1-9.96,.04-19.92,.04-29.89h-.02Z"/><path class="m" d="M108.87,220.67c9.81,0,19.62,.13,29.43-.05,3.92-.07,5.25,1.43,5.22,5.28-.12,19.45-.14,38.9,0,58.34,.03,4.28-1.68,5.48-5.71,5.19-32.66-2.36-60.26-29.78-62.82-62.54-.44-5.61,.07-6.19,5.94-6.21,9.31-.04,18.62-.01,27.93,0Z"/><path class="l" d="M361.38,400.74c0,9.46-.11,18.93,.05,28.39,.07,4.08-1.06,6.04-5.62,5.99-18.58-.19-37.17-.03-55.76-.1-7.07-.03-7.4-.51-6.8-7.3,2.86-32.21,29.02-58.37,61.36-61.33,5.94-.54,6.76,.16,6.77,5.97,.02,9.46,0,18.92,0,28.39Z"/><path class="g" d="M1.22,214.86c0-22.3,0-44.61,0-66.91,3.9-2.01,7.88-.59,11.74,0,30.25,4.57,54.86,31.6,56.92,62.17,.26,3.87-.49,5.83-4.98,5.79-19.62-.18-39.24-.09-58.86-.07-1.7,0-3.3-.2-4.82-.97Z"/><path class="g" d="M326.81,215.83c-9.63,0-19.27-.13-28.9,.05-3.84,.07-5.31-1.22-5.28-5.16,.13-19.43,.13-38.86-.03-58.29-.04-4.5,1.65-5.75,5.96-5.36,33.07,3.03,59.54,29.25,62.59,62.14,.56,6.02,.05,6.6-5.92,6.61-9.47,.02-18.94,0-28.41,0Z"/><path class="h" d="M75.82,1.38c22.21,0,44.42,0,66.63-.01,1.76,3.73,.67,7.56,.12,11.25-4.44,29.87-29.31,53.78-59.44,57.34-8.17,.97-8.33,.82-8.33-7.49,0-18.27,.01-36.53-.01-54.8,0-2.17-.04-4.31,1.03-6.29Z"/><path class="g" d="M147.03,181.39c0-9.8,.13-19.6-.05-29.39-.07-4.01,1.54-5.2,5.37-4.98,32.74,1.85,61.47,30.77,63.27,63.63,.22,3.96-1.11,5.29-5.03,5.26-19.44-.14-38.87-.19-58.31-.02-4.3,.04-5.4-1.67-5.33-5.61,.19-9.63,.06-19.26,.07-28.89Z"/><path class="l" d="M472.65,289.53c-9.64,0-19.28-.11-28.91,.05-4.51,.08-5.76-1.82-5.27-6.1,3.91-33.69,27.02-57.57,60.63-62.49,6.94-1.02,7.94-.16,7.93,6.67-.01,18.6-.12,37.21,.07,55.81,.05,4.58-1.53,6.22-6.05,6.12-9.47-.21-18.94-.06-28.41-.06Z"/><path class="l" d="M215.63,400.49c0,9.64-.11,19.27,.05,28.9,.07,4.02-1.42,5.7-5.53,5.67-18.43-.11-36.87,.06-55.31-.11-8-.08-8.07-.43-7.2-8.31,3.48-31.53,29.09-57.02,60.47-60.2,6.91-.7,7.52-.17,7.52,6.63,0,9.14,0,18.27,0,27.41Z"/><path class="l" d="M1.23,433.72c0-2.24,0-4.48,0-6.72,2.55-10.49,5.22-20.9,11.44-30.02,12.14-17.81,28.91-27.97,50.24-30.56,6.25-.76,7.02,.07,7.03,6.21,.03,18.6-.14,37.21,.14,55.81,.08,4.94-1.99,6.54-6.35,6.53-12.96-.02-25.92-.05-38.88-.06-5.97,0-11.94-.06-17.91,.09-2.08,.05-3.94-.32-5.73-1.28Z"/><path class="l" d="M361.39,255.68c0,9.47-.12,18.94,.06,28.4,.08,4.09-1.41,5.54-5.53,5.51-19.1-.15-38.21-.04-57.31-.08-5.49-.01-6.33-1.08-5.64-6.61,4.17-33.54,27.32-57.2,60.58-61.94,6.89-.98,7.82-.19,7.83,6.82,.02,9.3,0,18.6,0,27.9Z"/><path class="l" d="M1.23,288.67c0-2.44,0-4.89,0-7.33,1.45-2.51,1.43-5.41,2.09-8.13,6.87-28.38,30.77-49.35,59.79-52.37,5.94-.62,6.84,.1,6.85,5.86,.03,18.94-.12,37.88,.09,56.82,.05,4.65-1.66,6.09-6.1,6.06-19.11-.14-38.23-.04-57.34-.1-1.79,0-3.58-.53-5.38-.81Z"/><path class="m" d="M109.44,366.17c9.47,0,18.95,.14,28.41-.07,3.99-.09,5.72,1.12,5.69,5.33-.14,19.43-.11,38.87-.05,58.3,.01,3.73-1.16,5.36-5.29,5.06-32.75-2.43-59.61-28.34-63.06-61.03-.76-7.24-.4-7.63,6.88-7.61,9.14,.02,18.28,0,27.42,0v.02Z"/><path class="h" d="M221.44,1.36c22.23,0,44.45,0,66.68-.01,1.72,5.67,.34,11.24-.97,16.66-6.65,27.48-29.3,47.83-57.39,51.82-1.8,.26-3.64,.23-5.46,.41-2.84,.28-3.87-1.14-3.87-3.8,.03-20.42,0-40.84,.07-61.26,0-1.27,.61-2.54,.94-3.81Z"/><path class="h" d="M367.19,1.39c22.16-.01,44.33-.03,66.49-.04,1.66,3.55,.81,7.24,.28,10.78-4.51,30.14-28.79,53.85-59.02,57.77-1.81,.23-3.64,.23-5.46,.33-1.96,.1-3.23-.62-3.22-2.79,.01-21.25,.02-42.5,.08-63.75,0-.77,.55-1.54,.85-2.31Z"/><path class="g" d="M472.56,215.82c-9.47,0-18.94-.17-28.4,.07-4.2,.1-5.96-1.09-5.92-5.59,.18-19.43,.16-38.86,.02-58.29-.03-4,1.44-5.25,5.32-4.99,33.5,2.26,61.72,30.81,63.33,64.05,.17,3.47-.95,4.84-4.44,4.8-9.97-.11-19.93-.04-29.9-.05Z"/><path class="l" d="M215.63,255.44c0,9.48-.13,18.96,.06,28.43,.08,4.01-1.22,5.72-5.4,5.7-19.29-.11-38.59-.11-57.88,.01-4.28,.03-5.56-1.85-5.21-5.81,2.93-33.16,28.28-59.17,61.37-62.89,6.2-.7,7.04,.02,7.05,6.13,.02,9.48,0,18.95,0,28.43Z"/><path class="g" d="M1.2,69.48c-.04-21.25-.04-42.49-.14-63.74-.03-7.37,5.36-3.62,8.58-4.36,7.88,2.37,16.07,3.73,23.41,7.81,21.92,12.2,34.13,30.73,36.82,55.63,.39,3.6-.35,5.62-4.61,5.6-19.9-.13-39.81-.04-59.71-.1-1.45,0-2.9-.55-4.35-.84Z"/><path class="h" d="M74.8,181.48c0-9.81,.14-19.61-.06-29.41-.08-3.92,1.3-5.19,5.21-5.16,19.45,.16,38.9,.15,58.35,0,3.94-.03,5.21,1.16,4.95,5.2-2.12,33.13-29.06,60.75-62.17,63.54-5.8,.49-6.27,.08-6.28-5.75-.02-9.47,0-18.95,0-28.42Z"/><path class="g" d="M147.95,1.38c2.65,0,5.3,0,7.95,0,1.53,1.59,3.67,1.27,5.53,1.66,29.35,6.15,51.65,31.49,54.14,61.43,.35,4.2-.72,6.02-5.32,5.98-19.27-.19-38.53-.17-57.8-.01-4.09,.03-5.54-1.31-5.51-5.44,.15-19.43,.09-38.85,.05-58.28,0-1.87,.33-3.61,.95-5.34Z"/><path class="g" d="M293.59,1.38c2.95,.01,5.89,.02,8.84,.03,1.15,1.55,2.99,1.25,4.53,1.58,29.44,6.32,51.49,31.06,54.18,60.88,.53,5.93,.05,6.47-6.11,6.47-18.78,.02-37.56-.11-56.34,.08-4.45,.05-6.17-1.13-6.11-5.88,.24-18.94,.11-37.88,.09-56.82,0-2.18,.12-4.3,.93-6.35Z"/><path class="l" d="M472.25,143.99c-9.63,0-19.26-.11-28.89,.05-3.96,.06-5.3-1.44-4.93-5.36,3.26-34.12,28.62-59.86,62.43-63.33,4.11-.42,6.23,.68,6.2,5.28-.12,19.42-.09,38.84,.01,58.26,.02,3.94-1.68,5.21-5.44,5.15-9.79-.15-19.59-.05-29.39-.05Z"/><path class="g" d="M1.21,505.88c0-22.38,0-44.76-.01-67.14,6.75-1.86,13.21,.06,19.56,1.85,26.84,7.57,46.69,32.01,49.09,59.87,.37,4.35-.37,6.28-5.42,6.21-19.44-.27-38.89-.06-58.34-.1-1.63,0-3.26-.45-4.89-.69Z"/><path class="l" d="M361.37,109.68c0,9.63-.12,19.26,.06,28.89,.08,4.12-1.5,5.51-5.58,5.48-19.27-.14-38.54-.12-57.8,0-4.17,.03-5.56-1.42-5.1-5.66,3.42-31.65,23.06-54.79,54.29-61.55,16.4-3.55,14.02-3.36,14.11,10.42,.05,7.47,0,14.94,.01,22.42Z"/><path class="h" d="M220.45,181.29c0-9.8,.1-19.61-.06-29.41-.06-3.61,1.13-5,4.89-4.97,19.61,.14,39.22,.15,58.84,0,4.15-.03,5.02,1.59,4.75,5.41-2.33,33.11-28.78,60.28-61.82,63.32-6.11,.56-6.57,.16-6.59-5.94-.02-9.47,0-18.94,0-28.41Z"/><path class="g" d="M439.26,1.37c2.67-1.09,5.33,1.56,8,.03,2.85,1.88,6.29,1.65,9.41,2.56,28.23,8.16,47.75,31.91,50.21,61.06,.33,3.91-.82,5.41-4.83,5.39-19.6-.12-39.2-.11-58.8,.01-3.66,.02-5.01-1.28-4.99-4.93,.1-19.76,.03-39.52,.09-59.28,0-1.61,.59-3.23,.91-4.84Z"/><path class="l" d="M215.63,109.47c0,9.79-.11,19.58,.06,29.37,.07,3.9-1.45,5.22-5.29,5.2-19.42-.12-38.84-.12-58.27,0-4.4,.03-5.39-1.95-4.92-5.87,4.1-34.5,27.51-58.28,61.86-62.73,5.43-.7,6.53,.21,6.55,5.64,.03,9.46,0,18.92,.01,28.38Z"/><path class="l" d="M1.23,143.15c0-2.23,0-4.47,.01-6.7,2.13-7.3,3.26-14.83,6.73-21.78,11.63-23.31,30.42-36.16,56.11-39.35,4.29-.53,5.98,1.05,5.95,5.49-.15,19.27-.13,38.54-.01,57.8,.02,3.73-1.09,5.45-5.09,5.42-19.77-.11-39.54-.03-59.32-.08-1.46,0-2.92-.52-4.37-.8Z"/><path class="h" d="M108.87,292.49c9.97,0,19.94,.09,29.91-.05,3.43-.05,4.65,1.02,4.49,4.64-1.47,33.31-30.62,62.72-63.68,64.18-3.38,.15-4.85-.87-4.84-4.43,.09-19.93,.1-39.87,0-59.8-.02-3.49,1.27-4.65,4.7-4.59,9.8,.16,19.61,.06,29.41,.06Z"/><path class="h" d="M366.25,181.33c0-9.8,.12-19.6-.06-29.4-.07-3.55,.86-5.06,4.72-5.03,19.6,.15,39.21,.16,58.81,0,4.16-.03,5,1.63,4.81,5.4-1.67,32.67-30.08,61.39-62.77,63.45-3.93,.25-5.75-.55-5.6-5.03,.31-9.79,.1-19.59,.1-29.39Z"/><path class="h" d="M255.09,292.49c9.8,0,19.61,.1,29.41-.05,3.57-.06,4.57,1.32,4.42,4.75-1.47,33.13-29.81,61.81-63.26,64.05-3.98,.27-5.3-1.05-5.27-4.98,.13-19.6,.15-39.2,0-58.8-.03-4.04,1.5-5.11,5.3-5.03,9.8,.21,19.61,.07,29.41,.07Z"/><path class="m" d="M434.52,110.06c0,9.64-.13,19.29,.06,28.93,.08,4.04-1.53,5.14-5.36,4.95-32.12-1.61-61.38-30.84-63.01-62.9-.22-4.28,.98-5.92,5.49-5.88,19.12,.19,38.25,.16,57.38,.02,4.06-.03,5.63,1.26,5.53,5.45-.23,9.8-.07,19.62-.07,29.43h-.03Z"/><path class="h" d="M366.24,326.8c0-9.8,.12-19.59-.06-29.39-.07-3.56,.88-5.02,4.73-4.99,19.6,.16,39.2,.17,58.79,0,4.14-.04,5.02,1.54,4.82,5.33-1.7,32.84-30.28,61.53-63.24,63.51-4.05,.24-5.2-1.19-5.12-5.07,.21-9.79,.07-19.59,.07-29.39Z"/><path class="m" d="M288.88,109.46c0,9.63-.19,19.27,.08,28.89,.12,4.33-1.12,5.91-5.65,5.59-32.1-2.26-59.82-29.42-62.59-61.55-.58-6.69-.17-7.15,6.44-7.15,18.6,0,37.21,.12,55.81-.07,4.48-.05,6.17,1.23,6.02,5.91-.31,9.45-.09,18.93-.1,28.39Z"/><path class="h" d="M74.81,472.17c0-9.63,.17-19.26-.08-28.88-.1-3.8,1.07-5.4,4.92-5.39,19.92,.06,39.85,.04,59.77,0,3.07,0,3.96,1.44,3.91,4.33-.55,32.68-30.87,63.22-63.86,64.37-3.49,.12-4.74-1.09-4.7-4.55,.13-9.96,.05-19.92,.05-29.88Z"/><path class="h" d="M220.45,472.03c0-9.63,.12-19.26-.06-28.88-.07-3.73,.94-5.37,5.03-5.34,19.59,.15,39.19,.11,58.78,0,3.67-.02,4.92,1.2,4.71,4.99-1.85,33.34-29.59,61.42-62.9,63.68-4.11,.28-5.72-.79-5.62-5.08,.22-9.79,.07-19.59,.07-29.38Z"/><path class="m" d="M434.53,255.16c0,9.8-.12,19.6,.05,29.39,.07,4.01-1.41,5.23-5.35,4.84-33.26-3.31-58.11-27.17-62.67-60.32-1.1-7.98-.72-8.4,7.49-8.4,18.27,0,36.54,.1,54.81-.09,4.32-.04,5.88,1.27,5.75,5.69-.27,9.62-.08,19.26-.09,28.89Z"/><path class="h" d="M366.24,472.28c0-9.81,.12-19.62-.06-29.43-.07-3.57,.92-5.06,4.74-5.03,19.62,.13,39.25,.12,58.88,0,3.71-.02,4.92,1.27,4.79,4.97-1.15,32.75-30.64,62.32-63.57,63.77-3.83,.17-4.91-1.21-4.84-4.85,.19-9.81,.06-19.62,.07-29.43Z"/><path class="m" d="M288.92,255.16c0,9.8-.13,19.6,.06,29.39,.08,4.14-1.72,5.15-5.46,4.84-32.84-2.77-59.43-28.74-62.75-61.37-.7-6.9-.32-7.35,6.67-7.35,18.6-.02,37.21,.11,55.81-.1,4.39-.05,5.82,1.36,5.71,5.71-.26,9.62-.08,19.26-.08,28.89h.04Z"/><path class="m" d="M288.89,400.33c0,9.81-.14,19.62,.07,29.42,.08,4.01-1.38,5.15-5.28,4.95-32.3-1.61-61.16-30.27-63.11-62.69-.26-4.27,.89-5.98,5.41-5.94,19.12,.18,38.25,.2,57.37,0,4.45-.04,5.77,1.54,5.66,5.82-.25,9.47-.08,18.95-.08,28.42h-.03Z"/><path class="m" d="M434.52,400.52c0,9.63-.14,19.27,.06,28.9,.09,4.15-1.35,5.5-5.54,5.28-32.34-1.7-61.6-31.2-62.82-63.43-.14-3.56,.85-5.19,4.66-5.17,19.61,.1,39.22,.11,58.82-.01,3.75-.02,4.93,1.44,4.87,5.02-.15,9.8-.05,19.6-.06,29.4Z"/></g></g></pattern></defs><g id="a"/><g id="b"><g id="c"><g><g><path class="i" d="M53.07,404.42c1,0,1.28,1.21,1.57,8.21,.28,6.03,.71,10.62,1.85,12.31,3.42,5.07,6.28,7.24,10.13,7.24,13.27,0,13.27-23.9,13.27-36.69v-29.69c0-33.31-.29-53.1-2.14-56.72-1.14-2.17-4-2.9-8.13-2.9-3.14,0-3.71,0-3.71-2.41v-3.38c0-1.21,.43-1.69,1.43-1.69h34.67c.71,0,1.14,.24,1.14,1.45v3.86c0,2.17-.86,2.17-2.71,2.17-8.85,.24-8.99,.24-8.99,28.24v10.14c.14,6.03,.57,34.76,.57,41.28,0,25.34-1,31.38-6.56,42-5.85,8.93-11.98,12.31-21.83,12.31-4.28,0-7.27-.48-13.98-3.14v-30.41c0-1.21,.29-2.17,.86-2.17h2.57Z"/><path class="i" d="M147.22,295.8h5.42l3.42,13.76c4.28,16.9,26.82,104.52,30.81,114.89,1.28,3.38,3.14,5.31,4.99,5.31,2.71,0,3,.72,3,2.41v3.14c0,1.69-.57,2.17-1.57,2.17l-32.24,.24c-.28,0-1.14-1.21-1.14-2.41l.14-3.62c0-.97,.57-1.93,1-1.93h3.42c4,0,6.14-2.17,6.14-7,0-2.41-.43-5.31-1.28-8.93l-4.99-20.76h-36.09l-5.71,23.9c-.43,1.93-.71,3.86-.71,5.55,0,4.59,2.14,7.24,5.71,7.24h3.14c.86,0,1.28,.72,1.28,2.41v3.38c0,1.21-.43,1.93-.86,1.93l-27.1,.24c-.71,0-1-.72-1-2.41v-3.62c0-1.21,.28-1.93,1.28-1.93,3.85,0,5.99,0,11.27-19.31l31.67-114.65Zm-.57,26.31l-16.12,62.28h31.67l-15.55-62.28Z"/><path class="i" d="M248.64,309.32h-27.53c-8.56,0-11.27,4.34-11.41,18.59,0,2.9-.29,3.62-1.14,3.62-3,0-3-.48-3-5.07v-24.38c0-3.38,.29-3.38,2.43-3.38h53.78c2,0,2.28,0,2.28,1.21v5.55c0,.97-.14,1.93-.71,3.14l-14.12,36.21-31.53,82.07h15.55c16.12,0,21.4-.97,23.11-4.1,1.14-2.65,2.28-9.41,2.28-15.69,.14-2.9,.29-4.83,.57-4.83h3.42c.57,0,.86,1.93,.86,5.31v27.03c0,2.17-.43,2.9-1.57,2.9l-59.2,.24c-.43,0-1-.72-1-1.21v-6.76l7.56-18.35c12.27-30.17,23.4-58.9,34.24-87.86l5.13-14.24Z"/><path class="i" d="M316.97,309.32h-27.53c-8.56,0-11.27,4.34-11.41,18.59,0,2.9-.29,3.62-1.14,3.62-3,0-3-.48-3-5.07v-24.38c0-3.38,.29-3.38,2.43-3.38h53.78c2,0,2.28,0,2.28,1.21v5.55c0,.97-.14,1.93-.71,3.14l-14.12,36.21-31.53,82.07h15.55c16.12,0,21.4-.97,23.11-4.1,1.14-2.65,2.28-9.41,2.28-15.69,.14-2.9,.29-4.83,.57-4.83h3.42c.57,0,.86,1.93,.86,5.31v27.03c0,2.17-.43,2.9-1.57,2.9l-59.2,.24c-.43,0-1-.72-1-1.21v-6.76l7.56-18.35c12.27-30.17,23.4-58.9,34.24-87.86l5.13-14.24Z"/></g><g><rect class="j" x="0" width="374.97" height="509.64"/><rect class="e" x="0" width="374.97" height="509.64"/></g><path class="i" d="M358.15,197.3c-2.31,10.11-8.97,11.36-8.97,11.36l-170.62,85.02c-28.16-36.36-50.71-24.14-50.71-24.14-11.85,2.93-25.73,26.96-25.73,26.96-8.7,9.74-20.51,6.74-20.51,6.74-8.61-2.94-27.32-5.93-27.32-5.93C14.97,293.01,.03,313.5,.03,313.5l-.03,211.5H375V187.86c-7.66,8.61-16.85,9.44-16.85,9.44Zm-214.4,115.1c-5.64,0-10.22-4.64-10.22-10.36s4.57-10.36,10.22-10.36,10.22,4.64,10.22,10.36-4.57,10.36-10.22,10.36Z"/><g><g><path class="k" d="M132.86,512.6h-7.98l-16.11-40.35h-7.08v40.35h-6.38v-88.82h15.53c5.21,0,9.33,2.05,12.36,6.14,3.02,4.09,4.53,9.79,4.53,17.09,0,5.41-1.1,10.23-3.31,14.45-2.21,4.22-5.24,7.08-9.11,8.59l17.55,42.55Zm-31.17-49.35h8.06c3.37,0,6.11-1.48,8.21-4.44,2.1-2.96,3.15-6.68,3.15-11.17,0-9.9-3.74-14.86-11.21-14.86h-8.21v30.47Z"/><path class="k" d="M158.82,422.08c6.15,0,10.84,3.93,14.07,11.8,3.23,7.87,4.84,19.31,4.84,34.34s-1.61,26.35-4.83,34.24c-3.22,7.89-7.91,11.83-14.09,11.83s-10.8-3.93-14.03-11.8c-3.23-7.87-4.84-19.29-4.84-34.27s1.61-26.42,4.83-34.31c3.22-7.89,7.9-11.83,14.05-11.83Zm0,83.15c8.09,0,12.14-12.34,12.14-37.01s-4.05-37.08-12.14-37.08c-3.94,0-6.95,3.2-9.01,9.6-2.06,6.4-3.09,15.56-3.09,27.48s1.02,21.22,3.07,27.54c2.05,6.32,5.06,9.47,9.03,9.47Z"/><path class="k" d="M224.51,507.06c-4.31,4.83-9.3,7.24-14.98,7.24-7.11,0-12.51-3.94-16.21-11.83-3.7-7.89-5.55-19.3-5.55-34.24s1.79-25.73,5.37-33.9,9.04-12.24,16.38-12.24c2.65,0,5.27,.55,7.86,1.64,2.59,1.09,4.68,2.54,6.27,4.34l-2.1,8.12c-3.66-3.36-7.67-5.04-12.02-5.04-5.06,0-8.82,2.97-11.29,8.91-2.46,5.94-3.7,15.33-3.7,28.17,0,24.68,4.99,37.01,14.98,37.01,4.23,0,8.56-2.1,13-6.29l1.98,8.12Z"/><path class="k" d="M277.59,512.6h-8.06l-18.56-43.56-5.8,10.2v33.36h-6.38v-88.82h6.38v42.55l24.36-42.55h7.35l-21.44,37.52,22.14,51.3Z"/></g><g><path class="k" d="M125,415.33h-6.69v-47.46h-19.72v47.46h-6.69v-95.67h6.69v38.44h19.72v-38.44h6.69v95.67Z"/><path class="k" d="M181.53,415.33h-7.02l-6.37-33.49h-18.9l-6.45,33.49h-6.94l18.82-95.67h8.04l18.82,95.67Zm-15.31-43.19l-7.55-39.6-7.51,39.6h15.06Z"/><path class="k" d="M231.62,415.33h-8.37l-16.9-43.46h-7.43v43.46h-6.69v-95.67h16.29c5.47,0,9.79,2.2,12.96,6.61,3.17,4.41,4.76,10.54,4.76,18.41,0,5.83-1.16,11.02-3.47,15.56-2.31,4.54-5.5,7.63-9.55,9.25l18.41,45.83Zm-32.7-53.16h8.45c3.54,0,6.41-1.59,8.61-4.78s3.31-7.2,3.31-12.03c0-10.67-3.92-16-11.76-16h-8.61v32.82Z"/><path class="k" d="M242.4,319.66h11.35c7.54,0,13.58,4.26,18.12,12.78,4.54,8.52,6.82,20.22,6.82,35.09,0,15.19-2.31,26.95-6.92,35.29-4.61,8.34-10.52,12.51-17.74,12.51h-11.63v-95.67Zm6.69,85.97h4.74c5.47,0,9.8-3.37,12.98-10.1,3.18-6.73,4.78-16.07,4.78-28,0-11.84-1.6-21.17-4.8-27.97-3.2-6.8-7.52-10.2-12.96-10.2h-4.74v76.28Z"/></g></g></g></g></g></svg>