<?xml version="1.0" encoding="utf-8"?>
<!-- Generator: Adobe Illustrator 26.1.0, SVG Export Plug-In . SVG Version: 6.00 Build 0)  -->
<svg version="1.1" id="Calque_1" xmlns="http://www.w3.org/2000/svg" xmlns:xlink="http://www.w3.org/1999/xlink" x="0px" y="0px"
	 viewBox="0 0 375 445" style="enable-background:new 0 0 375 445;" xml:space="preserve">
<style type="text/css">
	.st0{fill:none;}
	.st1{fill:#521311;}
	.st2{fill:#D94527;}
	.st3{fill:#F6BD40;}
	.st4{fill:#B12A31;}
	.st5{fill:#FFFFFF;}
	.st6{fill:#EB7329;}
	.st7{fill:#FFE4BD;}
	.st8{fill:url(#SVGID_00000085951706772562117490000014941835064431292577_);}
	.st9{fill:#EE732B;}
	.st10{font-family:'Karmina-Bold';}
	.st11{font-size:30px;}
</style>
<pattern  y="445" width="580" height="580" patternUnits="userSpaceOnUse" id="SVGID_1_" viewBox="0 -580 580 580" style="overflow:visible;">
	<g>
		<rect y="-580" class="st0" width="580" height="580"/>
		<g>
			<rect y="-580" class="st0" width="580" height="580"/>
			<g>
				<rect y="-580" class="st0" width="580" height="580"/>
				<g>
					<path class="st1" d="M151.6-24.3c8.9-24.2,33.5-42.7,57.9-43.9c4.3-0.2,6.3,0.6,6.2,5.6c-0.3,18.9-0.1,37.8-0.1,56.7
						c0,2,0.2,4-1,5.8h61.9c-2.4-1.7-5.3-1.7-7.9-2.7c-27.6-9.6-43.3-29.1-47.8-57.8c-1.2-7.5-0.5-8.1,7-8.1
						c18.3,0,36.6,0.1,54.9-0.1c4.8,0,6.4,1.5,6.3,6.3c-0.4,20.8,0.4,41.5-0.5,62.3h5c-1.6-8.3,0.6-16.2,3.6-23.7
						c9.7-24.1,27.4-39,53.1-43.9c1.9-0.4,4-0.3,5.9-0.5c3.9-0.5,5.3,1.2,5.3,5.1c-0.1,19.4,0,38.8,0,58.2c0,1.7-0.1,3.3-1,4.8h57.9
						c0.3-2.7-2.2-2-3.4-2.4c-27.4-9.3-43.4-28.3-48.1-56.8c-0.3-1.6-0.3-3.3-0.5-5c-0.3-2.9,1-4.4,3.9-4.4c20.1,0,40.2,0,60.3,0
						c2.5,0,4.1,1,4.1,3.8c-0.1,21.6-0.2,43.1-0.3,64.7h5c-1.9-3.2-0.5-6.5,0-9.7c4.8-33.4,32.1-55.8,61-58.2c6.4-0.5,6.8,0,6.8,6.4
						c0,18.2,0,36.5,0,54.8c0,2.3,0.3,4.7-0.9,6.8H567c-1.2-1.7-3.2-1.5-4.9-1.9c-27-7.5-47.6-31.8-49.9-59.1
						c-0.6-7-0.2-7.5,6.6-7.5c18.3,0,36.5,0,54.8,0c2.1,0,4.3,0.5,6.4,0.7v-60.9c-1.6,1.4-1.5,3.5-2,5.4
						c-7.7,27.6-32,47.7-60.2,49.9c-4.3,0.3-5.9-0.7-5.9-5.3c0.2-19.5,0.1-38.9,0.1-58.4c0-2.7,0.1-5,3.8-5
						c21.4,0.2,42.9,0.2,64.3,0.4v-4c-5.9,1.3-11.5-0.2-17.2-1.6c-27.9-7-49.5-33.1-50.8-61c-0.1-3.2,0-5.5,4.2-5.5
						c21.3,0.2,42.5,0.2,63.8,0.3v-61.9c-1.6,4.8-2.9,9.8-4.9,14.4c-11.1,25-30.5,39-57.6,42.2c-4,0.5-5.7-0.6-5.6-5
						c0.2-19.6,0.1-39.2,0-58.7c0-3.5,0.8-5.1,4.7-5c19.8,0.2,39.5,0.1,59.2,0.1c1.5,0,3-0.2,4.2,1.1v-5c-3.7,2-7.6,0.4-11.2-0.1
						c-29.7-4.2-54.9-31.8-56.7-61.6c-0.4-5.8,0-6.2,5.9-6.2c18.9,0,37.9,0,56.8,0c1.8,0,3.7-0.3,5.2,1.1v-60.9
						c-1.8,1.1-1.6,3.1-2,4.8c-7.6,27.2-31.6,47.4-59.7,49.9c-5.9,0.5-6.4,0.1-6.4-5.6c0-19.1,0.1-38.2-0.1-57.3
						c0-4.2,1-5.9,5.6-5.8c19.3,0.2,38.6,0.1,57.8,0.1c1.7,0,3.3-0.2,4.8,0.9v-5c-1.4,1.2-3,1-4.7,1c-32.3-1.5-61.1-30-63.3-62.3
						c-0.3-4.8,1-6.4,5.9-6.4c19.1,0.2,38.2,0.1,57.3,0.1c1.7,0,3.3,0,4.8,0.9v-61.9c-1.5,1.5-1.4,3.6-1.9,5.5
						c-7.4,27.3-31.2,47.7-58.8,50.4c-7.2,0.7-7.4,0.6-7.4-6.5c0-18.6,0-37.2,0-55.9c0-2.2-0.1-4.3,0.9-6.3h-65.5
						c2.9,1.9,6.3,1.7,9.4,2.6c28.2,8.2,47.8,31.9,50.2,61.1c0.3,3.9-0.8,5.4-4.8,5.4c-19.6-0.1-39.2-0.1-58.8,0c-3.7,0-5-1.3-5-4.9
						c0.1-19.8,0-39.5,0.1-59.3c0-1.6,0.6-3.2,0.9-4.8h-5.6c1.7,3.5,0.8,7.2,0.3,10.8c-4.5,30.1-28.8,53.8-59,57.8
						c-1.8,0.2-3.6,0.2-5.5,0.3c-2,0.1-3.2-0.6-3.2-2.8c0-21.2,0-42.5,0.1-63.8c0-0.8,0.5-1.5,0.9-2.3c-21.6,0-43.2,0-64.8,0
						c1.1,1.5,3,1.2,4.5,1.6c29.4,6.3,51.5,31.1,54.2,60.9c0.5,5.9,0,6.5-6.1,6.5c-18.8,0-37.6-0.1-56.3,0.1
						c-4.5,0.1-6.2-1.1-6.1-5.9c0.2-18.9,0.1-37.9,0.1-56.8c0-2.2,0.1-4.3,0.9-6.3h-5.5c1.7,5.7,0.3,11.2-1,16.7
						c-6.6,27.5-29.3,47.8-57.4,51.8c-1.8,0.3-3.6,0.2-5.5,0.4c-2.8,0.3-3.9-1.1-3.9-3.8c0-20.4,0-40.8,0.1-61.3
						c0-1.3,0.6-2.5,0.9-3.8c-21.8,0-43.7,0-65.5,0c1.5,1.6,3.7,1.3,5.5,1.7c29.4,6.2,51.6,31.5,54.1,61.4c0.4,4.2-0.7,6-5.3,6
						c-19.3-0.2-38.5-0.2-57.8,0c-4.1,0-5.5-1.3-5.5-5.4c0.1-19.4,0.1-38.8,0.1-58.3c0-1.9,0.3-3.6,0.9-5.3h-5.5
						c1.8,3.7,0.7,7.6,0.1,11.2c-4.4,29.9-29.3,53.8-59.4,57.3c-8.2,1-8.3,0.8-8.3-7.5c0-18.3,0-36.5,0-54.8c0-2.2,0-4.3,1-6.3H9.6
						c7.9,2.4,16.1,3.7,23.4,7.8c22,12,34.2,30.5,36.9,55.4c0.4,3.6-0.3,5.6-4.6,5.6c-19.9-0.1-39.8,0-59.7-0.1
						c-1.4,0-2.9-0.6-4.3-0.8v67c2.1-7.3,3.3-14.8,6.7-21.8c11.6-23.3,30.4-36.2,56.1-39.3c4.3-0.5,6,1.1,5.9,5.5
						c-0.2,19.3-0.1,38.5,0,57.8c0,3.7-1.1,5.4-5.1,5.4c-19.8-0.1-39.5,0-59.3-0.1c-1.5,0-2.9-0.5-4.4-0.8v4.8c3.9-2,7.9-0.6,11.7,0
						c30.2,4.6,54.9,31.6,56.9,62.2c0.3,3.9-0.5,5.8-5,5.8c-19.6-0.2-39.2-0.1-58.9-0.1c-1.7,0-3.3-0.2-4.8-1v66.5
						c1.5-2.5,1.4-5.4,2.1-8.1c6.9-28.4,30.8-49.4,59.8-52.4c5.9-0.6,6.8,0.1,6.8,5.9c0,18.9-0.1,37.9,0.1,56.8
						c0.1,4.6-1.7,6.1-6.1,6.1c-19.1-0.1-38.2,0-57.3-0.1c-1.8,0-3.6-0.5-5.4-0.8v4.6c5.2-1.9,10.2-0.3,15.2,0.7
						c28.9,6.3,50.6,31.1,53.4,60.5c0.6,6.1,0.1,6.8-5.8,6.8c-19,0-37.9,0-56.8,0c-2,0-3.9-0.5-5.9-0.8v66.5
						c2.5-10.5,5.2-20.9,11.4-30c12.1-17.8,28.9-28,50.2-30.6c6.2-0.8,7,0.1,7,6.2c0,18.6-0.1,37.2,0.1,55.8c0.1,4.9-2,6.5-6.3,6.5
						c-13,0-25.9,0-38.9-0.1c-6,0-11.9-0.1-17.9,0.1c-2.1,0-3.9-0.3-5.7-1.3v5c6.8-1.9,13.2,0.1,19.6,1.9
						c26.8,7.6,46.7,32,49.1,59.9c0.4,4.4-0.4,6.3-5.4,6.2C45-73.6,25.5-73.4,6.1-73.4c-1.6,0-3.3-0.5-4.9-0.7v66.7
						C3.1-13.1,3.9-19,5.9-24.6c8.8-23.7,33.4-42.2,57.8-43.6c4.9-0.3,6.3,1.2,6.3,6c-0.2,18.9-0.1,37.8-0.1,56.8
						c0,1.8,0.1,3.7-1,5.3h57.9c-0.1-2.7-2.5-2.1-3.9-2.6c-26.8-9.3-42.4-28-47.5-55.7c-0.4-2-0.3-4-0.5-6c-0.3-3,1.3-4.3,4.1-4.2
						c20.1,0,40.2,0,60.3,0c2.2,0,4.1,0.6,4.1,3.3c-0.2,21.6,0.7,43.2-0.5,64.7c0,0.2-0.1,0.3-0.1,0.5h5
						C146.6-8.6,148.7-16.5,151.6-24.3L151.6-24.3z M153.3-73.3c-4.7,0.2-6.4-1.2-6.4-6.1c0.2-19,0.2-37.9,0-56.9
						c-0.1-4.7,1.4-6,6.1-5.7c30.5,2.1,57,26.7,61.7,57.4c1.2,7.5-2,11.3-9.6,11.3c-8,0-16,0-23.9,0l0,0
						C171.9-73.4,162.6-73.6,153.3-73.3L153.3-73.3z M298.5-73.3c-4.2,0.1-5.9-1.1-5.9-5.6c0.2-19.3,0.1-38.6,0-57.9
						c0-4.1,1.3-5.5,5.5-5.2c32.7,1.8,61.6,30.8,63.1,63.3c0.2,3.8-0.9,5.5-4.9,5.4c-9.8-0.2-19.6-0.1-29.4-0.1
						C317.4-73.4,307.9-73.5,298.5-73.3L298.5-73.3z M137.8-504.8c3.9-0.1,5.8,1,5.7,5.3c-0.1,19.4-0.1,38.9,0,58.3
						c0,4.2-1.6,5.4-5.7,5.1c-32.3-2.3-59.7-29.1-62.7-61.4c-0.6-6.8-0.2-7.2,6.4-7.2c9.3,0,18.6,0,27.9,0
						C118.8-504.8,128.3-504.6,137.8-504.8L137.8-504.8z M438.2-136.2c-0.1-4.7,1.4-6,6-5.8c30.2,1.9,57.7,27.3,61.9,57.7
						c1.7,12.3,1.8,11-9.3,11c-17.6,0-35.2-0.1-52.8,0.1c-4.3,0-5.9-1.3-5.8-5.7c0.3-9.6,0.1-19.2,0.1-28.9
						C438.3-117.3,438.5-126.8,438.2-136.2L438.2-136.2z M147-281.4c0-6,0.4-6.4,6.1-6c30,2,57.2,27.1,61.5,56.9
						c1.1,7.9-2.2,11.8-9.9,11.8c-17.3,0-34.6-0.1-51.8,0.1c-4.6,0.1-6.2-1.4-6-6c0.3-9.5,0.1-18.9,0.1-28.4S147-271.9,147-281.4z
						 M297.8-218.6c-3.9,0.1-5.2-1.4-5.2-5.3c0.1-19.4,0.2-38.9,0-58.3c0-4.7,1.9-5.5,6-5.2c30.6,2.3,57.2,26.8,61.8,57.2
						c1.2,7.7-2.1,11.5-9.8,11.5c-4,0-8,0-12,0s-8,0-12,0C317.1-218.7,307.5-218.8,297.8-218.6L297.8-218.6z M507.1-150.7
						c0.1,4.1-1.7,5.8-5.6,5.7c-19.5,0-38.9,0-58.4,0c-3.7,0-5.1-1.8-4.8-5.3c2.9-34.4,29.7-60.3,62-63.4c6-0.6,6.7,0.2,6.7,6.1
						c0,9.3,0,18.6,0,27.9C507-170,506.9-160.3,507.1-150.7L507.1-150.7z M438.2-281.9c-0.1-4.4,1.3-5.9,5.7-5.6
						c32.5,1.8,61.5,31.2,63,63.9c0.1,3.4-0.8,5-4.4,4.9c-19.9-0.1-39.9-0.1-59.8,0c-3.6,0-4.5-1.7-4.5-5c0.1-10,0-19.9,0-29.9l0,0
						C438.3-263,438.5-272.5,438.2-281.9L438.2-281.9z M138.3-359.4c3.9-0.1,5.2,1.4,5.2,5.3c-0.1,19.4-0.1,38.9,0,58.3
						c0,4.3-1.7,5.5-5.7,5.2c-32.7-2.4-60.3-29.8-62.8-62.5c-0.4-5.6,0.1-6.2,5.9-6.2c9.3,0,18.6,0,27.9,0
						C118.7-359.3,128.5-359.2,138.3-359.4L138.3-359.4z M361.4-150.9c0.1,4.1-1.1,6-5.6,6c-18.6-0.2-37.2,0-55.8-0.1
						c-7.1,0-7.4-0.5-6.8-7.3c2.9-32.2,29-58.4,61.4-61.3c5.9-0.5,6.8,0.2,6.8,6c0,9.5,0,18.9,0,28.4
						C361.4-169.8,361.3-160.3,361.4-150.9L361.4-150.9z M297.9-364.1c-3.8,0.1-5.3-1.2-5.3-5.2c0.1-19.4,0.1-38.9,0-58.3
						c0-4.5,1.6-5.8,6-5.4c33.1,3,59.5,29.2,62.6,62.1c0.6,6,0,6.6-5.9,6.6c-9.5,0-18.9,0-28.4,0
						C317.2-364.2,307.5-364.3,297.9-364.1L297.9-364.1z M147-428c-0.1-4,1.5-5.2,5.4-5c32.7,1.9,61.5,30.8,63.3,63.6
						c0.2,4-1.1,5.3-5,5.3c-19.4-0.1-38.9-0.2-58.3,0c-4.3,0-5.4-1.7-5.3-5.6c0.2-9.6,0.1-19.3,0.1-28.9
						C147-408.4,147.1-418.2,147-428L147-428z M443.7-290.4c-4.5,0.1-5.8-1.8-5.3-6.1c3.9-33.7,27-57.6,60.6-62.5
						c6.9-1,7.9-0.2,7.9,6.7c0,18.6-0.1,37.2,0.1,55.8c0,4.6-1.5,6.2-6,6.1c-9.5-0.2-18.9-0.1-28.4-0.1
						C463-290.5,453.4-290.6,443.7-290.4L443.7-290.4z M215.7-150.6c0.1,4-1.4,5.7-5.5,5.7c-18.4-0.1-36.9,0.1-55.3-0.1
						c-8-0.1-8.1-0.4-7.2-8.3c3.5-31.5,29.1-57,60.5-60.2c6.9-0.7,7.5-0.2,7.5,6.6c0,9.1,0,18.3,0,27.4
						C215.6-169.9,215.5-160.2,215.7-150.6L215.7-150.6z M361.5-295.9c0.1,4.1-1.4,5.5-5.5,5.5c-19.1-0.1-38.2,0-57.3-0.1
						c-5.5,0-6.3-1.1-5.6-6.6c4.2-33.5,27.3-57.2,60.6-61.9c6.9-1,7.8-0.2,7.8,6.8c0,9.3,0,18.6,0,27.9
						C361.4-314.8,361.3-305.4,361.5-295.9L361.5-295.9z M137.9-213.9c4-0.1,5.7,1.1,5.7,5.3c-0.1,19.4-0.1,38.9-0.1,58.3
						c0,3.7-1.2,5.4-5.3,5.1c-32.8-2.4-59.6-28.3-63.1-61c-0.8-7.2-0.4-7.6,6.9-7.6c9.1,0,18.3,0,27.4,0l0,0
						C118.9-213.8,128.4-213.7,137.9-213.9L137.9-213.9z M444.1-364.1c-4.2,0.1-6-1.1-5.9-5.6c0.2-19.4,0.2-38.9,0-58.3
						c0-4,1.4-5.2,5.3-5c33.5,2.3,61.7,30.8,63.3,64.1c0.2,3.5-1,4.8-4.4,4.8c-10-0.1-19.9,0-29.9,0
						C463.1-364.2,453.6-364.3,444.1-364.1L444.1-364.1z M215.7-296.1c0.1,4-1.2,5.7-5.4,5.7c-19.3-0.1-38.6-0.1-57.9,0
						c-4.3,0-5.6-1.9-5.2-5.8c2.9-33.2,28.3-59.2,61.4-62.9c6.2-0.7,7,0,7.1,6.1c0,9.5,0,18.9,0,28.4S215.5-305.6,215.7-296.1
						L215.7-296.1z M74.7-427.9c-0.1-3.9,1.3-5.2,5.2-5.2c19.4,0.2,38.9,0.1,58.3,0c3.9,0,5.2,1.2,4.9,5.2
						c-2.1,33.1-29.1,60.8-62.2,63.5c-5.8,0.5-6.3,0.1-6.3-5.8c0-9.5,0-18.9,0-28.4C74.8-408.3,74.9-418.1,74.7-427.9L74.7-427.9z
						 M443.4-436c-4,0.1-5.3-1.4-4.9-5.4c3.3-34.1,28.6-59.9,62.4-63.3c4.1-0.4,6.2,0.7,6.2,5.3c-0.1,19.4-0.1,38.8,0,58.3
						c0,3.9-1.7,5.2-5.4,5.1c-9.8-0.1-19.6-0.1-29.4-0.1C462.6-436,453-436.1,443.4-436L443.4-436z M361.4-441.4
						c0.1,4.1-1.5,5.5-5.6,5.5c-19.3-0.1-38.5-0.1-57.8,0c-4.2,0-5.6-1.4-5.1-5.7c3.4-31.7,23.1-54.8,54.3-61.6
						c16.4-3.6,14-3.4,14.1,10.4c0,7.5,0,14.9,0,22.4C361.4-460.7,361.2-451.1,361.4-441.4L361.4-441.4z M220.4-428.1
						c-0.1-3.6,1.1-5,4.9-5c19.6,0.1,39.2,0.1,58.8,0c4.1,0,5,1.6,4.8,5.4c-2.3,33.1-28.8,60.3-61.8,63.3c-6.1,0.6-6.6,0.2-6.6-5.9
						c0-9.5,0-18.9,0-28.4C220.5-408.5,220.6-418.3,220.4-428.1L220.4-428.1z M215.7-441.2c0.1,3.9-1.4,5.2-5.3,5.2
						c-19.4-0.1-38.8-0.1-58.3,0c-4.4,0-5.4-1.9-4.9-5.9c4.1-34.5,27.5-58.3,61.9-62.7c5.4-0.7,6.5,0.2,6.6,5.6c0,9.5,0,18.9,0,28.4
						C215.6-460.8,215.5-451,215.7-441.2L215.7-441.2z M138.8-287.6c3.4,0,4.6,1,4.5,4.6c-1.5,33.3-30.6,62.7-63.7,64.2
						c-3.4,0.1-4.8-0.9-4.8-4.4c0.1-19.9,0.1-39.9,0-59.8c0-3.5,1.3-4.6,4.7-4.6c9.8,0.2,19.6,0.1,29.4,0.1
						C118.8-287.5,128.8-287.4,138.8-287.6L138.8-287.6z M366.2-428.1c-0.1-3.6,0.9-5.1,4.7-5c19.6,0.1,39.2,0.2,58.8,0
						c4.2,0,5,1.6,4.8,5.4c-1.7,32.7-30.1,61.4-62.8,63.4c-3.9,0.2-5.8-0.6-5.6-5c0.3-9.8,0.1-19.6,0.1-29.4
						S366.4-418.3,366.2-428.1L366.2-428.1z M284.5-287.6c3.6-0.1,4.6,1.3,4.4,4.8c-1.5,33.1-29.8,61.8-63.3,64c-4,0.3-5.3-1-5.3-5
						c0.1-19.6,0.1-39.2,0-58.8c0-4,1.5-5.1,5.3-5c9.8,0.2,19.6,0.1,29.4,0.1C264.8-287.5,274.7-287.4,284.5-287.6L284.5-287.6z
						 M434.6-441c0.1,4-1.5,5.1-5.4,4.9c-32.1-1.6-61.4-30.8-63-62.9c-0.2-4.3,1-5.9,5.5-5.9c19.1,0.2,38.2,0.2,57.4,0
						c4.1,0,5.6,1.3,5.5,5.4c-0.2,9.8-0.1,19.6-0.1,29.4l0,0C434.5-460.3,434.4-450.7,434.6-441L434.6-441z M366.2-282.6
						c-0.1-3.6,0.9-5,4.7-5c19.6,0.2,39.2,0.2,58.8,0c4.1,0,5,1.5,4.8,5.3c-1.7,32.8-30.3,61.5-63.2,63.5c-4,0.2-5.2-1.2-5.1-5.1
						c0.2-9.8,0.1-19.6,0.1-29.4S366.4-272.8,366.2-282.6L366.2-282.6z M289-441.7c0.1,4.3-1.1,5.9-5.6,5.6
						c-32.1-2.3-59.8-29.4-62.6-61.6c-0.6-6.7-0.2-7.2,6.4-7.2c18.6,0,37.2,0.1,55.8-0.1c4.5-0.1,6.2,1.2,6,5.9
						c-0.3,9.4-0.1,18.9-0.1,28.4C288.9-460.9,288.7-451.3,289-441.7L289-441.7z M74.7-136.7c-0.1-3.8,1.1-5.4,4.9-5.4
						c19.9,0.1,39.8,0,59.8,0c3.1,0,4,1.4,3.9,4.3c-0.6,32.7-30.9,63.2-63.9,64.4c-3.5,0.1-4.7-1.1-4.7-4.5
						c0.1-10,0.1-19.9,0.1-29.9C74.8-117.5,75-127.1,74.7-136.7L74.7-136.7z M220.4-136.9c-0.1-3.7,0.9-5.4,5-5.3
						c19.6,0.1,39.2,0.1,58.8,0c3.7,0,4.9,1.2,4.7,5c-1.9,33.3-29.6,61.4-62.9,63.7c-4.1,0.3-5.7-0.8-5.6-5.1
						c0.2-9.8,0.1-19.6,0.1-29.4C220.5-117.6,220.6-127.2,220.4-136.9L220.4-136.9z M434.6-295.5c0.1,4-1.4,5.2-5.4,4.8
						c-33.3-3.3-58.1-27.2-62.7-60.3c-1.1-8-0.7-8.4,7.5-8.4c18.3,0,36.5,0.1,54.8-0.1c4.3,0,5.9,1.3,5.8,5.7
						c-0.3,9.6-0.1,19.3-0.1,28.9C434.5-315,434.4-305.2,434.6-295.5L434.6-295.5z M366.2-137.1c-0.1-3.6,0.9-5.1,4.7-5
						c19.6,0.1,39.2,0.1,58.9,0c3.7,0,4.9,1.3,4.8,5c-1.1,32.8-30.6,62.3-63.6,63.8c-3.8,0.2-4.9-1.2-4.8-4.9
						c0.2-9.8,0.1-19.6,0.1-29.4S366.4-127.3,366.2-137.1z M289-295.5c0.1,4.1-1.7,5.1-5.5,4.8c-32.8-2.8-59.4-28.7-62.8-61.4
						c-0.7-6.9-0.3-7.4,6.7-7.4c18.6,0,37.2,0.1,55.8-0.1c4.4-0.1,5.8,1.4,5.7,5.7c-0.3,9.6-0.1,19.3-0.1,28.9l0,0
						C288.9-315,288.8-305.2,289-295.5L289-295.5z M289-150.2c0.1,4-1.4,5.1-5.3,5c-32.3-1.6-61.2-30.3-63.1-62.7
						c-0.3-4.3,0.9-6,5.4-5.9c19.1,0.2,38.2,0.2,57.4,0c4.5,0,5.8,1.5,5.7,5.8c-0.2,9.5-0.1,19-0.1,28.4l0,0
						C288.9-169.9,288.8-160.1,289-150.2L289-150.2z M434.6-150.6c0.1,4.1-1.4,5.5-5.5,5.3c-32.3-1.7-61.6-31.2-62.8-63.4
						c-0.1-3.6,0.9-5.2,4.7-5.2c19.6,0.1,39.2,0.1,58.8,0c3.8,0,4.9,1.4,4.9,5c-0.1,9.8,0,19.6,0,29.4
						C434.5-169.9,434.4-160.2,434.6-150.6L434.6-150.6z"/>
					<path class="st2" d="M126.8-0.1c-0.1-2.7-2.5-2.1-3.9-2.6c-26.8-9.3-42.4-28-47.5-55.7c-0.4-2-0.3-4-0.5-6
						c-0.3-3,1.3-4.3,4.1-4.2c20.1,0,40.2,0,60.3,0c2.2,0,4.1,0.6,4.1,3.3c-0.2,21.6,0.7,43.2-0.5,64.7c0,0.2-0.1,0.3-0.1,0.5h-12
						c-0.7-0.6-1.3-1.6-2,0H126.8L126.8-0.1z"/>
					<path class="st2" d="M567-0.1c-1.2-1.7-3.2-1.5-4.9-1.9c-27-7.5-47.6-31.8-49.9-59.1c-0.6-7-0.2-7.5,6.6-7.5
						c18.3,0,36.5,0,54.8,0c2.1,0,4.3,0.5,6.4,0.7c0,21.6,0,43.2,0.1,64.8c0,2.5-0.5,3.2-3.1,3C573.6-0.3,570.3-0.1,567-0.1L567-0.1
						z"/>
					<path class="st3" d="M579.9-565.8c-1.5,1.5-1.4,3.6-1.9,5.5c-7.4,27.3-31.2,47.7-58.8,50.4c-7.2,0.7-7.4,0.6-7.4-6.5
						c0-18.6,0-37.2,0-55.9c0-2.2-0.1-4.3,0.9-6.3c22.4,0,44.8-0.1,67.2-0.1V-565.8z"/>
					<path class="st2" d="M418.3-0.1c0.3-2.7-2.2-2-3.4-2.4c-27.4-9.3-43.4-28.3-48.1-56.8c-0.3-1.6-0.3-3.3-0.5-5
						c-0.3-2.9,1-4.4,3.9-4.4c20.1,0,40.2,0,60.3,0c2.5,0,4.1,1,4.1,3.8c-0.1,21.6-0.2,43.1-0.3,64.7h-13l-0.9-0.6l-0.1,0.6
						L418.3-0.1L418.3-0.1z"/>
					<path class="st2" d="M276.5-0.1c-2.4-1.7-5.3-1.7-7.9-2.7c-27.6-9.6-43.3-29.1-47.8-57.8c-1.2-7.5-0.5-8.1,7-8.1
						c18.3,0,36.6,0.1,54.9-0.1c4.8,0,6.4,1.5,6.3,6.3c-0.4,20.8,0.4,41.5-0.5,62.3L276.5-0.1L276.5-0.1z"/>
					<path class="st3" d="M579.9-419.1c-1.8,1.1-1.6,3.1-2,4.8c-7.6,27.2-31.6,47.4-59.7,49.9c-5.9,0.5-6.4,0.1-6.4-5.6
						c0-19.1,0.1-38.2-0.1-57.3c0-4.2,1-5.9,5.6-5.8c19.3,0.2,38.6,0.1,57.8,0.1c1.7,0,3.3-0.2,4.8,0.9L579.9-419.1L579.9-419.1z"/>
					<path class="st2" d="M579.9-437.1c-1.4,1.2-3,1-4.7,1c-32.3-1.5-61.1-30-63.3-62.3c-0.3-4.8,1-6.4,5.9-6.4
						c19.1,0.2,38.2,0.1,57.3,0.1c1.7,0,3.3,0,4.8,0.9V-437.1L579.9-437.1z"/>
					<path class="st4" d="M439.2-0.1c-1.9-3.2-0.5-6.5,0-9.7c4.8-33.4,32.1-55.8,61-58.2c6.4-0.5,6.8,0,6.8,6.4
						c0,18.2,0,36.5,0,54.8c0,2.3,0.3,4.7-0.9,6.8L439.2-0.1L439.2-0.1z"/>
					<path class="st3" d="M579.9-275.5c-1.6,4.8-2.9,9.8-4.9,14.4c-11.1,25-30.5,39-57.6,42.2c-4,0.5-5.7-0.6-5.6-5
						c0.2-19.6,0.1-39.2,0-58.7c0-3.5,0.8-5.1,4.7-5c19.8,0.2,39.5,0.1,59.2,0.1c1.5,0,3-0.2,4.2,1.1V-275.5L579.9-275.5z"/>
					<path class="st4" d="M293.5-0.1c-1.6-8.3,0.6-16.2,3.6-23.7c9.7-24.1,27.4-39,53.1-43.9c1.9-0.4,4-0.3,5.9-0.5
						c3.9-0.5,5.3,1.2,5.3,5.1c-0.1,19.4,0,38.8,0,58.2c0,1.7-0.1,3.3-1,4.8L293.5-0.1L293.5-0.1z"/>
					<path class="st4" d="M1.2-7.4C3.1-13,3.9-19,6-24.6c8.8-23.7,33.4-42.2,57.8-43.6c4.9-0.3,6.3,1.2,6.3,6
						C69.9-43.3,70-24.4,70-5.4c0,1.8,0.1,3.7-1,5.3H1.1L1.2-7.4L1.2-7.4z"/>
					<path class="st4" d="M147.8-0.1c-1.2-8.5,0.9-16.4,3.8-24.2c8.9-24.2,33.5-42.7,57.9-43.9c4.3-0.2,6.3,0.6,6.2,5.6
						c-0.3,18.9-0.1,37.8-0.1,56.7c0,2,0.2,4-1,5.8H147.8L147.8-0.1z"/>
					<path class="st2" d="M579.9-291.4c-3.7,2-7.6,0.4-11.2-0.1c-29.7-4.2-54.9-31.8-56.7-61.6c-0.4-5.8,0-6.2,5.9-6.2
						c18.9,0,37.9,0,56.8,0c1.8,0,3.7-0.3,5.2,1.1V-291.4L579.9-291.4z"/>
					<path class="st3" d="M579.9-128.8c-1.6,1.4-1.5,3.5-2,5.4c-7.7,27.6-32,47.7-60.2,49.9c-4.3,0.3-5.9-0.7-5.9-5.3
						c0.2-19.5,0.1-38.9,0.1-58.4c0-2.7,0.1-5,3.8-5c21.4,0.2,42.9,0.2,64.3,0.4L579.9-128.8L579.9-128.8z"/>
					<path class="st2" d="M579.9-145.8c-5.9,1.3-11.5-0.2-17.2-1.6c-27.9-7-49.5-33.1-50.8-61c-0.1-3.2,0-5.5,4.2-5.5
						c21.3,0.2,42.5,0.2,63.8,0.3V-145.8L579.9-145.8z"/>
					<path class="st5" d="M1.2-7.4L1-0.1C0.7-0.3,0,0.4,0-0.6c0-1.3,0-2.7,0-4C0.1-194.8,0.1-385,0-575.3c0-3.7,0.8-4.5,4.6-4.5
						c190.3,0.1,380.6,0.1,570.9,0.2c1.5,0,3.4-1.1,4.5,0.9c-22.4,0-44.8,0.1-67.2,0.1c-21.8,0-43.6,0-65.5,0c-2.7,1.5-5.3-1.1-8,0
						c-1.9,0-3.7,0-5.6,0c-22.2,0-44.3,0-66.5,0c-21.6,0-43.2,0-64.8,0c-3,0-5.9,0-8.8,0c-1.8,0-3.6,0-5.5,0c-22.2,0-44.4,0-66.7,0
						c-21.8,0-43.7,0-65.5,0c-2.6,0-5.3,0-7.9,0c-1.8,0-3.7,0-5.5,0c-22.2,0-44.4,0-66.6,0c-22.1,0-44.1,0-66.2,0
						c-3.3,0.7-8.7-3-8.6,4.3c0.1,21.3,0.1,42.5,0.1,63.8c0,22.3,0,44.7,0,67c0,2.2,0,4.5,0,6.7c0,1.6,0,3.2,0,4.8
						c0,22.3,0,44.6,0,66.9c0,22.2,0,44.3,0,66.5c0,2.5,0,4.9,0,7.3c0,1.5,0,3.1,0,4.6c0,22.4,0,44.8,0,67.1c0,22.2,0,44.4,0,66.5
						c0,2.2,0,4.5,0,6.7c0,1.7,0,3.3,0,5c0,22.4,0,44.8,0,67.1V-7.4L1.2-7.4z"/>
					<path class="st1" d="M128.8-0.1c0.7-1.6,1.3-0.6,2,0H128.8z"/>
					<path class="st1" d="M420.2-0.1l0.1-0.6l0.9,0.6H420.2z"/>
					<path class="st6" d="M181.2-73.4c-9.3,0-18.6-0.2-27.9,0.1c-4.7,0.2-6.4-1.2-6.4-6.1c0.2-19,0.2-37.9,0-56.9
						c-0.1-4.7,1.4-6,6.1-5.7c30.5,2.1,57,26.7,61.7,57.4c1.2,7.5-2,11.3-9.6,11.3C197.2-73.3,189.2-73.3,181.2-73.4L181.2-73.4
						L181.2-73.4z"/>
					<path class="st6" d="M326.9-73.4c-9.5,0-19-0.2-28.4,0.1c-4.2,0.1-5.9-1.1-5.9-5.6c0.2-19.3,0.1-38.6,0-57.9
						c0-4.1,1.3-5.5,5.5-5.2c32.7,1.8,61.6,30.8,63.1,63.3c0.2,3.8-0.9,5.5-4.9,5.4C346.5-73.5,336.7-73.4,326.9-73.4L326.9-73.4z"
						/>
					<path class="st2" d="M109.4-504.8c9.5,0,18.9,0.1,28.4-0.1c3.9-0.1,5.8,1,5.7,5.3c-0.1,19.4-0.1,38.9,0,58.3
						c0,4.2-1.6,5.4-5.7,5.1c-32.3-2.3-59.7-29.1-62.7-61.4c-0.6-6.8-0.2-7.2,6.4-7.2C90.7-504.8,100.1-504.7,109.4-504.8
						L109.4-504.8z"/>
					<path class="st6" d="M438.3-107.9c0-9.5,0.2-18.9-0.1-28.4c-0.1-4.7,1.4-6,6-5.8c30.2,1.9,57.7,27.3,61.9,57.7
						c1.7,12.3,1.8,11-9.3,11c-17.6,0-35.2-0.1-52.8,0.1c-4.3,0-5.9-1.3-5.8-5.7C438.5-88.6,438.3-98.2,438.3-107.9L438.3-107.9z"/>
					<path class="st6" d="M1.2-219.5c0-22.4,0-44.8,0-67.1c5.2-1.9,10.2-0.3,15.2,0.7c28.9,6.3,50.6,31.1,53.4,60.5
						c0.6,6.1,0.1,6.8-5.8,6.8c-19,0-37.9,0-56.8,0C5.1-218.8,3.2-219.3,1.2-219.5L1.2-219.5z"/>
					<path class="st6" d="M147-253c0-9.5,0-18.9,0-28.4c0-6,0.4-6.4,6.1-6c30,2,57.2,27.1,61.5,56.9c1.1,7.9-2.2,11.8-9.9,11.8
						c-17.3,0-34.6-0.1-51.8,0.1c-4.6,0.1-6.2-1.4-6-6C147.2-234.1,147-243.5,147-253L147-253z"/>
					<path class="st6" d="M326.7-218.7c-9.6,0-19.3-0.1-28.9,0.1c-3.9,0.1-5.2-1.4-5.2-5.3c0.1-19.4,0.2-38.9,0-58.3
						c0-4.7,1.9-5.5,6-5.2c30.6,2.3,57.2,26.8,61.8,57.2c1.2,7.7-2.1,11.5-9.8,11.5c-4,0-8,0-12,0S330.7-218.7,326.7-218.7
						L326.7-218.7z"/>
					<path class="st4" d="M507-179.6c0,9.6-0.1,19.3,0,28.9c0.1,4.1-1.7,5.8-5.6,5.7c-19.5,0-38.9,0-58.4,0c-3.7,0-5.1-1.8-4.8-5.3
						c2.9-34.4,29.7-60.3,62-63.4c6-0.6,6.7,0.2,6.7,6.1C507-198.2,507-188.9,507-179.6L507-179.6z"/>
					<path class="st6" d="M438.3-253.5c0-9.5,0.2-18.9-0.1-28.4c-0.1-4.4,1.3-5.9,5.7-5.6c32.5,1.8,61.5,31.2,63,63.9
						c0.1,3.4-0.8,5-4.4,4.9c-19.9-0.1-39.9-0.1-59.8,0c-3.6,0-4.5-1.7-4.5-5C438.4-233.6,438.3-243.5,438.3-253.5L438.3-253.5
						L438.3-253.5z"/>
					<path class="st2" d="M108.9-359.3c9.8,0,19.6,0.1,29.4-0.1c3.9-0.1,5.2,1.4,5.2,5.3c-0.1,19.4-0.1,38.9,0,58.3
						c0,4.3-1.7,5.5-5.7,5.2c-32.7-2.4-60.3-29.8-62.8-62.5c-0.4-5.6,0.1-6.2,5.9-6.2C90.2-359.4,99.6-359.3,108.9-359.3
						L108.9-359.3z"/>
					<path class="st4" d="M361.4-179.3c0,9.5-0.1,18.9,0,28.4c0.1,4.1-1.1,6-5.6,6c-18.6-0.2-37.2,0-55.8-0.1
						c-7.1,0-7.4-0.5-6.8-7.3c2.9-32.2,29-58.4,61.4-61.3c5.9-0.5,6.8,0.2,6.8,6C361.4-198.2,361.4-188.7,361.4-179.3L361.4-179.3z"
						/>
					<path class="st6" d="M1.2-365.1c0-22.3,0-44.6,0-66.9c3.9-2,7.9-0.6,11.7,0c30.2,4.6,54.9,31.6,56.9,62.2
						c0.3,3.9-0.5,5.8-5,5.8c-19.6-0.2-39.2-0.1-58.9-0.1C4.3-364.2,2.7-364.4,1.2-365.1L1.2-365.1z"/>
					<path class="st6" d="M326.8-364.2c-9.6,0-19.3-0.1-28.9,0.1c-3.8,0.1-5.3-1.2-5.3-5.2c0.1-19.4,0.1-38.9,0-58.3
						c0-4.5,1.6-5.8,6-5.4c33.1,3,59.5,29.2,62.6,62.1c0.6,6,0,6.6-5.9,6.6C345.8-364.2,336.3-364.2,326.8-364.2L326.8-364.2z"/>
					<path class="st3" d="M75.8-578.6c22.2,0,44.4,0,66.6,0c1.8,3.7,0.7,7.6,0.1,11.2c-4.4,29.9-29.3,53.8-59.4,57.3
						c-8.2,1-8.3,0.8-8.3-7.5c0-18.3,0-36.5,0-54.8C74.8-574.5,74.7-576.6,75.8-578.6L75.8-578.6z"/>
					<path class="st6" d="M147-398.6c0-9.8,0.1-19.6-0.1-29.4c-0.1-4,1.5-5.2,5.4-5c32.7,1.9,61.5,30.8,63.3,63.6
						c0.2,4-1.1,5.3-5,5.3c-19.4-0.1-38.9-0.2-58.3,0c-4.3,0-5.4-1.7-5.3-5.6C147.1-379.4,147-389,147-398.6L147-398.6z"/>
					<path class="st4" d="M472.6-290.5c-9.6,0-19.3-0.1-28.9,0c-4.5,0.1-5.8-1.8-5.3-6.1c3.9-33.7,27-57.6,60.6-62.5
						c6.9-1,7.9-0.2,7.9,6.7c0,18.6-0.1,37.2,0.1,55.8c0,4.6-1.5,6.2-6,6.1C491.6-290.6,482.1-290.5,472.6-290.5L472.6-290.5z"/>
					<path class="st4" d="M215.6-179.5c0,9.6-0.1,19.3,0.1,28.9c0.1,4-1.4,5.7-5.5,5.7c-18.4-0.1-36.9,0.1-55.3-0.1
						c-8-0.1-8.1-0.4-7.2-8.3c3.5-31.5,29.1-57,60.5-60.2c6.9-0.7,7.5-0.2,7.5,6.6C215.6-197.8,215.6-188.7,215.6-179.5L215.6-179.5
						z"/>
					<path class="st4" d="M1.2-146.3c0-2.2,0-4.5,0-6.7c2.5-10.5,5.2-20.9,11.4-30c12.1-17.8,28.9-28,50.2-30.6c6.2-0.8,7,0.1,7,6.2
						c0,18.6-0.1,37.2,0.1,55.8c0.1,4.9-2,6.5-6.3,6.5c-13,0-25.9,0-38.9-0.1c-6,0-11.9-0.1-17.9,0.1C4.9-145,3-145.3,1.2-146.3
						L1.2-146.3z"/>
					<path class="st4" d="M361.4-324.3c0,9.5-0.1,18.9,0.1,28.4c0.1,4.1-1.4,5.5-5.5,5.5c-19.1-0.1-38.2,0-57.3-0.1
						c-5.5,0-6.3-1.1-5.6-6.6c4.2-33.5,27.3-57.2,60.6-61.9c6.9-1,7.8-0.2,7.8,6.8C361.4-342.9,361.4-333.6,361.4-324.3L361.4-324.3
						z"/>
					<path class="st4" d="M1.2-291.3c0-2.4,0-4.9,0-7.3c1.5-2.5,1.4-5.4,2.1-8.1c6.9-28.4,30.8-49.4,59.8-52.4
						c5.9-0.6,6.8,0.1,6.8,5.9c0,18.9-0.1,37.9,0.1,56.8c0.1,4.6-1.7,6.1-6.1,6.1c-19.1-0.1-38.2,0-57.3-0.1
						C4.8-290.5,3-291,1.2-291.3z"/>
					<path class="st2" d="M109.4-213.8c9.5,0,18.9,0.1,28.4-0.1c4-0.1,5.7,1.1,5.7,5.3c-0.1,19.4-0.1,38.9-0.1,58.3
						c0,3.7-1.2,5.4-5.3,5.1c-32.8-2.4-59.6-28.3-63.1-61c-0.8-7.2-0.4-7.6,6.9-7.6C91.2-213.8,100.3-213.9,109.4-213.8L109.4-213.8
						L109.4-213.8z"/>
					<path class="st3" d="M221.4-578.6c22.2,0,44.5,0,66.7,0c1.7,5.7,0.3,11.2-1,16.7c-6.6,27.5-29.3,47.8-57.4,51.8
						c-1.8,0.3-3.6,0.2-5.5,0.4c-2.8,0.3-3.9-1.1-3.9-3.8c0-20.4,0-40.8,0.1-61.3C220.5-576.1,221.1-577.4,221.4-578.6L221.4-578.6z
						"/>
					<path class="st3" d="M367.2-578.6c22.2,0,44.3,0,66.5,0c1.7,3.6,0.8,7.2,0.3,10.8c-4.5,30.1-28.8,53.8-59,57.8
						c-1.8,0.2-3.6,0.2-5.5,0.3c-2,0.1-3.2-0.6-3.2-2.8c0-21.2,0-42.5,0.1-63.8C366.3-577.1,366.9-577.8,367.2-578.6L367.2-578.6z"
						/>
					<path class="st6" d="M472.6-364.2c-9.5,0-18.9-0.2-28.4,0.1c-4.2,0.1-6-1.1-5.9-5.6c0.2-19.4,0.2-38.9,0-58.3
						c0-4,1.4-5.2,5.3-5c33.5,2.3,61.7,30.8,63.3,64.1c0.2,3.5-1,4.8-4.4,4.8C492.5-364.2,482.5-364.2,472.6-364.2L472.6-364.2z"/>
					<path class="st4" d="M215.6-324.6c0,9.5-0.1,19,0.1,28.4c0.1,4-1.2,5.7-5.4,5.7c-19.3-0.1-38.6-0.1-57.9,0
						c-4.3,0-5.6-1.9-5.2-5.8c2.9-33.2,28.3-59.2,61.4-62.9c6.2-0.7,7,0,7.1,6.1C215.6-343.5,215.6-334,215.6-324.6L215.6-324.6z"/>
					<path class="st6" d="M1.2-510.5c0-21.2,0-42.5-0.1-63.7c0-7.4,5.4-3.6,8.6-4.4c7.8,2.4,16,3.7,23.3,7.8
						c22,12.2,34.2,30.7,36.9,55.6c0.4,3.6-0.3,5.6-4.6,5.6c-19.9-0.1-39.8,0-59.7-0.1C4.1-509.7,2.6-510.2,1.2-510.5z"/>
					<path class="st3" d="M74.8-398.5c0-9.8,0.1-19.6-0.1-29.4c-0.1-3.9,1.3-5.2,5.2-5.2c19.5,0.2,38.9,0.1,58.3,0
						c3.9,0,5.2,1.2,4.9,5.2c-2.1,33.1-29.1,60.8-62.2,63.5c-5.8,0.5-6.3,0.1-6.3-5.8C74.8-379.6,74.8-389.1,74.8-398.5z"/>
					<path class="st6" d="M147.9-578.6c2.6,0,5.3,0,7.9,0c1.5,1.6,3.7,1.3,5.5,1.7c29.4,6.2,51.6,31.5,54.1,61.4
						c0.4,4.2-0.7,6-5.3,6c-19.3-0.2-38.5-0.2-57.8,0c-4.1,0-5.5-1.3-5.5-5.4c0.1-19.4,0.1-38.8,0.1-58.3
						C147-575.1,147.3-576.9,147.9-578.6L147.9-578.6z"/>
					<path class="st6" d="M293.6-578.6c3,0,5.9,0,8.8,0c1.1,1.6,3,1.2,4.5,1.6c29.4,6.3,51.5,31.1,54.2,60.9c0.5,5.9,0,6.5-6.1,6.5
						c-18.8,0-37.6-0.1-56.3,0.1c-4.5,0.1-6.2-1.1-6.1-5.9c0.2-18.9,0.1-37.9,0.1-56.8C292.7-574.5,292.8-576.6,293.6-578.6
						L293.6-578.6z"/>
					<path class="st4" d="M472.2-436c-9.6,0-19.3-0.1-28.9,0.1c-4,0.1-5.3-1.4-4.9-5.4c3.3-34.1,28.6-59.9,62.4-63.3
						c4.1-0.4,6.2,0.7,6.2,5.3c-0.1,19.4-0.1,38.8,0,58.3c0,3.9-1.7,5.2-5.4,5.1C491.8-436.1,482-436,472.2-436L472.2-436z"/>
					<path class="st6" d="M1.2-74.1c0-22.4,0-44.8,0-67.1c6.8-1.9,13.2,0.1,19.6,1.9c26.8,7.6,46.7,32,49.1,59.9
						c0.4,4.4-0.4,6.3-5.4,6.2c-19.4-0.3-38.9-0.1-58.3-0.1C4.5-73.4,2.8-73.9,1.2-74.1L1.2-74.1z"/>
					<path class="st4" d="M361.4-470.3c0,9.6-0.1,19.3,0.1,28.9c0.1,4.1-1.5,5.5-5.6,5.5c-19.3-0.1-38.5-0.1-57.8,0
						c-4.2,0-5.6-1.4-5.1-5.7c3.4-31.7,23.1-54.8,54.3-61.6c16.4-3.6,14-3.4,14.1,10.4C361.4-485.3,361.4-477.8,361.4-470.3
						L361.4-470.3z"/>
					<path class="st3" d="M220.4-398.7c0-9.8,0.1-19.6-0.1-29.4c-0.1-3.6,1.1-5,4.9-5c19.6,0.1,39.2,0.1,58.8,0c4.1,0,5,1.6,4.8,5.4
						c-2.3,33.1-28.8,60.3-61.8,63.3c-6.1,0.6-6.6,0.2-6.6-5.9C220.4-379.8,220.5-389.2,220.4-398.7L220.4-398.7z"/>
					<path class="st6" d="M439.3-578.6c2.7-1.1,5.3,1.6,8,0c2.9,1.9,6.3,1.6,9.4,2.6c28.2,8.2,47.8,31.9,50.2,61.1
						c0.3,3.9-0.8,5.4-4.8,5.4c-19.6-0.1-39.2-0.1-58.8,0c-3.7,0-5-1.3-5-4.9c0.1-19.8,0-39.5,0.1-59.3
						C438.4-575.4,438.9-577,439.3-578.6L439.3-578.6z"/>
					<path class="st4" d="M215.6-470.5c0,9.8-0.1,19.6,0.1,29.4c0.1,3.9-1.4,5.2-5.3,5.2c-19.4-0.1-38.8-0.1-58.3,0
						c-4.4,0-5.4-1.9-4.9-5.9c4.1-34.5,27.5-58.3,61.9-62.7c5.4-0.7,6.5,0.2,6.6,5.6C215.7-489.5,215.6-480,215.6-470.5L215.6-470.5
						z"/>
					<path class="st4" d="M1.2-436.9c0-2.2,0-4.5,0-6.7c2.1-7.3,3.3-14.8,6.7-21.8c11.6-23.3,30.4-36.2,56.1-39.3
						c4.3-0.5,6,1.1,5.9,5.5c-0.2,19.3-0.1,38.5,0,57.8c0,3.7-1.1,5.4-5.1,5.4c-19.8-0.1-39.5,0-59.3-0.1
						C4.1-436.1,2.7-436.6,1.2-436.9L1.2-436.9z"/>
					<path class="st3" d="M108.9-287.5c10,0,19.9,0.1,29.9,0c3.4,0,4.6,1,4.5,4.6c-1.5,33.3-30.6,62.7-63.7,64.2
						c-3.4,0.1-4.8-0.9-4.8-4.4c0.1-19.9,0.1-39.9,0-59.8c0-3.5,1.3-4.6,4.7-4.6C89.2-287.4,99.1-287.5,108.9-287.5L108.9-287.5z"/>
					<path class="st3" d="M366.2-398.7c0-9.8,0.1-19.6-0.1-29.4c-0.1-3.6,0.9-5.1,4.7-5c19.6,0.1,39.2,0.2,58.8,0
						c4.2,0,5,1.6,4.8,5.4c-1.7,32.7-30.1,61.4-62.8,63.4c-3.9,0.2-5.8-0.6-5.6-5C366.5-379.1,366.3-388.9,366.2-398.7L366.2-398.7z
						"/>
					<path class="st3" d="M255.1-287.5c9.8,0,19.6,0.1,29.4,0c3.6-0.1,4.6,1.3,4.4,4.8c-1.5,33.1-29.8,61.8-63.3,64
						c-4,0.3-5.3-1-5.3-5c0.1-19.6,0.1-39.2,0-58.8c0-4,1.5-5.1,5.3-5C235.5-287.4,245.3-287.5,255.1-287.5L255.1-287.5z"/>
					<path class="st2" d="M434.5-469.9c0,9.6-0.1,19.3,0.1,28.9c0.1,4-1.5,5.1-5.4,4.9c-32.1-1.6-61.4-30.8-63-62.9
						c-0.2-4.3,1-5.9,5.5-5.9c19.1,0.2,38.2,0.2,57.4,0c4.1,0,5.6,1.3,5.5,5.4C434.4-489.6,434.5-479.8,434.5-469.9L434.5-469.9
						L434.5-469.9z"/>
					<path class="st3" d="M366.2-253.2c0-9.8,0.1-19.6-0.1-29.4c-0.1-3.6,0.9-5,4.7-5c19.6,0.2,39.2,0.2,58.8,0c4.1,0,5,1.5,4.8,5.3
						c-1.7,32.8-30.3,61.5-63.2,63.5c-4,0.2-5.2-1.2-5.1-5.1C366.4-233.6,366.2-243.4,366.2-253.2L366.2-253.2z"/>
					<path class="st2" d="M288.9-470.5c0,9.6-0.2,19.3,0.1,28.9c0.1,4.3-1.1,5.9-5.6,5.6c-32.1-2.3-59.8-29.4-62.6-61.6
						c-0.6-6.7-0.2-7.2,6.4-7.2c18.6,0,37.2,0.1,55.8-0.1c4.5-0.1,6.2,1.2,6,5.9C288.7-489.5,288.9-480,288.9-470.5L288.9-470.5z"/>
					<path class="st3" d="M74.8-107.8c0-9.6,0.2-19.3-0.1-28.9c-0.1-3.8,1.1-5.4,4.9-5.4c19.9,0.1,39.8,0,59.8,0
						c3.1,0,4,1.4,3.9,4.3c-0.6,32.7-30.9,63.2-63.9,64.4c-3.5,0.1-4.7-1.1-4.7-4.5C74.9-87.9,74.8-97.9,74.8-107.8L74.8-107.8z"/>
					<path class="st3" d="M220.4-108c0-9.6,0.1-19.3-0.1-28.9c-0.1-3.7,0.9-5.4,5-5.3c19.6,0.1,39.2,0.1,58.8,0c3.7,0,4.9,1.2,4.7,5
						c-1.9,33.3-29.6,61.4-62.9,63.7c-4.1,0.3-5.7-0.8-5.6-5.1C220.6-88.4,220.5-98.2,220.4-108L220.4-108z"/>
					<path class="st2" d="M434.5-324.8c0,9.8-0.1,19.6,0,29.4c0.1,4-1.4,5.2-5.4,4.8c-33.3-3.3-58.1-27.2-62.7-60.3
						c-1.1-8-0.7-8.4,7.5-8.4c18.3,0,36.5,0.1,54.8-0.1c4.3,0,5.9,1.3,5.8,5.7C434.3-344.1,434.5-334.5,434.5-324.8L434.5-324.8z"/>
					<path class="st3" d="M366.2-107.7c0-9.8,0.1-19.6-0.1-29.4c-0.1-3.6,0.9-5.1,4.7-5c19.6,0.1,39.2,0.1,58.9,0
						c3.7,0,4.9,1.3,4.8,5c-1.1,32.8-30.6,62.3-63.6,63.8c-3.8,0.2-4.9-1.2-4.8-4.9C366.4-88.1,366.2-97.9,366.2-107.7L366.2-107.7z
						"/>
					<path class="st2" d="M288.9-324.8c0,9.8-0.1,19.6,0.1,29.4c0.1,4.1-1.7,5.1-5.5,4.8c-32.8-2.8-59.4-28.7-62.8-61.4
						c-0.7-6.9-0.3-7.4,6.7-7.4c18.6,0,37.2,0.1,55.8-0.1c4.4-0.1,5.8,1.4,5.7,5.7C288.7-344.1,288.9-334.5,288.9-324.8L288.9-324.8
						L288.9-324.8z"/>
					<path class="st2" d="M288.9-179.7c0,9.8-0.1,19.6,0.1,29.4c0.1,4-1.4,5.1-5.3,5c-32.3-1.6-61.2-30.3-63.1-62.7
						c-0.3-4.3,0.9-6,5.4-5.9c19.1,0.2,38.3,0.2,57.4,0c4.5,0,5.8,1.5,5.7,5.8C288.8-198.6,288.9-189.2,288.9-179.7L288.9-179.7
						L288.9-179.7z"/>
					<path class="st2" d="M434.5-179.5c0,9.6-0.1,19.3,0.1,28.9c0.1,4.1-1.4,5.5-5.5,5.3c-32.3-1.7-61.6-31.2-62.8-63.4
						c-0.1-3.6,0.9-5.2,4.7-5.2c19.6,0.1,39.2,0.1,58.8,0c3.8,0,4.9,1.4,4.9,5C434.4-199.1,434.5-189.3,434.5-179.5L434.5-179.5z"/>
				</g>
			</g>
		</g>
	</g>
</pattern>
<g>
	<g>
		<path class="st5" d="M53.1,405.4c1,0,1.3,1.2,1.6,8.2c0.3,6,0.7,10.6,1.8,12.3c3.4,5.1,6.3,7.2,10.1,7.2
			c13.3,0,13.3-23.9,13.3-36.7v-29.7c0-33.3-0.3-53.1-2.1-56.7c-1.1-2.2-4-2.9-8.1-2.9c-3.1,0-3.7,0-3.7-2.4v-3.4
			c0-1.2,0.4-1.7,1.4-1.7H102c0.7,0,1.1,0.2,1.1,1.5v3.9c0,2.2-0.9,2.2-2.7,2.2c-8.8,0.2-9,0.2-9,28.2v10.1c0.1,6,0.6,34.8,0.6,41.3
			c0,25.3-1,31.4-6.6,42c-5.8,8.9-12,12.3-21.8,12.3c-4.3,0-7.3-0.5-14-3.1v-30.4c0-1.2,0.3-2.2,0.9-2.2L53.1,405.4L53.1,405.4z"/>
		<path class="st5" d="M147.2,296.8h5.4l3.4,13.8c4.3,16.9,26.8,104.5,30.8,114.9c1.3,3.4,3.1,5.3,5,5.3c2.7,0,3,0.7,3,2.4v3.1
			c0,1.7-0.6,2.2-1.6,2.2l-32.2,0.2c-0.3,0-1.1-1.2-1.1-2.4l0.1-3.6c0-1,0.6-1.9,1-1.9h3.4c4,0,6.1-2.2,6.1-7c0-2.4-0.4-5.3-1.3-8.9
			l-5-20.8h-36.1l-5.7,23.9c-0.4,1.9-0.7,3.9-0.7,5.5c0,4.6,2.1,7.2,5.7,7.2h3.1c0.9,0,1.3,0.7,1.3,2.4v3.4c0,1.2-0.4,1.9-0.9,1.9
			l-27.1,0.2c-0.7,0-1-0.7-1-2.4v-3.6c0-1.2,0.3-1.9,1.3-1.9c3.8,0,6,0,11.3-19.3L147.2,296.8L147.2,296.8z M146.6,323.1l-16.1,62.3
			h31.7L146.6,323.1z"/>
		<path class="st5" d="M248.6,310.3h-27.5c-8.6,0-11.3,4.3-11.4,18.6c0,2.9-0.3,3.6-1.1,3.6c-3,0-3-0.5-3-5.1V303
			c0-3.4,0.3-3.4,2.4-3.4h53.8c2,0,2.3,0,2.3,1.2v5.5c0,1-0.1,1.9-0.7,3.1l-14.1,36.2l-31.5,82.1h15.6c16.1,0,21.4-1,23.1-4.1
			c1.1-2.6,2.3-9.4,2.3-15.7c0.1-2.9,0.3-4.8,0.6-4.8h3.4c0.6,0,0.9,1.9,0.9,5.3v27c0,2.2-0.4,2.9-1.6,2.9l-59.2,0.2
			c-0.4,0-1-0.7-1-1.2v-6.8l7.6-18.4c12.3-30.2,23.4-58.9,34.2-87.9L248.6,310.3L248.6,310.3z"/>
		<path class="st5" d="M317,310.3h-27.5c-8.6,0-11.3,4.3-11.4,18.6c0,2.9-0.3,3.6-1.1,3.6c-3,0-3-0.5-3-5.1V303
			c0-3.4,0.3-3.4,2.4-3.4h53.8c2,0,2.3,0,2.3,1.2v5.5c0,1-0.1,1.9-0.7,3.1l-14.1,36.2L286,427.9h15.5c16.1,0,21.4-1,23.1-4.1
			c1.1-2.6,2.3-9.4,2.3-15.7c0.1-2.9,0.3-4.8,0.6-4.8h3.4c0.6,0,0.9,1.9,0.9,5.3v27c0,2.2-0.4,2.9-1.6,2.9l-59.2,0.2
			c-0.4,0-1-0.7-1-1.2v-6.8l7.6-18.4c12.3-30.2,23.4-58.9,34.2-87.9L317,310.3L317,310.3z"/>
	</g>
	<g>
		<rect y="1" class="st7" width="375" height="509.6"/>
		
			<pattern  id="SVGID_00000124859978859668434940000008129676538677919368_" xlink:href="#SVGID_1_" patternTransform="matrix(1 0 0 1 -203.51 14712.9873)">
		</pattern>
		<rect y="1" style="fill:url(#SVGID_00000124859978859668434940000008129676538677919368_);" width="375" height="509.6"/>
	</g>
	<path class="st5" d="M358.1,198.3c-2.3,10.1-9,11.4-9,11.4l-170.6,85c-28.2-36.4-50.7-24.1-50.7-24.1c-11.8,2.9-25.7,27-25.7,27
		c-8.7,9.7-20.5,6.7-20.5,6.7c-8.6-2.9-27.3-5.9-27.3-5.9C15,294,0,314.5,0,314.5V526h375V188.9
		C367.3,197.5,358.1,198.3,358.1,198.3z M143.8,313.4c-5.6,0-10.2-4.6-10.2-10.4s4.6-10.4,10.2-10.4S154,297.3,154,303
		S149.4,313.4,143.8,313.4z"/>
	<path class="st9" d="M275.1,404.1H98.9c-15.8,0-28.6-12.8-28.6-28.6l0,0c0-15.8,12.8-28.6,28.6-28.6h176.3
		c15.8,0,28.6,12.8,28.6,28.6l0,0C303.7,391.3,290.9,404.1,275.1,404.1z"/>
	<text transform="matrix(1 0 0 1 101.3657 384.8138)" class="st10 st11">En savoir Plus</text>
</g>
</svg>
