<?xml version="1.0" encoding="utf-8"?>
<!-- Generator: Adobe Illustrator 26.1.0, SVG Export Plug-In . SVG Version: 6.00 Build 0)  -->
<svg version="1.1" id="Calque_1" xmlns="http://www.w3.org/2000/svg" xmlns:xlink="http://www.w3.org/1999/xlink" x="0px" y="0px"
	 viewBox="0 0 375 445" style="enable-background:new 0 0 375 445;" xml:space="preserve">
<style type="text/css">
	.st0{fill:none;}
	.st1{fill:#521311;}
	.st2{fill:#D94527;}
	.st3{fill:#F6BD40;}
	.st4{fill:#B12A31;}
	.st5{fill:#FFFFFF;}
	.st6{fill:#EB7329;}
	.st7{fill:#FFE4BD;}
	.st8{fill:url(#SVGID_1_);}
	.st9{fill:#EE732B;}
	.st10{font-family:'Karmina-Bold';}
	.st11{font-size:30px;}
</style>
<pattern  y="485" width="580" height="580" patternUnits="userSpaceOnUse" id="d" viewBox="0 -580 580 580" style="overflow:visible;">
	<g>
		<rect y="-580" class="st0" width="580" height="580"/>
		<g>
			<rect y="-580" class="st0" width="580" height="580"/>
			<g>
				<path class="st1" d="M151.6-555.7c8.9,24.2,33.5,42.7,57.9,43.9c4.3,0.2,6.3-0.6,6.2-5.6c-0.3-18.9-0.1-37.8-0.1-56.7
					c0-2,0.2-4-1-5.8h61.9c-2.4,1.7-5.3,1.7-7.9,2.7c-27.6,9.6-43.3,29.1-47.8,57.8c-1.2,7.5-0.5,8.1,7,8.1
					c18.3,0,36.6-0.1,54.9,0.1c4.8,0,6.4-1.5,6.3-6.3c-0.4-20.8,0.4-41.5-0.5-62.3h5c-1.6,8.3,0.6,16.2,3.6,23.7
					c9.7,24.1,27.4,39,53.1,43.9c1.9,0.4,4,0.3,5.9,0.5c3.9,0.5,5.3-1.2,5.3-5.1c-0.1-19.4,0-38.8,0-58.2c0-1.7-0.1-3.3-1-4.8h57.9
					c0.3,2.7-2.2,2-3.4,2.4c-27.4,9.3-43.4,28.3-48.1,56.8c-0.3,1.6-0.3,3.3-0.5,5c-0.3,2.9,1,4.4,3.9,4.4c20.1,0,40.2,0,60.3,0
					c2.5,0,4.1-1,4.1-3.8c-0.1-21.6-0.2-43.1-0.3-64.7h5c-1.9,3.2-0.5,6.5,0,9.7c4.8,33.4,32.1,55.8,61,58.2c6.4,0.5,6.8,0,6.8-6.4
					c0-18.2,0-36.5,0-54.8c0-2.3,0.3-4.7-0.9-6.8H567c-1.2,1.7-3.2,1.5-4.9,1.9c-27,7.5-47.6,31.8-49.9,59.1c-0.6,7-0.2,7.5,6.6,7.5
					c18.3,0,36.5,0,54.8,0c2.1,0,4.3-0.5,6.4-0.7v60.9c-1.6-1.4-1.5-3.5-2-5.4c-7.7-27.6-32-47.7-60.2-49.9
					c-4.3-0.3-5.9,0.7-5.9,5.3c0.2,19.5,0.1,38.9,0.1,58.4c0,2.7,0.1,5,3.8,5c21.4-0.2,42.9-0.2,64.3-0.4v4
					c-5.9-1.3-11.5,0.2-17.2,1.6c-27.9,7-49.5,33.1-50.8,61c-0.1,3.2,0,5.5,4.2,5.5c21.3-0.2,42.5-0.2,63.8-0.3v61.9
					c-1.6-4.8-2.9-9.8-4.9-14.4c-11.1-25-30.5-39-57.6-42.2c-4-0.5-5.7,0.6-5.6,5c0.2,19.6,0.1,39.2,0,58.7c0,3.5,0.8,5.1,4.7,5
					c19.8-0.2,39.5-0.1,59.2-0.1c1.5,0,3,0.2,4.2-1.1v5c-3.7-2-7.6-0.4-11.2,0.1c-29.7,4.2-54.9,31.8-56.7,61.6
					c-0.4,5.8,0,6.2,5.9,6.2c18.9,0,37.9,0,56.8,0c1.8,0,3.7,0.3,5.2-1.1v60.9c-1.8-1.1-1.6-3.1-2-4.8
					c-7.6-27.2-31.6-47.4-59.7-49.9c-5.9-0.5-6.4-0.1-6.4,5.6c0,19.1,0.1,38.2-0.1,57.3c0,4.2,1,5.9,5.6,5.8
					c19.3-0.2,38.6-0.1,57.8-0.1c1.7,0,3.3,0.2,4.8-0.9v5c-1.4-1.2-3-1-4.7-1c-32.3,1.5-61.1,30-63.3,62.3c-0.3,4.8,1,6.4,5.9,6.4
					c19.1-0.2,38.2-0.1,57.3-0.1c1.7,0,3.3,0,4.8-0.9v61.9c-1.5-1.5-1.4-3.6-1.9-5.5c-7.4-27.3-31.2-47.7-58.8-50.4
					c-7.2-0.7-7.4-0.6-7.4,6.5c0,18.6,0,37.2,0,55.9c0,2.2-0.1,4.3,0.9,6.3l-65.5,0c2.9-1.9,6.3-1.7,9.4-2.6
					c28.2-8.2,47.8-31.9,50.2-61.1c0.3-3.9-0.8-5.4-4.8-5.4c-19.6,0.1-39.2,0.1-58.8,0c-3.7,0-5,1.3-5,4.9c0.1,19.8,0,39.5,0.1,59.3
					c0,1.6,0.6,3.2,0.9,4.8l-5.6,0c1.7-3.5,0.8-7.2,0.3-10.8c-4.5-30.1-28.8-53.8-59-57.8c-1.8-0.2-3.6-0.2-5.5-0.3
					c-2-0.1-3.2,0.6-3.2,2.8c0,21.2,0,42.5,0.1,63.8c0,0.8,0.5,1.5,0.9,2.3c-21.6,0-43.2,0-64.8,0c1.1-1.5,3-1.2,4.5-1.6
					c29.4-6.3,51.5-31.1,54.2-60.9c0.5-5.9,0-6.5-6.1-6.5c-18.8,0-37.6,0.1-56.3-0.1c-4.5-0.1-6.2,1.1-6.1,5.9
					c0.2,18.9,0.1,37.9,0.1,56.8c0,2.2,0.1,4.3,0.9,6.3l-5.5,0c1.7-5.7,0.3-11.2-1-16.7c-6.6-27.5-29.3-47.8-57.4-51.8
					c-1.8-0.3-3.6-0.2-5.5-0.4c-2.8-0.3-3.9,1.1-3.9,3.8c0,20.4,0,40.8,0.1,61.3c0,1.3,0.6,2.5,0.9,3.8c-21.8,0-43.7,0-65.5,0
					c1.5-1.6,3.7-1.3,5.5-1.7c29.4-6.2,51.6-31.5,54.1-61.4c0.4-4.2-0.7-6-5.3-6c-19.3,0.2-38.5,0.2-57.8,0c-4.1,0-5.5,1.3-5.5,5.4
					c0.1,19.4,0.1,38.8,0.1,58.3c0,1.9,0.3,3.6,0.9,5.3h-5.5c1.8-3.7,0.7-7.6,0.1-11.2c-4.4-29.9-29.3-53.8-59.4-57.3
					c-8.2-1-8.3-0.8-8.3,7.5c0,18.3,0,36.5,0,54.8c0,2.2,0,4.3,1,6.3H9.6c7.9-2.4,16.1-3.7,23.4-7.8C55-21.4,67.2-39.9,69.9-64.8
					c0.4-3.6-0.3-5.6-4.6-5.6c-19.9,0.1-39.8,0-59.7,0.1c-1.4,0-2.9,0.6-4.3,0.8l0-67c2.1,7.3,3.3,14.8,6.7,21.8
					c11.6,23.3,30.4,36.2,56.1,39.3c4.3,0.5,6-1.1,5.9-5.5c-0.2-19.3-0.1-38.5,0-57.8c0-3.7-1.1-5.4-5.1-5.4
					c-19.8,0.1-39.5,0-59.3,0.1c-1.5,0-2.9,0.5-4.4,0.8v-4.8c3.9,2,7.9,0.6,11.7,0c30.2-4.6,54.9-31.6,56.9-62.2
					c0.3-3.9-0.5-5.8-5-5.8c-19.6,0.2-39.2,0.1-58.9,0.1c-1.7,0-3.3,0.2-4.8,1v-66.5c1.5,2.5,1.4,5.4,2.1,8.1
					c6.9,28.4,30.8,49.4,59.8,52.4c5.9,0.6,6.8-0.1,6.8-5.9c0-18.9-0.1-37.9,0.1-56.8c0.1-4.6-1.7-6.1-6.1-6.1
					c-19.1,0.1-38.2,0-57.3,0.1c-1.8,0-3.6,0.5-5.4,0.8l0-4.6c5.2,1.9,10.2,0.3,15.2-0.7c28.9-6.3,50.6-31.1,53.4-60.5
					c0.6-6.1,0.1-6.8-5.8-6.8c-19,0-37.9,0-56.8,0c-2,0-3.9,0.5-5.9,0.8l0-66.5c2.5,10.5,5.2,20.9,11.4,30
					c12.1,17.8,28.9,28,50.2,30.6c6.2,0.8,7-0.1,7-6.2c0-18.6-0.1-37.2,0.1-55.8c0.1-4.9-2-6.5-6.3-6.5c-13,0-25.9,0-38.9,0.1
					c-6,0-11.9,0.1-17.9-0.1c-2.1,0-3.9,0.3-5.7,1.3l0-5c6.8,1.9,13.2-0.1,19.6-1.9c26.8-7.6,46.7-32,49.1-59.9
					c0.4-4.4-0.4-6.3-5.4-6.2c-19.4,0.3-38.9,0.1-58.3,0.1c-1.6,0-3.3,0.5-4.9,0.7l0-66.7c1.9,5.7,2.7,11.6,4.7,17.2
					c8.8,23.7,33.4,42.2,57.8,43.6c4.9,0.3,6.3-1.2,6.3-6c-0.2-18.9-0.1-37.8-0.1-56.8c0-1.8,0.1-3.7-1-5.3h57.9
					c-0.1,2.7-2.5,2.1-3.9,2.6c-26.8,9.3-42.4,28-47.5,55.7c-0.4,2-0.3,4-0.5,6c-0.3,3,1.3,4.3,4.1,4.2c20.1,0,40.2,0,60.3,0
					c2.2,0,4.1-0.6,4.1-3.3c-0.2-21.6,0.7-43.2-0.5-64.7c0-0.2-0.1-0.3-0.1-0.5h5C146.6-571.4,148.7-563.5,151.6-555.7L151.6-555.7z
					 M153.3-506.7c-4.7-0.2-6.4,1.2-6.4,6.1c0.2,19,0.2,37.9,0,56.9c-0.1,4.7,1.4,6,6.1,5.7c30.5-2.1,57-26.7,61.7-57.4
					c1.2-7.5-2-11.3-9.6-11.3c-8,0-16,0-23.9,0v0C171.9-506.6,162.6-506.4,153.3-506.7L153.3-506.7z M298.5-506.7
					c-4.2-0.1-5.9,1.1-5.9,5.6c0.2,19.3,0.1,38.6,0,57.9c0,4.1,1.3,5.5,5.5,5.2c32.7-1.8,61.6-30.8,63.1-63.3
					c0.2-3.8-0.9-5.5-4.9-5.4c-9.8,0.2-19.6,0.1-29.4,0.1C317.4-506.6,307.9-506.5,298.5-506.7L298.5-506.7z M137.8-75.2
					c3.9,0.1,5.8-1,5.7-5.3c-0.1-19.4-0.1-38.9,0-58.3c0-4.2-1.6-5.4-5.7-5.1c-32.3,2.3-59.7,29.1-62.7,61.4
					c-0.6,6.8-0.2,7.2,6.4,7.2c9.3,0,18.6,0,27.9,0C118.8-75.2,128.3-75.4,137.8-75.2L137.8-75.2z M438.2-443.8
					c-0.1,4.7,1.4,6,6,5.8c30.2-1.9,57.7-27.3,61.9-57.7c1.7-12.3,1.8-11-9.3-11c-17.6,0-35.2,0.1-52.8-0.1c-4.3,0-5.9,1.3-5.8,5.7
					c0.3,9.6,0.1,19.2,0.1,28.9C438.3-462.7,438.5-453.2,438.2-443.8L438.2-443.8z M147-298.6c0,6,0.4,6.4,6.1,6
					c30-2,57.2-27.1,61.5-56.9c1.1-7.9-2.2-11.8-9.9-11.8c-17.3,0-34.6,0.1-51.8-0.1c-4.6-0.1-6.2,1.4-6,6
					c0.3,9.5,0.1,18.9,0.1,28.4S147-308.1,147-298.6z M297.8-361.4c-3.9-0.1-5.2,1.4-5.2,5.3c0.1,19.4,0.2,38.9,0,58.3
					c0,4.7,1.9,5.5,6,5.2c30.6-2.3,57.2-26.8,61.8-57.2c1.2-7.7-2.1-11.5-9.8-11.5c-4,0-8,0-12,0s-8,0-12,0
					C317.1-361.3,307.5-361.2,297.8-361.4L297.8-361.4z M507.1-429.3c0.1-4.1-1.7-5.8-5.6-5.7c-19.5,0-38.9,0-58.4,0
					c-3.7,0-5.1,1.8-4.8,5.3c2.9,34.4,29.7,60.3,62,63.4c6,0.6,6.7-0.2,6.7-6.1c0-9.3,0-18.6,0-27.9
					C507-410,506.9-419.7,507.1-429.3L507.1-429.3z M438.2-298.1c-0.1,4.4,1.3,5.9,5.7,5.6c32.5-1.8,61.5-31.2,63-63.9
					c0.1-3.4-0.8-5-4.4-4.9c-19.9,0.1-39.9,0.1-59.8,0c-3.6,0-4.5,1.7-4.5,5c0.1,10,0,19.9,0,29.9h0
					C438.3-317,438.5-307.5,438.2-298.1L438.2-298.1z M138.3-220.6c3.9,0.1,5.2-1.4,5.2-5.3c-0.1-19.4-0.1-38.9,0-58.3
					c0-4.3-1.7-5.5-5.7-5.2c-32.7,2.4-60.3,29.8-62.8,62.5c-0.4,5.6,0.1,6.2,5.9,6.2c9.3,0,18.6,0,27.9,0
					C118.7-220.7,128.5-220.8,138.3-220.6L138.3-220.6z M361.4-429.1c0.1-4.1-1.1-6-5.6-6c-18.6,0.2-37.2,0-55.8,0.1
					c-7.1,0-7.4,0.5-6.8,7.3c2.9,32.2,29,58.4,61.4,61.3c5.9,0.5,6.8-0.2,6.8-6c0-9.5,0-18.9,0-28.4
					C361.4-410.2,361.3-419.7,361.4-429.1L361.4-429.1z M297.9-215.9c-3.8-0.1-5.3,1.2-5.3,5.2c0.1,19.4,0.1,38.9,0,58.3
					c0,4.5,1.6,5.8,6,5.4c33.1-3,59.5-29.2,62.6-62.1c0.6-6,0-6.6-5.9-6.6c-9.5,0-18.9,0-28.4,0
					C317.2-215.8,307.5-215.7,297.9-215.9L297.9-215.9z M147-152c-0.1,4,1.5,5.2,5.4,5c32.7-1.9,61.5-30.8,63.3-63.6
					c0.2-4-1.1-5.3-5-5.3c-19.4,0.1-38.9,0.2-58.3,0c-4.3,0-5.4,1.7-5.3,5.6c0.2,9.6,0.1,19.3,0.1,28.9
					C147-171.6,147.1-161.8,147-152L147-152z M443.7-289.6c-4.5-0.1-5.8,1.8-5.3,6.1c3.9,33.7,27,57.6,60.6,62.5
					c6.9,1,7.9,0.2,7.9-6.7c0-18.6-0.1-37.2,0.1-55.8c0-4.6-1.5-6.2-6-6.1c-9.5,0.2-18.9,0.1-28.4,0.1
					C463-289.5,453.4-289.4,443.7-289.6L443.7-289.6z M215.7-429.4c0.1-4-1.4-5.7-5.5-5.7c-18.4,0.1-36.9-0.1-55.3,0.1
					c-8,0.1-8.1,0.4-7.2,8.3c3.5,31.5,29.1,57,60.5,60.2c6.9,0.7,7.5,0.2,7.5-6.6c0-9.1,0-18.3,0-27.4
					C215.6-410.1,215.5-419.8,215.7-429.4L215.7-429.4z M361.5-284.1c0.1-4.1-1.4-5.5-5.5-5.5c-19.1,0.1-38.2,0-57.3,0.1
					c-5.5,0-6.3,1.1-5.6,6.6c4.2,33.5,27.3,57.2,60.6,61.9c6.9,1,7.8,0.2,7.8-6.8c0-9.3,0-18.6,0-27.9
					C361.4-265.2,361.3-274.6,361.5-284.1L361.5-284.1z M137.9-366.1c4,0.1,5.7-1.1,5.7-5.3c-0.1-19.4-0.1-38.9-0.1-58.3
					c0-3.7-1.2-5.4-5.3-5.1c-32.8,2.4-59.6,28.3-63.1,61c-0.8,7.2-0.4,7.6,6.9,7.6c9.1,0,18.3,0,27.4,0v0
					C118.9-366.2,128.4-366.3,137.9-366.1L137.9-366.1z M444.1-215.9c-4.2-0.1-6,1.1-5.9,5.6c0.2,19.4,0.2,38.9,0,58.3
					c0,4,1.4,5.2,5.3,5c33.5-2.3,61.7-30.8,63.3-64.1c0.2-3.5-1-4.8-4.4-4.8c-10,0.1-19.9,0-29.9,0
					C463.1-215.8,453.6-215.7,444.1-215.9L444.1-215.9z M215.7-283.9c0.1-4-1.2-5.7-5.4-5.7c-19.3,0.1-38.6,0.1-57.9,0
					c-4.3,0-5.6,1.9-5.2,5.8c2.9,33.2,28.3,59.2,61.4,62.9c6.2,0.7,7,0,7.1-6.1c0-9.5,0-18.9,0-28.4S215.5-274.4,215.7-283.9
					L215.7-283.9z M74.7-152.1c-0.1,3.9,1.3,5.2,5.2,5.2c19.4-0.2,38.9-0.1,58.3,0c3.9,0,5.2-1.2,4.9-5.2
					c-2.1-33.1-29.1-60.8-62.2-63.5c-5.8-0.5-6.3-0.1-6.3,5.8c0,9.5,0,18.9,0,28.4C74.8-171.7,74.9-161.9,74.7-152.1L74.7-152.1z
					 M443.4-144c-4-0.1-5.3,1.4-4.9,5.4c3.3,34.1,28.6,59.9,62.4,63.3c4.1,0.4,6.2-0.7,6.2-5.3c-0.1-19.4-0.1-38.8,0-58.3
					c0-3.9-1.7-5.2-5.4-5.1c-9.8,0.1-19.6,0.1-29.4,0.1C462.6-144,453-143.9,443.4-144L443.4-144z M361.4-138.6
					c0.1-4.1-1.5-5.5-5.6-5.5c-19.3,0.1-38.5,0.1-57.8,0c-4.2,0-5.6,1.4-5.1,5.7c3.4,31.7,23.1,54.8,54.3,61.6
					c16.4,3.6,14,3.4,14.1-10.4c0-7.5,0-14.9,0-22.4C361.4-119.3,361.2-128.9,361.4-138.6L361.4-138.6z M220.4-151.9
					c-0.1,3.6,1.1,5,4.9,5c19.6-0.1,39.2-0.1,58.8,0c4.1,0,5-1.6,4.8-5.4c-2.3-33.1-28.8-60.3-61.8-63.3c-6.1-0.6-6.6-0.2-6.6,5.9
					c0,9.5,0,18.9,0,28.4C220.5-171.5,220.6-161.7,220.4-151.9L220.4-151.9z M215.7-138.8c0.1-3.9-1.4-5.2-5.3-5.2
					c-19.4,0.1-38.8,0.1-58.3,0c-4.4,0-5.4,1.9-4.9,5.9c4.1,34.5,27.5,58.3,61.9,62.7c5.4,0.7,6.5-0.2,6.6-5.6c0-9.5,0-18.9,0-28.4
					C215.6-119.2,215.5-129,215.7-138.8L215.7-138.8z M138.8-292.4c3.4,0,4.6-1,4.5-4.6c-1.5-33.3-30.6-62.7-63.7-64.2
					c-3.4-0.1-4.8,0.9-4.8,4.4c0.1,19.9,0.1,39.9,0,59.8c0,3.5,1.3,4.6,4.7,4.6c9.8-0.2,19.6-0.1,29.4-0.1
					C118.8-292.5,128.8-292.6,138.8-292.4L138.8-292.4z M366.2-151.9c-0.1,3.6,0.9,5.1,4.7,5c19.6-0.1,39.2-0.2,58.8,0
					c4.2,0,5-1.6,4.8-5.4c-1.7-32.7-30.1-61.4-62.8-63.4c-3.9-0.2-5.8,0.6-5.6,5c0.3,9.8,0.1,19.6,0.1,29.4S366.4-161.7,366.2-151.9
					L366.2-151.9z M284.5-292.4c3.6,0.1,4.6-1.3,4.4-4.8c-1.5-33.1-29.8-61.8-63.3-64c-4-0.3-5.3,1-5.3,5c0.1,19.6,0.1,39.2,0,58.8
					c0,4,1.5,5.1,5.3,5c9.8-0.2,19.6-0.1,29.4-0.1S274.7-292.6,284.5-292.4L284.5-292.4z M434.6-139c0.1-4-1.5-5.1-5.4-4.9
					c-32.1,1.6-61.4,30.8-63,62.9c-0.2,4.3,1,5.9,5.5,5.9c19.1-0.2,38.2-0.2,57.4,0c4.1,0,5.6-1.3,5.5-5.4
					c-0.2-9.8-0.1-19.6-0.1-29.4h0C434.5-119.7,434.4-129.3,434.6-139L434.6-139z M366.2-297.4c-0.1,3.6,0.9,5,4.7,5
					c19.6-0.2,39.2-0.2,58.8,0c4.1,0,5-1.5,4.8-5.3c-1.7-32.8-30.3-61.5-63.2-63.5c-4-0.2-5.2,1.2-5.1,5.1
					c0.2,9.8,0.1,19.6,0.1,29.4S366.4-307.2,366.2-297.4L366.2-297.4z M289-138.3c0.1-4.3-1.1-5.9-5.6-5.6
					c-32.1,2.3-59.8,29.4-62.6,61.6c-0.6,6.7-0.2,7.2,6.4,7.2c18.6,0,37.2-0.1,55.8,0.1c4.5,0.1,6.2-1.2,6-5.9
					c-0.3-9.4-0.1-18.9-0.1-28.4C288.9-119.1,288.7-128.7,289-138.3L289-138.3z M74.7-443.3c-0.1,3.8,1.1,5.4,4.9,5.4
					c19.9-0.1,39.8,0,59.8,0c3.1,0,4-1.4,3.9-4.3c-0.6-32.7-30.9-63.2-63.9-64.4c-3.5-0.1-4.7,1.1-4.7,4.5c0.1,10,0.1,19.9,0.1,29.9
					C74.8-462.5,75-452.9,74.7-443.3L74.7-443.3z M220.4-443.1c-0.1,3.7,0.9,5.4,5,5.3c19.6-0.1,39.2-0.1,58.8,0
					c3.7,0,4.9-1.2,4.7-5c-1.9-33.3-29.6-61.4-62.9-63.7c-4.1-0.3-5.7,0.8-5.6,5.1c0.2,9.8,0.1,19.6,0.1,29.4
					C220.5-462.4,220.6-452.8,220.4-443.1L220.4-443.1z M434.6-284.5c0.1-4-1.4-5.2-5.4-4.8c-33.3,3.3-58.1,27.2-62.7,60.3
					c-1.1,8-0.7,8.4,7.5,8.4c18.3,0,36.5-0.1,54.8,0.1c4.3,0,5.9-1.3,5.8-5.7c-0.3-9.6-0.1-19.3-0.1-28.9
					C434.5-265,434.4-274.8,434.6-284.5L434.6-284.5z M366.2-442.9c-0.1,3.6,0.9,5.1,4.7,5c19.6-0.1,39.2-0.1,58.9,0
					c3.7,0,4.9-1.3,4.8-5c-1.1-32.8-30.6-62.3-63.6-63.8c-3.8-0.2-4.9,1.2-4.8,4.9c0.2,9.8,0.1,19.6,0.1,29.4
					S366.4-452.7,366.2-442.9z M289-284.5c0.1-4.1-1.7-5.1-5.5-4.8c-32.8,2.8-59.4,28.7-62.8,61.4c-0.7,6.9-0.3,7.4,6.7,7.4
					c18.6,0,37.2-0.1,55.8,0.1c4.4,0.1,5.8-1.4,5.7-5.7c-0.3-9.6-0.1-19.3-0.1-28.9h0C288.9-265,288.8-274.8,289-284.5L289-284.5z
					 M289-429.8c0.1-4-1.4-5.1-5.3-5c-32.3,1.6-61.2,30.3-63.1,62.7c-0.3,4.3,0.9,6,5.4,5.9c19.1-0.2,38.2-0.2,57.4,0
					c4.5,0,5.8-1.5,5.7-5.8c-0.2-9.5-0.1-19-0.1-28.4h0C288.9-410.1,288.8-419.9,289-429.8L289-429.8z M434.6-429.4
					c0.1-4.1-1.4-5.5-5.5-5.3c-32.3,1.7-61.6,31.2-62.8,63.4c-0.1,3.6,0.9,5.2,4.7,5.2c19.6-0.1,39.2-0.1,58.8,0
					c3.8,0,4.9-1.4,4.9-5c-0.1-9.8,0-19.6,0-29.4C434.5-410.1,434.4-419.8,434.6-429.4L434.6-429.4z"/>
				<path class="st2" d="M126.8-579.9c-0.1,2.7-2.5,2.1-3.9,2.6c-26.8,9.3-42.4,28-47.5,55.7c-0.4,2-0.3,4-0.5,6
					c-0.3,3,1.3,4.3,4.1,4.2c20.1,0,40.2,0,60.3,0c2.2,0,4.1-0.6,4.1-3.3c-0.2-21.6,0.7-43.2-0.5-64.7c0-0.2-0.1-0.3-0.1-0.5h-12
					c-0.7,0.6-1.3,1.6-2,0L126.8-579.9L126.8-579.9z"/>
				<path class="st2" d="M567-579.9c-1.2,1.7-3.2,1.5-4.9,1.9c-27,7.5-47.6,31.8-49.9,59.1c-0.6,7-0.2,7.5,6.6,7.5
					c18.3,0,36.5,0,54.8,0c2.1,0,4.3-0.5,6.4-0.7c0-21.6,0-43.2,0.1-64.8c0-2.5-0.5-3.2-3.1-3C573.6-579.7,570.3-579.9,567-579.9
					L567-579.9z"/>
				<path class="st3" d="M579.9-14.2c-1.5-1.5-1.4-3.6-1.9-5.5c-7.4-27.3-31.2-47.7-58.8-50.4c-7.2-0.7-7.4-0.6-7.4,6.5
					c0,18.6,0,37.2,0,55.9c0,2.2-0.1,4.3,0.9,6.3c22.4,0,44.8,0.1,67.2,0.1V-14.2z"/>
				<path class="st2" d="M418.3-579.9c0.3,2.7-2.2,2-3.4,2.4c-27.4,9.3-43.4,28.3-48.1,56.8c-0.3,1.6-0.3,3.3-0.5,5
					c-0.3,2.9,1,4.4,3.9,4.4c20.1,0,40.2,0,60.3,0c2.5,0,4.1-1,4.1-3.8c-0.1-21.6-0.2-43.1-0.3-64.7h-13l-0.9,0.6l-0.1-0.6H418.3
					L418.3-579.9z"/>
				<path class="st2" d="M276.5-579.9c-2.4,1.7-5.3,1.7-7.9,2.7c-27.6,9.6-43.3,29.1-47.8,57.8c-1.2,7.5-0.5,8.1,7,8.1
					c18.3,0,36.6-0.1,54.9,0.1c4.8,0,6.4-1.5,6.3-6.3c-0.4-20.8,0.4-41.5-0.5-62.3L276.5-579.9L276.5-579.9z"/>
				<path class="st3" d="M579.9-160.9c-1.8-1.1-1.6-3.1-2-4.8c-7.6-27.2-31.6-47.4-59.7-49.9c-5.9-0.5-6.4-0.1-6.4,5.6
					c0,19.1,0.1,38.2-0.1,57.3c0,4.2,1,5.9,5.6,5.8c19.3-0.2,38.6-0.1,57.8-0.1c1.7,0,3.3,0.2,4.8-0.9L579.9-160.9L579.9-160.9z"/>
				<path class="st2" d="M579.9-142.9c-1.4-1.2-3-1-4.7-1c-32.3,1.5-61.1,30-63.3,62.3c-0.3,4.8,1,6.4,5.9,6.4
					c19.1-0.2,38.2-0.1,57.3-0.1c1.7,0,3.3,0,4.8-0.9L579.9-142.9L579.9-142.9z"/>
				<path class="st4" d="M439.2-579.9c-1.9,3.2-0.5,6.5,0,9.7c4.8,33.4,32.1,55.8,61,58.2c6.4,0.5,6.8,0,6.8-6.4
					c0-18.2,0-36.5,0-54.8c0-2.3,0.3-4.7-0.9-6.8L439.2-579.9L439.2-579.9z"/>
				<path class="st3" d="M579.9-304.5c-1.6-4.8-2.9-9.8-4.9-14.4c-11.1-25-30.5-39-57.6-42.2c-4-0.5-5.7,0.6-5.6,5
					c0.2,19.6,0.1,39.2,0,58.7c0,3.5,0.8,5.1,4.7,5c19.8-0.2,39.5-0.1,59.2-0.1c1.5,0,3,0.2,4.2-1.1L579.9-304.5L579.9-304.5z"/>
				<path class="st4" d="M293.5-579.9c-1.6,8.3,0.6,16.2,3.6,23.7c9.7,24.1,27.4,39,53.1,43.9c1.9,0.4,4,0.3,5.9,0.5
					c3.9,0.5,5.3-1.2,5.3-5.1c-0.1-19.4,0-38.8,0-58.2c0-1.7-0.1-3.3-1-4.8L293.5-579.9L293.5-579.9z"/>
				<path class="st4" d="M1.2-572.6C3.1-567,3.9-561,6-555.4c8.8,23.7,33.4,42.2,57.8,43.6c4.9,0.3,6.3-1.2,6.3-6
					c-0.2-18.9-0.1-37.8-0.1-56.8c0-1.8,0.1-3.7-1-5.3H1.1L1.2-572.6L1.2-572.6z"/>
				<path class="st4" d="M147.8-579.9c-1.2,8.5,0.9,16.4,3.8,24.2c8.9,24.2,33.5,42.7,57.9,43.9c4.3,0.2,6.3-0.6,6.2-5.6
					c-0.3-18.9-0.1-37.8-0.1-56.7c0-2,0.2-4-1-5.8H147.8L147.8-579.9z"/>
				<path class="st2" d="M579.9-288.6c-3.7-2-7.6-0.4-11.2,0.1c-29.7,4.2-54.9,31.8-56.7,61.6c-0.4,5.8,0,6.2,5.9,6.2
					c18.9,0,37.9,0,56.8,0c1.8,0,3.7,0.3,5.2-1.1L579.9-288.6L579.9-288.6z"/>
				<path class="st3" d="M579.9-451.2c-1.6-1.4-1.5-3.5-2-5.4c-7.7-27.6-32-47.7-60.2-49.9c-4.3-0.3-5.9,0.7-5.9,5.3
					c0.2,19.5,0.1,38.9,0.1,58.4c0,2.7,0.1,5,3.8,5c21.4-0.2,42.9-0.2,64.3-0.4L579.9-451.2L579.9-451.2z"/>
				<path class="st2" d="M579.9-434.2c-5.9-1.3-11.5,0.2-17.2,1.6c-27.9,7-49.5,33.1-50.8,61c-0.1,3.2,0,5.5,4.2,5.5
					c21.3-0.2,42.5-0.2,63.8-0.3L579.9-434.2L579.9-434.2z"/>
				<path class="st5" d="M1.2-572.6l-0.2-7.3c-0.3,0.2-1-0.5-1,0.5c0,1.3,0,2.7,0,4C0.1-385.2,0.1-195,0-4.7C0-1,0.8-0.2,4.6-0.2
					c190.3-0.1,380.6-0.1,570.9-0.2c1.5,0,3.4,1.1,4.5-0.9c-22.4,0-44.8-0.1-67.2-0.1c-21.8,0-43.6,0-65.5,0c-2.7-1.5-5.3,1.1-8,0
					c-1.9,0-3.7,0-5.6,0c-22.2,0-44.3,0-66.5,0c-21.6,0-43.2,0-64.8,0c-3,0-5.9,0-8.8,0c-1.8,0-3.6,0-5.5,0c-22.2,0-44.4,0-66.7,0
					c-21.8,0-43.7,0-65.5,0c-2.6,0-5.3,0-7.9,0c-1.8,0-3.7,0-5.5,0c-22.2,0-44.4,0-66.6,0c-22.1,0-44.1,0-66.2,0
					C6.4-2.1,1,1.6,1.1-5.7C1.2-27,1.2-48.2,1.2-69.5c0-22.3,0-44.7,0-67c0-2.2,0-4.5,0-6.7c0-1.6,0-3.2,0-4.8c0-22.3,0-44.6,0-66.9
					c0-22.2,0-44.3,0-66.5c0-2.5,0-4.9,0-7.3c0-1.5,0-3.1,0-4.6c0-22.4,0-44.8,0-67.1c0-22.2,0-44.4,0-66.5c0-2.2,0-4.5,0-6.7
					c0-1.7,0-3.3,0-5c0-22.4,0-44.8,0-67.1L1.2-572.6L1.2-572.6z"/>
				<path class="st1" d="M128.8-579.9c0.7,1.6,1.3,0.6,2,0H128.8z"/>
				<path class="st1" d="M420.2-579.9l0.1,0.6l0.9-0.6H420.2z"/>
				<path class="st6" d="M181.2-506.6c-9.3,0-18.6,0.2-27.9-0.1c-4.7-0.2-6.4,1.2-6.4,6.1c0.2,19,0.2,37.9,0,56.9
					c-0.1,4.7,1.4,6,6.1,5.7c30.5-2.1,57-26.7,61.7-57.4c1.2-7.5-2-11.3-9.6-11.3C197.2-506.7,189.2-506.7,181.2-506.6L181.2-506.6
					L181.2-506.6z"/>
				<path class="st6" d="M326.9-506.6c-9.5,0-19,0.2-28.4-0.1c-4.2-0.1-5.9,1.1-5.9,5.6c0.2,19.3,0.1,38.6,0,57.9
					c0,4.1,1.3,5.5,5.5,5.2c32.7-1.8,61.6-30.8,63.1-63.3c0.2-3.8-0.9-5.5-4.9-5.4C346.5-506.5,336.7-506.6,326.9-506.6L326.9-506.6
					z"/>
				<path class="st2" d="M109.4-75.2c9.5,0,18.9-0.1,28.4,0.1c3.9,0.1,5.8-1,5.7-5.3c-0.1-19.4-0.1-38.9,0-58.3
					c0-4.2-1.6-5.4-5.7-5.1c-32.3,2.3-59.7,29.1-62.7,61.4c-0.6,6.8-0.2,7.2,6.4,7.2C90.7-75.2,100.1-75.3,109.4-75.2L109.4-75.2z"
					/>
				<path class="st6" d="M438.3-472.1c0,9.5,0.2,18.9-0.1,28.4c-0.1,4.7,1.4,6,6,5.8c30.2-1.9,57.7-27.3,61.9-57.7
					c1.7-12.3,1.8-11-9.3-11c-17.6,0-35.2,0.1-52.8-0.1c-4.3,0-5.9,1.3-5.8,5.7C438.5-491.4,438.3-481.8,438.3-472.1L438.3-472.1z"
					/>
				<path class="st6" d="M1.2-360.5c0,22.4,0,44.8,0,67.1c5.2,1.9,10.2,0.3,15.2-0.7c28.9-6.3,50.6-31.1,53.4-60.5
					c0.6-6.1,0.1-6.8-5.8-6.8c-19,0-37.9,0-56.8,0C5.1-361.2,3.2-360.7,1.2-360.5L1.2-360.5z"/>
				<path class="st6" d="M147-327c0,9.5,0,18.9,0,28.4c0,6,0.4,6.4,6.1,6c30-2,57.2-27.1,61.5-56.9c1.1-7.9-2.2-11.8-9.9-11.8
					c-17.3,0-34.6,0.1-51.8-0.1c-4.6-0.1-6.2,1.4-6,6C147.2-345.9,147-336.5,147-327L147-327z"/>
				<path class="st6" d="M326.7-361.3c-9.6,0-19.3,0.1-28.9-0.1c-3.9-0.1-5.2,1.4-5.2,5.3c0.1,19.4,0.2,38.9,0,58.3
					c0,4.7,1.9,5.5,6,5.2c30.6-2.3,57.2-26.8,61.8-57.2c1.2-7.7-2.1-11.5-9.8-11.5c-4,0-8,0-12,0S330.7-361.3,326.7-361.3
					L326.7-361.3z"/>
				<path class="st4" d="M507-400.4c0-9.6-0.1-19.3,0-28.9c0.1-4.1-1.7-5.8-5.6-5.7c-19.5,0-38.9,0-58.4,0c-3.7,0-5.1,1.8-4.8,5.3
					c2.9,34.4,29.7,60.3,62,63.4c6,0.6,6.7-0.2,6.7-6.1C507-381.8,507-391.1,507-400.4L507-400.4z"/>
				<path class="st6" d="M438.3-326.5c0,9.5,0.2,18.9-0.1,28.4c-0.1,4.4,1.3,5.9,5.7,5.6c32.5-1.8,61.5-31.2,63-63.9
					c0.1-3.4-0.8-5-4.4-4.9c-19.9,0.1-39.9,0.1-59.8,0c-3.6,0-4.5,1.7-4.5,5C438.4-346.4,438.3-336.5,438.3-326.5L438.3-326.5
					L438.3-326.5z"/>
				<path class="st2" d="M108.9-220.7c9.8,0,19.6-0.1,29.4,0.1c3.9,0.1,5.2-1.4,5.2-5.3c-0.1-19.4-0.1-38.9,0-58.3
					c0-4.3-1.7-5.5-5.7-5.2c-32.7,2.4-60.3,29.8-62.8,62.5c-0.4,5.6,0.1,6.2,5.9,6.2C90.2-220.6,99.6-220.7,108.9-220.7L108.9-220.7
					z"/>
				<path class="st4" d="M361.4-400.7c0-9.5-0.1-18.9,0-28.4c0.1-4.1-1.1-6-5.6-6c-18.6,0.2-37.2,0-55.8,0.1c-7.1,0-7.4,0.5-6.8,7.3
					c2.9,32.2,29,58.4,61.4,61.3c5.9,0.5,6.8-0.2,6.8-6C361.4-381.8,361.4-391.3,361.4-400.7L361.4-400.7z"/>
				<path class="st6" d="M1.2-214.9c0,22.3,0,44.6,0,66.9c3.9,2,7.9,0.6,11.7,0c30.2-4.6,54.9-31.6,56.9-62.2c0.3-3.9-0.5-5.8-5-5.8
					c-19.6,0.2-39.2,0.1-58.9,0.1C4.3-215.8,2.7-215.6,1.2-214.9L1.2-214.9z"/>
				<path class="st6" d="M326.8-215.8c-9.6,0-19.3,0.1-28.9-0.1c-3.8-0.1-5.3,1.2-5.3,5.2c0.1,19.4,0.1,38.9,0,58.3
					c0,4.5,1.6,5.8,6,5.4c33.1-3,59.5-29.2,62.6-62.1c0.6-6,0-6.6-5.9-6.6C345.8-215.8,336.3-215.8,326.8-215.8L326.8-215.8z"/>
				<path class="st3" d="M75.8-1.4c22.2,0,44.4,0,66.6,0c1.8-3.7,0.7-7.6,0.1-11.2c-4.4-29.9-29.3-53.8-59.4-57.3
					c-8.2-1-8.3-0.8-8.3,7.5c0,18.3,0,36.5,0,54.8C74.8-5.5,74.7-3.4,75.8-1.4L75.8-1.4z"/>
				<path class="st6" d="M147-181.4c0,9.8,0.1,19.6-0.1,29.4c-0.1,4,1.5,5.2,5.4,5c32.7-1.9,61.5-30.8,63.3-63.6
					c0.2-4-1.1-5.3-5-5.3c-19.4,0.1-38.9,0.2-58.3,0c-4.3,0-5.4,1.7-5.3,5.6C147.1-200.6,147-191,147-181.4L147-181.4z"/>
				<path class="st4" d="M472.6-289.5c-9.6,0-19.3,0.1-28.9,0c-4.5-0.1-5.8,1.8-5.3,6.1c3.9,33.7,27,57.6,60.6,62.5
					c6.9,1,7.9,0.2,7.9-6.7c0-18.6-0.1-37.2,0.1-55.8c0-4.6-1.5-6.2-6-6.1C491.6-289.4,482.1-289.5,472.6-289.5L472.6-289.5z"/>
				<path class="st4" d="M215.6-400.5c0-9.6-0.1-19.3,0.1-28.9c0.1-4-1.4-5.7-5.5-5.7c-18.4,0.1-36.9-0.1-55.3,0.1
					c-8,0.1-8.1,0.4-7.2,8.3c3.5,31.5,29.1,57,60.5,60.2c6.9,0.7,7.5,0.2,7.5-6.6C215.6-382.2,215.6-391.3,215.6-400.5L215.6-400.5z
					"/>
				<path class="st4" d="M1.2-433.7c0,2.2,0,4.5,0,6.7c2.5,10.5,5.2,20.9,11.4,30c12.1,17.8,28.9,28,50.2,30.6c6.2,0.8,7-0.1,7-6.2
					c0-18.6-0.1-37.2,0.1-55.8c0.1-4.9-2-6.5-6.3-6.5c-13,0-25.9,0-38.9,0.1c-6,0-11.9,0.1-17.9-0.1C4.9-435,3-434.7,1.2-433.7
					L1.2-433.7z"/>
				<path class="st4" d="M361.4-255.7c0-9.5-0.1-18.9,0.1-28.4c0.1-4.1-1.4-5.5-5.5-5.5c-19.1,0.1-38.2,0-57.3,0.1
					c-5.5,0-6.3,1.1-5.6,6.6c4.2,33.5,27.3,57.2,60.6,61.9c6.9,1,7.8,0.2,7.8-6.8C361.4-237.1,361.4-246.4,361.4-255.7L361.4-255.7z
					"/>
				<path class="st4" d="M1.2-288.7c0,2.4,0,4.9,0,7.3c1.5,2.5,1.4,5.4,2.1,8.1c6.9,28.4,30.8,49.4,59.8,52.4
					c5.9,0.6,6.8-0.1,6.8-5.9c0-18.9-0.1-37.9,0.1-56.8c0.1-4.6-1.7-6.1-6.1-6.1c-19.1,0.1-38.2,0-57.3,0.1
					C4.8-289.5,3-289,1.2-288.7z"/>
				<path class="st2" d="M109.4-366.2c9.5,0,18.9-0.1,28.4,0.1c4,0.1,5.7-1.1,5.7-5.3c-0.1-19.4-0.1-38.9-0.1-58.3
					c0-3.7-1.2-5.4-5.3-5.1c-32.8,2.4-59.6,28.3-63.1,61c-0.8,7.2-0.4,7.6,6.9,7.6C91.2-366.2,100.3-366.1,109.4-366.2L109.4-366.2
					L109.4-366.2z"/>
				<path class="st3" d="M221.4-1.4c22.2,0,44.5,0,66.7,0c1.7-5.7,0.3-11.2-1-16.7c-6.6-27.5-29.3-47.8-57.4-51.8
					c-1.8-0.3-3.6-0.2-5.5-0.4c-2.8-0.3-3.9,1.1-3.9,3.8c0,20.4,0,40.8,0.1,61.3C220.5-3.9,221.1-2.6,221.4-1.4L221.4-1.4z"/>
				<path class="st3" d="M367.2-1.4c22.2,0,44.3,0,66.5,0c1.7-3.6,0.8-7.2,0.3-10.8c-4.5-30.1-28.8-53.8-59-57.8
					c-1.8-0.2-3.6-0.2-5.5-0.3c-2-0.1-3.2,0.6-3.2,2.8c0,21.2,0,42.5,0.1,63.8C366.3-2.9,366.9-2.2,367.2-1.4L367.2-1.4z"/>
				<path class="st6" d="M472.6-215.8c-9.5,0-18.9,0.2-28.4-0.1c-4.2-0.1-6,1.1-5.9,5.6c0.2,19.4,0.2,38.9,0,58.3c0,4,1.4,5.2,5.3,5
					c33.5-2.3,61.7-30.8,63.3-64.1c0.2-3.5-1-4.8-4.4-4.8C492.5-215.8,482.5-215.8,472.6-215.8L472.6-215.8z"/>
				<path class="st4" d="M215.6-255.4c0-9.5-0.1-19,0.1-28.4c0.1-4-1.2-5.7-5.4-5.7c-19.3,0.1-38.6,0.1-57.9,0
					c-4.3,0-5.6,1.9-5.2,5.8c2.9,33.2,28.3,59.2,61.4,62.9c6.2,0.7,7,0,7.1-6.1C215.6-236.5,215.6-246,215.6-255.4L215.6-255.4z"/>
				<path class="st6" d="M1.2-69.5c0,21.2,0,42.5-0.1,63.7c0,7.4,5.4,3.6,8.6,4.4C17.5-3.8,25.7-5.1,33-9.2
					C55-21.4,67.2-39.9,69.9-64.8c0.4-3.6-0.3-5.6-4.6-5.6c-19.9,0.1-39.8,0-59.7,0.1C4.1-70.3,2.6-69.8,1.2-69.5z"/>
				<path class="st3" d="M74.8-181.5c0,9.8,0.1,19.6-0.1,29.4c-0.1,3.9,1.3,5.2,5.2,5.2c19.5-0.2,38.9-0.1,58.3,0
					c3.9,0,5.2-1.2,4.9-5.2c-2.1-33.1-29.1-60.8-62.2-63.5c-5.8-0.5-6.3-0.1-6.3,5.8C74.8-200.4,74.8-190.9,74.8-181.5z"/>
				<path class="st6" d="M147.9-1.4c2.6,0,5.3,0,7.9,0c1.5-1.6,3.7-1.3,5.5-1.7c29.4-6.2,51.6-31.5,54.1-61.4c0.4-4.2-0.7-6-5.3-6
					c-19.3,0.2-38.5,0.2-57.8,0c-4.1,0-5.5,1.3-5.5,5.4c0.1,19.4,0.1,38.8,0.1,58.3C147-4.9,147.3-3.1,147.9-1.4L147.9-1.4z"/>
				<path class="st6" d="M293.6-1.4c3,0,5.9,0,8.8,0c1.1-1.6,3-1.2,4.5-1.6c29.4-6.3,51.5-31.1,54.2-60.9c0.5-5.9,0-6.5-6.1-6.5
					c-18.8,0-37.6,0.1-56.3-0.1c-4.5-0.1-6.2,1.1-6.1,5.9c0.2,18.9,0.1,37.9,0.1,56.8C292.7-5.5,292.8-3.4,293.6-1.4L293.6-1.4z"/>
				<path class="st4" d="M472.2-144c-9.6,0-19.3,0.1-28.9-0.1c-4-0.1-5.3,1.4-4.9,5.4c3.3,34.1,28.6,59.9,62.4,63.3
					c4.1,0.4,6.2-0.7,6.2-5.3c-0.1-19.4-0.1-38.8,0-58.3c0-3.9-1.7-5.2-5.4-5.1C491.8-143.9,482-144,472.2-144L472.2-144z"/>
				<path class="st6" d="M1.2-505.9c0,22.4,0,44.8,0,67.1c6.8,1.9,13.2-0.1,19.6-1.9c26.8-7.6,46.7-32,49.1-59.9
					c0.4-4.4-0.4-6.3-5.4-6.2c-19.4,0.3-38.9,0.1-58.3,0.1C4.5-506.6,2.8-506.1,1.2-505.9L1.2-505.9z"/>
				<path class="st4" d="M361.4-109.7c0-9.6-0.1-19.3,0.1-28.9c0.1-4.1-1.5-5.5-5.6-5.5c-19.3,0.1-38.5,0.1-57.8,0
					c-4.2,0-5.6,1.4-5.1,5.7c3.4,31.7,23.1,54.8,54.3,61.6c16.4,3.6,14,3.4,14.1-10.4C361.4-94.7,361.4-102.2,361.4-109.7
					L361.4-109.7z"/>
				<path class="st3" d="M220.4-181.3c0,9.8,0.1,19.6-0.1,29.4c-0.1,3.6,1.1,5,4.9,5c19.6-0.1,39.2-0.1,58.8,0c4.1,0,5-1.6,4.8-5.4
					c-2.3-33.1-28.8-60.3-61.8-63.3c-6.1-0.6-6.6-0.2-6.6,5.9C220.4-200.2,220.5-190.8,220.4-181.3L220.4-181.3z"/>
				<path class="st6" d="M439.3-1.4c2.7,1.1,5.3-1.6,8,0c2.9-1.9,6.3-1.6,9.4-2.6c28.2-8.2,47.8-31.9,50.2-61.1
					c0.3-3.9-0.8-5.4-4.8-5.4c-19.6,0.1-39.2,0.1-58.8,0c-3.7,0-5,1.3-5,4.9c0.1,19.8,0,39.5,0.1,59.3C438.4-4.6,438.9-3,439.3-1.4
					L439.3-1.4z"/>
				<path class="st4" d="M215.6-109.5c0-9.8-0.1-19.6,0.1-29.4c0.1-3.9-1.4-5.2-5.3-5.2c-19.4,0.1-38.8,0.1-58.3,0
					c-4.4,0-5.4,1.9-4.9,5.9c4.1,34.5,27.5,58.3,61.9,62.7c5.4,0.7,6.5-0.2,6.6-5.6C215.7-90.5,215.6-100,215.6-109.5L215.6-109.5z"
					/>
				<path class="st4" d="M1.2-143.1c0,2.2,0,4.5,0,6.7c2.1,7.3,3.3,14.8,6.7,21.8c11.6,23.3,30.4,36.2,56.1,39.3
					c4.3,0.5,6-1.1,5.9-5.5c-0.2-19.3-0.1-38.5,0-57.8c0-3.7-1.1-5.4-5.1-5.4c-19.8,0.1-39.5,0-59.3,0.1
					C4.1-143.9,2.7-143.4,1.2-143.1L1.2-143.1z"/>
				<path class="st3" d="M108.9-292.5c10,0,19.9-0.1,29.9,0c3.4,0,4.6-1,4.5-4.6c-1.5-33.3-30.6-62.7-63.7-64.2
					c-3.4-0.1-4.8,0.9-4.8,4.4c0.1,19.9,0.1,39.9,0,59.8c0,3.5,1.3,4.6,4.7,4.6C89.2-292.6,99.1-292.5,108.9-292.5L108.9-292.5z"/>
				<path class="st3" d="M366.2-181.3c0,9.8,0.1,19.6-0.1,29.4c-0.1,3.6,0.9,5.1,4.7,5c19.6-0.1,39.2-0.2,58.8,0
					c4.2,0,5-1.6,4.8-5.4c-1.7-32.7-30.1-61.4-62.8-63.4c-3.9-0.2-5.8,0.6-5.6,5C366.5-200.9,366.3-191.1,366.2-181.3L366.2-181.3z"
					/>
				<path class="st3" d="M255.1-292.5c9.8,0,19.6-0.1,29.4,0c3.6,0.1,4.6-1.3,4.4-4.8c-1.5-33.1-29.8-61.8-63.3-64
					c-4-0.3-5.3,1-5.3,5c0.1,19.6,0.1,39.2,0,58.8c0,4,1.5,5.1,5.3,5C235.5-292.6,245.3-292.5,255.1-292.5L255.1-292.5z"/>
				<path class="st2" d="M434.5-110.1c0-9.6-0.1-19.3,0.1-28.9c0.1-4-1.5-5.1-5.4-4.9c-32.1,1.6-61.4,30.8-63,62.9
					c-0.2,4.3,1,5.9,5.5,5.9c19.1-0.2,38.2-0.2,57.4,0c4.1,0,5.6-1.3,5.5-5.4C434.4-90.4,434.5-100.2,434.5-110.1L434.5-110.1
					L434.5-110.1z"/>
				<path class="st3" d="M366.2-326.8c0,9.8,0.1,19.6-0.1,29.4c-0.1,3.6,0.9,5,4.7,5c19.6-0.2,39.2-0.2,58.8,0c4.1,0,5-1.5,4.8-5.3
					c-1.7-32.8-30.3-61.5-63.2-63.5c-4-0.2-5.2,1.2-5.1,5.1C366.4-346.4,366.2-336.6,366.2-326.8L366.2-326.8z"/>
				<path class="st2" d="M288.9-109.5c0-9.6-0.2-19.3,0.1-28.9c0.1-4.3-1.1-5.9-5.6-5.6c-32.1,2.3-59.8,29.4-62.6,61.6
					c-0.6,6.7-0.2,7.2,6.4,7.2c18.6,0,37.2-0.1,55.8,0.1c4.5,0.1,6.2-1.2,6-5.9C288.7-90.5,288.9-100,288.9-109.5L288.9-109.5z"/>
				<path class="st3" d="M74.8-472.2c0,9.6,0.2,19.3-0.1,28.9c-0.1,3.8,1.1,5.4,4.9,5.4c19.9-0.1,39.8,0,59.8,0c3.1,0,4-1.4,3.9-4.3
					c-0.6-32.7-30.9-63.2-63.9-64.4c-3.5-0.1-4.7,1.1-4.7,4.5C74.9-492.1,74.8-482.1,74.8-472.2L74.8-472.2z"/>
				<path class="st3" d="M220.4-472c0,9.6,0.1,19.3-0.1,28.9c-0.1,3.7,0.9,5.4,5,5.3c19.6-0.1,39.2-0.1,58.8,0c3.7,0,4.9-1.2,4.7-5
					c-1.9-33.3-29.6-61.4-62.9-63.7c-4.1-0.3-5.7,0.8-5.6,5.1C220.6-491.6,220.5-481.8,220.4-472L220.4-472z"/>
				<path class="st2" d="M434.5-255.2c0-9.8-0.1-19.6,0-29.4c0.1-4-1.4-5.2-5.4-4.8c-33.3,3.3-58.1,27.2-62.7,60.3
					c-1.1,8-0.7,8.4,7.5,8.4c18.3,0,36.5-0.1,54.8,0.1c4.3,0,5.9-1.3,5.8-5.7C434.3-235.9,434.5-245.5,434.5-255.2L434.5-255.2z"/>
				<path class="st3" d="M366.2-472.3c0,9.8,0.1,19.6-0.1,29.4c-0.1,3.6,0.9,5.1,4.7,5c19.6-0.1,39.2-0.1,58.9,0
					c3.7,0,4.9-1.3,4.8-5c-1.1-32.8-30.6-62.3-63.6-63.8c-3.8-0.2-4.9,1.2-4.8,4.9C366.4-491.9,366.2-482.1,366.2-472.3L366.2-472.3
					z"/>
				<path class="st2" d="M288.9-255.2c0-9.8-0.1-19.6,0.1-29.4c0.1-4.1-1.7-5.1-5.5-4.8c-32.8,2.8-59.4,28.7-62.8,61.4
					c-0.7,6.9-0.3,7.4,6.7,7.4c18.6,0,37.2-0.1,55.8,0.1c4.4,0.1,5.8-1.4,5.7-5.7C288.7-235.9,288.9-245.5,288.9-255.2L288.9-255.2
					L288.9-255.2z"/>
				<path class="st2" d="M288.9-400.3c0-9.8-0.1-19.6,0.1-29.4c0.1-4-1.4-5.1-5.3-5c-32.3,1.6-61.2,30.3-63.1,62.7
					c-0.3,4.3,0.9,6,5.4,5.9c19.1-0.2,38.3-0.2,57.4,0c4.5,0,5.8-1.5,5.7-5.8C288.8-381.4,288.9-390.8,288.9-400.3L288.9-400.3
					L288.9-400.3z"/>
				<path class="st2" d="M434.5-400.5c0-9.6-0.1-19.3,0.1-28.9c0.1-4.1-1.4-5.5-5.5-5.3c-32.3,1.7-61.6,31.2-62.8,63.4
					c-0.1,3.6,0.9,5.2,4.7,5.2c19.6-0.1,39.2-0.1,58.8,0c3.8,0,4.9-1.4,4.9-5C434.4-380.9,434.5-390.7,434.5-400.5L434.5-400.5z"/>
			</g>
		</g>
	</g>
</pattern>
<g>
	<path class="st5" d="M53.1,405.4c1,0,1.3,1.2,1.6,8.2c0.3,6,0.7,10.6,1.8,12.3c3.4,5.1,6.3,7.2,10.1,7.2
		c13.3,0,13.3-23.9,13.3-36.7v-29.7c0-33.3-0.3-53.1-2.1-56.7c-1.1-2.2-4-2.9-8.1-2.9c-3.1,0-3.7,0-3.7-2.4v-3.4
		c0-1.2,0.4-1.7,1.4-1.7H102c0.7,0,1.1,0.2,1.1,1.5v3.9c0,2.2-0.9,2.2-2.7,2.2c-8.8,0.2-9,0.2-9,28.2v10.1c0.1,6,0.6,34.8,0.6,41.3
		c0,25.3-1,31.4-6.6,42c-5.8,8.9-12,12.3-21.8,12.3c-4.3,0-7.3-0.5-14-3.1v-30.4c0-1.2,0.3-2.2,0.9-2.2L53.1,405.4L53.1,405.4z"/>
	<path class="st5" d="M147.2,296.8h5.4l3.4,13.8c4.3,16.9,26.8,104.5,30.8,114.9c1.3,3.4,3.1,5.3,5,5.3c2.7,0,3,0.7,3,2.4v3.1
		c0,1.7-0.6,2.2-1.6,2.2l-32.2,0.2c-0.3,0-1.1-1.2-1.1-2.4l0.1-3.6c0-1,0.6-1.9,1-1.9h3.4c4,0,6.1-2.2,6.1-7c0-2.4-0.4-5.3-1.3-8.9
		l-5-20.8h-36.1l-5.7,23.9c-0.4,1.9-0.7,3.9-0.7,5.5c0,4.6,2.1,7.2,5.7,7.2h3.1c0.9,0,1.3,0.7,1.3,2.4v3.4c0,1.2-0.4,1.9-0.9,1.9
		l-27.1,0.2c-0.7,0-1-0.7-1-2.4v-3.6c0-1.2,0.3-1.9,1.3-1.9c3.8,0,6,0,11.3-19.3L147.2,296.8L147.2,296.8z M146.6,323.1l-16.1,62.3
		h31.7L146.6,323.1z"/>
	<path class="st5" d="M248.6,310.3h-27.5c-8.6,0-11.3,4.3-11.4,18.6c0,2.9-0.3,3.6-1.1,3.6c-3,0-3-0.5-3-5.1v-24.4
		c0-3.4,0.3-3.4,2.4-3.4h53.8c2,0,2.3,0,2.3,1.2v5.5c0,1-0.1,1.9-0.7,3.1l-14.1,36.2l-31.5,82.1h15.6c16.1,0,21.4-1,23.1-4.1
		c1.1-2.6,2.3-9.4,2.3-15.7c0.1-2.9,0.3-4.8,0.6-4.8h3.4c0.6,0,0.9,1.9,0.9,5.3v27c0,2.2-0.4,2.9-1.6,2.9l-59.2,0.2
		c-0.4,0-1-0.7-1-1.2v-6.8l7.6-18.4c12.3-30.2,23.4-58.9,34.2-87.9L248.6,310.3L248.6,310.3z"/>
	<path class="st5" d="M317,310.3h-27.5c-8.6,0-11.3,4.3-11.4,18.6c0,2.9-0.3,3.6-1.1,3.6c-3,0-3-0.5-3-5.1v-24.4
		c0-3.4,0.3-3.4,2.4-3.4h53.8c2,0,2.3,0,2.3,1.2v5.5c0,1-0.1,1.9-0.7,3.1l-14.1,36.2L286,427.9h15.5c16.1,0,21.4-1,23.1-4.1
		c1.1-2.6,2.3-9.4,2.3-15.7c0.1-2.9,0.3-4.8,0.6-4.8h3.4c0.6,0,0.9,1.9,0.9,5.3v27c0,2.2-0.4,2.9-1.6,2.9l-59.2,0.2
		c-0.4,0-1-0.7-1-1.2v-6.8l7.6-18.4c12.3-30.2,23.4-58.9,34.2-87.9L317,310.3L317,310.3z"/>
</g>
<g>
	<rect y="1" class="st7" width="375" height="509.6"/>
	<pattern  id="SVGID_1_" xlink:href="#d" patternTransform="matrix(1 0 0 -1 -103.51 -14215.4365)">
	</pattern>
	<rect y="1" class="st8" width="375" height="509.6"/>
</g>
<path class="st5" d="M358.1,198.3c-2.3,10.1-9,11.4-9,11.4l-170.6,85c-28.2-36.4-50.7-24.1-50.7-24.1c-11.8,2.9-25.7,27-25.7,27
	c-8.7,9.7-20.5,6.7-20.5,6.7c-8.6-2.9-27.3-5.9-27.3-5.9C15,294,0,314.5,0,314.5L0,526h375V188.9
	C367.3,197.5,358.1,198.3,358.1,198.3z M143.8,313.4c-5.6,0-10.2-4.6-10.2-10.4s4.6-10.4,10.2-10.4S154,297.3,154,303
	S149.4,313.4,143.8,313.4z"/>
<path class="st9" d="M275.1,404.1H98.9c-15.8,0-28.6-12.8-28.6-28.6v0c0-15.8,12.8-28.6,28.6-28.6h176.3c15.8,0,28.6,12.8,28.6,28.6
	v0C303.7,391.3,290.9,404.1,275.1,404.1z"/>
<text transform="matrix(1 0 0 1 101.3657 384.8138)" class="st10 st11">En savoir Plus</text>
</svg>
