<?xml version="1.0" encoding="UTF-8"?><svg xmlns="http://www.w3.org/2000/svg" viewBox="0 0 30 23.24"><g id="a"/><g id="b"><g id="c"><path d="M0,20.66c3.34,.23,6.25-.49,9.01-2.42-2.74-.33-4.69-1.53-5.71-4.07h2.43c-2.71-1.05-4.39-2.84-4.64-5.87l2.52,.68C1.16,6.75,.47,4.22,1.96,1.08c3.44,3.81,7.66,5.8,12.76,6.16,0-.85-.13-1.65,.02-2.39C15.65,.44,21.02-1.49,24.63,1.3c.6,.46,1.12,.58,1.78,.34,.9-.33,1.8-.67,2.7-1.01-.24,1.02-.59,1.47-2.45,3.13l3.19-.81,.15,.14c-.85,.8-1.72,1.59-2.54,2.42-.22,.23-.44,.59-.44,.89,.02,8.29-6.23,15.43-14.47,16.62-4.02,.58-7.84,.08-11.48-1.74-.32-.16-.62-.35-1.07-.61Z"/></g></g></svg>