<?xml version="1.0" encoding="UTF-8"?><svg xmlns="http://www.w3.org/2000/svg" viewBox="0 0 30 30.22"><g id="a"/><g id="b"><g id="c"><g><path d="M30,15.3c0,2.15,0,4.31,0,6.46,0,4.02-3.21,7.84-7.21,8.29-2.25,.26-4.54,.14-6.81,.16-2.37,.02-4.75,0-7.12,0C4.16,30.21,0,26.05,0,21.35,0,17.14,0,12.93,0,8.73,0,3.85,3.83,.02,8.69,.02c4.08,0,8.17,.07,12.25-.02,4.28-.09,8.28,3.47,8.89,7.39,.19,1.22,.13,2.48,.15,3.72,.02,1.39,0,2.79,0,4.18h0ZM14.83,2.45c-1.98,0-3.96,0-5.94,0-3.73,.01-6.44,2.66-6.48,6.4-.04,4.06-.04,8.12,0,12.18,.03,3.77,2.93,6.71,6.69,6.75,4.03,.05,8.07,.04,12.1,0,3.69-.04,6.37-2.73,6.4-6.42,.03-4.06,.04-8.12,0-12.18-.04-3.84-3-6.74-6.83-6.74-1.98,0-3.96,0-5.94,0Z"/><path d="M7.31,15.03c-.12-4.15,3.58-8.02,8.23-7.71,3.69,.24,7.29,3.49,7.17,7.98-.11,4.28-3.5,7.63-7.85,7.59-4.25-.03-7.6-3.51-7.56-7.86Zm12.97,.05c-.02-3.04-2.35-5.35-5.36-5.32-2.91,.03-5.21,2.37-5.18,5.34,.02,3.05,2.24,5.37,5.32,5.37,2.96,0,5.25-2.43,5.23-5.39Z"/><path d="M20.72,7.1c0-1.15,.94-2.11,2.09-2.11,1.11,0,2.14,1.01,2.13,2.1-.01,1.1-.96,2.05-2.07,2.07-1.14,.02-2.14-.94-2.15-2.06Z"/></g></g></g></svg>