<?xml version="1.0" encoding="UTF-8"?><svg xmlns="http://www.w3.org/2000/svg" viewBox="0 0 30 29.99"><g id="a"/><g id="b"><g id="c"><path d="M19.68,29.99v-11.32h4.96v-5.01h-4.9s-.06-.05-.06-.07c.01-.79-.02-1.58,.07-2.36,.07-.62,.52-.91,1.14-.91,1.24,0,2.49,0,3.75,0V5.37s-.05-.03-.08-.03c-1.39,0-2.79,0-4.18,.01-1.1,.02-2.06,.46-2.91,1.12-.76,.59-1.34,1.35-1.76,2.21-.47,.96-.71,1.99-.71,3.06,0,.62,0,1.24,0,1.88h-3.64v5.01h3.62v11.34h-.33c-3.21,0-6.42,0-9.63,0-1.23,0-2.3-.46-3.22-1.25-.9-.78-1.49-1.77-1.71-2.95-.05-.27-.08-.55-.08-.82C0,18.3,0,11.63,0,4.97c0-1.23,.48-2.3,1.28-3.21C2.19,.74,3.33,.16,4.69,.01c.09,0,.18,0,.27,0,6.68,0,13.36-.02,20.03,.01,1.95,.01,3.4,1,4.38,2.68,.47,.81,.64,1.69,.64,2.63,0,6.54,.01,13.08-.02,19.61,0,2-1.02,3.48-2.75,4.45-.78,.44-1.62,.61-2.52,.6-1.56-.01-3.12,0-4.68,0h-.35Z"/></g></g></svg>